<?xml version="1.0" encoding="UTF-8"?>
<svg id="Layer_1" xmlns="http://www.w3.org/2000/svg" version="1.1" viewBox="0 0 672 230">
  <!-- Generator: Adobe Illustrator 29.1.0, SVG Export Plug-In . SVG Version: 2.1.0 Build 142)  -->
  <defs>
    <style>
      .st0 {
        fill: #0571f0;
      }

      .st1 {
        fill: #68b4de;
      }

      .st2 {
        opacity: 0;
      }

      .st3 {
        opacity: .9;
      }

      .st4 {
        opacity: .9;
      }

      .st5 {
        opacity: .9;
      }

      .st6 {
        opacity: .9;
      }

      .st7 {
        opacity: .9;
      }

      .st8 {
        opacity: .8;
      }

      .st9 {
        opacity: .8;
      }

      .st10 {
        opacity: .8;
      }

      .st11 {
        opacity: .8;
      }

      .st12 {
        opacity: .8;
      }

      .st13 {
        opacity: .8;
      }

      .st14 {
        opacity: .8;
      }

      .st15 {
        opacity: .7;
      }

      .st16 {
        opacity: .8;
      }

      .st17 {
        opacity: .7;
      }

      .st18 {
        opacity: 1;
      }

      .st19 {
        opacity: 1;
      }

      .st20 {
        opacity: 1;
      }

      .st21 {
        opacity: .9;
      }

      .st22 {
        opacity: .5;
      }

      .st23 {
        opacity: .4;
      }

      .st24 {
        opacity: .4;
      }

      .st25 {
        opacity: .4;
      }

      .st26 {
        opacity: .4;
      }

      .st27 {
        opacity: .4;
      }

      .st28 {
        opacity: .4;
      }

      .st29 {
        opacity: .4;
      }

      .st30 {
        opacity: .4;
      }

      .st31 {
        opacity: .7;
      }

      .st32 {
        opacity: .7;
      }

      .st33 {
        opacity: .6;
      }

      .st34 {
        opacity: .6;
      }

      .st35 {
        opacity: .6;
      }

      .st36 {
        opacity: .6;
      }

      .st37 {
        opacity: .6;
      }

      .st38 {
        opacity: .6;
      }

      .st39 {
        opacity: .5;
      }

      .st40 {
        opacity: .5;
      }

      .st41 {
        opacity: .5;
      }

      .st42 {
        opacity: .5;
      }

      .st43 {
        opacity: .5;
      }

      .st44 {
        opacity: .5;
      }

      .st45 {
        opacity: .2;
      }

      .st46 {
        opacity: .2;
      }

      .st47 {
        opacity: .2;
      }

      .st48 {
        opacity: .2;
      }

      .st49 {
        opacity: .2;
      }

      .st50 {
        opacity: .2;
      }

      .st51 {
        opacity: .3;
      }

      .st52 {
        opacity: .3;
      }

      .st53 {
        opacity: .3;
      }

      .st54 {
        opacity: .3;
      }

      .st55 {
        opacity: .1;
      }

      .st56 {
        opacity: 0;
      }

      .st57 {
        opacity: 0;
      }

      .st58 {
        opacity: .2;
      }

      .st59 {
        opacity: .1;
      }

      .st60 {
        opacity: .1;
      }

      .st61 {
        opacity: .1;
      }

      .st62 {
        opacity: 0;
      }

      .st63 {
        opacity: 0;
      }

      .st64 {
        opacity: 0;
      }

      .st65 {
        opacity: 0;
      }

      .st66 {
        opacity: 0;
      }

      .st67 {
        opacity: 0;
      }

      .st68 {
        opacity: 0;
      }
    </style>
  </defs>
  <g class="st11">
    <g class="st59">
      <rect class="st0" x="29.8" y="-149.3" width="28.9" height="28.9"/>
    </g>
    <g class="st29">
      <rect class="st0" x="69" y="-149.3" width="28.9" height="28.9"/>
    </g>
    <g class="st16">
      <rect class="st0" x="500.5" y="-149.3" width="28.9" height="28.9"/>
    </g>
    <g class="st41">
      <rect class="st0" x="539.7" y="-149.3" width="28.9" height="28.9"/>
    </g>
    <g class="st62">
      <rect class="st0" x="578.9" y="-149.3" width="28.9" height="28.9"/>
    </g>
    <g class="st3">
      <rect class="st0" x="618.1" y="-149.3" width="28.9" height="28.9"/>
    </g>
    <g class="st5">
      <rect class="st0" x="657.3" y="-149.3" width="28.9" height="28.9"/>
    </g>
    <g class="st66">
      <rect class="st0" x="696.6" y="-149.3" width="28.9" height="28.9"/>
    </g>
    <g class="st50">
      <rect class="st0" x="736.7" y="-149.3" width="28.9" height="28.9"/>
    </g>
    <g class="st33">
      <rect class="st0" x="29.8" y="-112.7" width="28.9" height="28.9"/>
    </g>
    <g class="st48">
      <rect class="st0" x="69" y="-112.7" width="28.9" height="28.9"/>
    </g>
    <g class="st23">
      <rect class="st0" x="108.2" y="-112.7" width="28.9" height="28.9"/>
    </g>
    <g class="st35">
      <rect class="st0" x="461.2" y="-112.7" width="28.9" height="28.9"/>
    </g>
    <g class="st3">
      <rect class="st0" x="500.5" y="-112.7" width="28.9" height="28.9"/>
    </g>
    <g class="st25">
      <rect class="st0" x="539.7" y="-112.7" width="28.9" height="28.9"/>
    </g>
    <g class="st39">
      <rect class="st0" x="578.9" y="-112.7" width="28.9" height="28.9"/>
    </g>
    <g class="st34">
      <rect class="st0" x="618.1" y="-112.7" width="28.9" height="28.9"/>
    </g>
    <g class="st65">
      <rect class="st0" x="657.3" y="-112.7" width="28.9" height="28.9"/>
    </g>
    <g class="st49">
      <rect class="st0" x="29.8" y="-76.2" width="28.9" height="28.9"/>
    </g>
    <g class="st52">
      <rect class="st0" x="69" y="-76.2" width="28.9" height="28.9"/>
    </g>
    <rect class="st0" x="108.2" y="-76.2" width="28.9" height="28.9"/>
    <g class="st40">
      <rect class="st0" x="422" y="-76.2" width="28.9" height="28.9"/>
    </g>
    <g class="st10">
      <rect class="st0" x="461.2" y="-76.2" width="28.9" height="28.9"/>
    </g>
    <g class="st8">
      <rect class="st0" x="500.5" y="-76.2" width="28.9" height="28.9"/>
    </g>
    <g class="st20">
      <rect class="st0" x="539.7" y="-76.2" width="28.9" height="28.9"/>
    </g>
    <g class="st60">
      <rect class="st0" x="578.9" y="-76.2" width="28.9" height="28.9"/>
    </g>
    <g class="st24">
      <rect class="st0" x="618.1" y="-76.2" width="28.9" height="28.9"/>
    </g>
    <g class="st23">
      <rect class="st0" x="29.8" y="-39.7" width="28.9" height="28.9"/>
    </g>
    <g class="st32">
      <rect class="st0" x="69" y="-39.7" width="28.9" height="28.9"/>
    </g>
    <g class="st38">
      <rect class="st0" x="108.2" y="-39.7" width="28.9" height="28.9"/>
    </g>
    <g class="st23">
      <rect class="st0" x="147.5" y="-39.7" width="28.9" height="28.9"/>
    </g>
    <g class="st37">
      <rect class="st0" x="186.7" y="-39.7" width="28.9" height="28.9"/>
    </g>
    <g class="st51">
      <rect class="st0" x="225.9" y="-39.7" width="28.9" height="28.9"/>
    </g>
    <g class="st7">
      <rect class="st0" x="265.1" y="-39.7" width="28.9" height="28.9"/>
    </g>
    <g class="st34">
      <rect class="st0" x="304.3" y="-39.7" width="28.9" height="28.9"/>
    </g>
    <g class="st65">
      <rect class="st0" x="343.6" y="-39.7" width="28.9" height="28.9"/>
    </g>
    <g class="st55">
      <rect class="st0" x="382.8" y="-39.7" width="28.9" height="28.9"/>
    </g>
    <g class="st6">
      <rect class="st0" x="422" y="-39.7" width="28.9" height="28.9"/>
    </g>
    <g class="st36">
      <rect class="st0" x="461.2" y="-39.7" width="28.9" height="28.9"/>
    </g>
    <g class="st40">
      <rect class="st0" x="500.5" y="-39.7" width="28.9" height="28.9"/>
    </g>
    <g class="st66">
      <rect class="st0" x="539.7" y="-39.7" width="28.9" height="28.9"/>
    </g>
    <g class="st6">
      <rect class="st0" x="578.9" y="-39.7" width="28.9" height="28.9"/>
    </g>
    <rect class="st0" x="29.8" y="-3.2" width="28.9" height="28.9"/>
    <g class="st28">
      <rect class="st0" x="69" y="-3.2" width="28.9" height="28.9"/>
    </g>
    <g class="st9">
      <rect class="st0" x="108.2" y="-3.2" width="28.9" height="28.9"/>
    </g>
    <g class="st36">
      <rect class="st0" x="147.5" y="-3.2" width="28.9" height="28.9"/>
    </g>
    <g class="st23">
      <rect class="st0" x="186.7" y="-3.2" width="28.9" height="28.9"/>
    </g>
    <g class="st65">
      <rect class="st0" x="225.9" y="-3.2" width="28.9" height="28.9"/>
    </g>
    <g class="st9">
      <rect class="st0" x="265.1" y="-3.2" width="28.9" height="28.9"/>
    </g>
    <g class="st14">
      <rect class="st0" x="304.3" y="-3.2" width="28.9" height="28.9"/>
    </g>
    <g class="st16">
      <rect class="st0" x="343.6" y="-3.2" width="28.9" height="28.9"/>
    </g>
    <g class="st67">
      <rect class="st0" x="29.8" y="33.3" width="28.9" height="28.9"/>
    </g>
    <g class="st34">
      <rect class="st0" x="69" y="33.3" width="28.9" height="28.9"/>
    </g>
    <g class="st67">
      <rect class="st0" x="108.2" y="33.3" width="28.9" height="28.9"/>
    </g>
    <g class="st30">
      <rect class="st0" x="147.5" y="33.3" width="28.9" height="28.9"/>
    </g>
    <g class="st19">
      <rect class="st0" x="186.7" y="33.3" width="28.9" height="28.9"/>
    </g>
    <g class="st20">
      <rect class="st0" x="225.9" y="33.3" width="28.9" height="28.9"/>
    </g>
    <g class="st56">
      <rect class="st0" x="265.1" y="33.3" width="28.9" height="28.9"/>
    </g>
    <g class="st53">
      <rect class="st0" x="304.3" y="33.3" width="28.9" height="28.9"/>
    </g>
    <g class="st24">
      <rect class="st0" x="343.6" y="33.3" width="28.9" height="28.9"/>
    </g>
  </g>
  <g>
    <g class="st59">
      <rect class="st1" x="747.5" y="-69.4" width="19.4" height="19.4"/>
    </g>
    <g class="st29">
      <rect class="st1" x="721.1" y="-69.4" width="19.4" height="19.4"/>
    </g>
    <g class="st35">
      <rect class="st1" x="694.8" y="-69.4" width="19.4" height="19.4"/>
    </g>
    <g class="st31">
      <rect class="st1" x="668.5" y="-69.4" width="19.4" height="19.4"/>
    </g>
    <g class="st26">
      <rect class="st1" x="642.2" y="-69.4" width="19.4" height="19.4"/>
    </g>
    <g class="st21">
      <rect class="st1" x="615.9" y="-69.4" width="19.4" height="19.4"/>
    </g>
    <g class="st18">
      <rect class="st1" x="589.5" y="-69.4" width="19.4" height="19.4"/>
    </g>
    <g class="st33">
      <rect class="st1" x="747.5" y="-44.9" width="19.4" height="19.4"/>
    </g>
    <g class="st48">
      <rect class="st1" x="721.1" y="-44.9" width="19.4" height="19.4"/>
    </g>
    <g class="st23">
      <rect class="st1" x="694.8" y="-44.9" width="19.4" height="19.4"/>
    </g>
    <g class="st27">
      <rect class="st1" x="668.5" y="-44.9" width="19.4" height="19.4"/>
    </g>
    <g class="st31">
      <rect class="st1" x="642.2" y="-44.9" width="19.4" height="19.4"/>
    </g>
    <g class="st63">
      <rect class="st1" x="615.9" y="-44.9" width="19.4" height="19.4"/>
    </g>
    <rect class="st1" x="589.5" y="-44.9" width="19.4" height="19.4"/>
    <g class="st57">
      <rect class="st1" x="563.2" y="-44.9" width="19.4" height="19.4"/>
    </g>
    <g class="st46">
      <rect class="st1" x="536.9" y="-44.9" width="19.4" height="19.4"/>
    </g>
    <g class="st49">
      <rect class="st1" x="747.5" y="-20.4" width="19.4" height="19.4"/>
    </g>
    <g class="st52">
      <rect class="st1" x="721.1" y="-20.4" width="19.4" height="19.4"/>
    </g>
    <rect class="st1" x="694.8" y="-20.4" width="19.4" height="19.4"/>
    <g class="st42">
      <rect class="st1" x="668.5" y="-20.4" width="19.4" height="19.4"/>
    </g>
    <g class="st2">
      <rect class="st1" x="642.2" y="-20.4" width="19.4" height="19.4"/>
    </g>
    <g class="st15">
      <rect class="st1" x="615.9" y="-20.4" width="19.4" height="19.4"/>
    </g>
    <g class="st9">
      <rect class="st1" x="589.5" y="-20.4" width="19.4" height="19.4"/>
    </g>
    <g class="st39">
      <rect class="st1" x="563.2" y="-20.4" width="19.4" height="19.4"/>
    </g>
    <g class="st60">
      <rect class="st1" x="536.9" y="-20.4" width="19.4" height="19.4"/>
    </g>
    <g class="st52">
      <rect class="st1" x="510.6" y="-20.4" width="19.4" height="19.4"/>
    </g>
    <g class="st40">
      <rect class="st1" x="484.2" y="-20.4" width="19.4" height="19.4"/>
    </g>
    <g class="st10">
      <rect class="st1" x="457.9" y="-20.4" width="19.4" height="19.4"/>
    </g>
    <g class="st8">
      <rect class="st1" x="431.6" y="-20.4" width="19.4" height="19.4"/>
    </g>
    <g class="st20">
      <rect class="st1" x="405.3" y="-20.4" width="19.4" height="19.4"/>
    </g>
    <g class="st60">
      <rect class="st1" x="379" y="-20.4" width="19.4" height="19.4"/>
    </g>
    <g class="st24">
      <rect class="st1" x="352.6" y="-20.4" width="19.4" height="19.4"/>
    </g>
    <g class="st63">
      <rect class="st1" x="326.3" y="-20.4" width="19.4" height="19.4"/>
    </g>
    <g class="st17">
      <rect class="st1" x="300" y="-20.4" width="19.4" height="19.4"/>
    </g>
    <g class="st10">
      <rect class="st1" x="273.1" y="-20.4" width="19.4" height="19.4"/>
    </g>
    <g class="st40">
      <rect class="st1" x="246.7" y="-20.4" width="19.4" height="19.4"/>
    </g>
    <g class="st57">
      <rect class="st1" x="220.4" y="-20.4" width="19.4" height="19.4"/>
    </g>
    <g class="st23">
      <rect class="st1" x="747.5" y="4.1" width="19.4" height="19.4"/>
    </g>
    <g class="st51">
      <rect class="st1" x="615.9" y="4.1" width="19.4" height="19.4"/>
    </g>
    <g class="st7">
      <rect class="st1" x="589.5" y="4.1" width="19.4" height="19.4"/>
    </g>
    <g class="st34">
      <rect class="st1" x="563.2" y="4.1" width="19.4" height="19.4"/>
    </g>
    <g class="st65">
      <rect class="st1" x="536.9" y="4.1" width="19.4" height="19.4"/>
    </g>
    <g class="st55">
      <rect class="st1" x="510.6" y="4.1" width="19.4" height="19.4"/>
    </g>
    <g class="st6">
      <rect class="st1" x="484.2" y="4.1" width="19.4" height="19.4"/>
    </g>
    <g class="st36">
      <rect class="st1" x="457.9" y="4.1" width="19.4" height="19.4"/>
    </g>
    <g class="st40">
      <rect class="st1" x="431.6" y="4.1" width="19.4" height="19.4"/>
    </g>
    <g class="st66">
      <rect class="st1" x="405.3" y="4.1" width="19.4" height="19.4"/>
    </g>
    <g class="st6">
      <rect class="st1" x="379" y="4.1" width="19.4" height="19.4"/>
    </g>
    <g class="st7">
      <rect class="st1" x="352.6" y="4.1" width="19.4" height="19.4"/>
    </g>
    <g class="st29">
      <rect class="st1" x="326.3" y="4.1" width="19.4" height="19.4"/>
    </g>
    <g class="st61">
      <rect class="st1" x="300" y="4.1" width="19.4" height="19.4"/>
    </g>
    <g class="st64">
      <rect class="st1" x="273.1" y="4.1" width="19.4" height="19.4"/>
    </g>
    <g class="st22">
      <rect class="st1" x="246.7" y="4.1" width="19.4" height="19.4"/>
    </g>
    <g class="st45">
      <rect class="st1" x="220.4" y="4.1" width="19.4" height="19.4"/>
    </g>
    <g class="st2">
      <rect class="st1" x="194.1" y="4.1" width="19.4" height="19.4"/>
    </g>
    <g class="st44">
      <rect class="st1" x="167.8" y="4.1" width="19.4" height="19.4"/>
    </g>
    <g class="st6">
      <rect class="st1" x="141.5" y="4.1" width="19.4" height="19.4"/>
    </g>
    <g class="st29">
      <rect class="st1" x="115.1" y="4.1" width="19.4" height="19.4"/>
    </g>
    <g class="st24">
      <rect class="st1" x="88.8" y="4.1" width="19.4" height="19.4"/>
    </g>
    <g class="st4">
      <rect class="st1" x="62.5" y="4.1" width="19.4" height="19.4"/>
    </g>
    <g class="st6">
      <rect class="st1" x="36.2" y="4.1" width="19.4" height="19.4"/>
    </g>
    <rect class="st1" x="747.5" y="28.6" width="19.4" height="19.4"/>
    <g class="st16">
      <rect class="st1" x="536.9" y="28.6" width="19.4" height="19.4"/>
    </g>
    <g class="st58">
      <rect class="st1" x="510.6" y="28.6" width="19.4" height="19.4"/>
    </g>
    <g class="st39">
      <rect class="st1" x="484.2" y="28.6" width="19.4" height="19.4"/>
    </g>
    <g class="st39">
      <rect class="st1" x="457.9" y="28.6" width="19.4" height="19.4"/>
    </g>
    <g class="st12">
      <rect class="st1" x="431.6" y="28.6" width="19.4" height="19.4"/>
    </g>
    <g class="st25">
      <rect class="st1" x="405.3" y="28.6" width="19.4" height="19.4"/>
    </g>
    <g class="st26">
      <rect class="st1" x="379" y="28.6" width="19.4" height="19.4"/>
    </g>
    <g class="st37">
      <rect class="st1" x="352.6" y="28.6" width="19.4" height="19.4"/>
    </g>
    <g class="st68">
      <rect class="st1" x="326.3" y="28.6" width="19.4" height="19.4"/>
    </g>
    <g class="st33">
      <rect class="st1" x="300" y="28.6" width="19.4" height="19.4"/>
    </g>
    <g class="st20">
      <rect class="st1" x="273.1" y="28.6" width="19.4" height="19.4"/>
    </g>
    <g class="st47">
      <rect class="st1" x="246.7" y="28.6" width="19.4" height="19.4"/>
    </g>
    <g class="st18">
      <rect class="st1" x="220.4" y="28.6" width="19.4" height="19.4"/>
    </g>
    <g class="st43">
      <rect class="st1" x="194.1" y="28.6" width="19.4" height="19.4"/>
    </g>
    <g class="st13">
      <rect class="st1" x="167.8" y="28.6" width="19.4" height="19.4"/>
    </g>
    <g class="st36">
      <rect class="st1" x="141.5" y="28.6" width="19.4" height="19.4"/>
    </g>
    <g class="st22">
      <rect class="st1" x="115.1" y="28.6" width="19.4" height="19.4"/>
    </g>
    <g class="st67">
      <rect class="st1" x="747.5" y="53.1" width="19.4" height="19.4"/>
    </g>
    <g class="st19">
      <rect class="st1" x="431.6" y="53.1" width="19.4" height="19.4"/>
    </g>
    <g class="st39">
      <rect class="st1" x="167.8" y="53.1" width="19.4" height="19.4"/>
    </g>
    <g class="st54">
      <rect class="st1" x="141.5" y="53.1" width="19.4" height="19.4"/>
    </g>
  </g>
</svg>