<?xml version="1.0" encoding="UTF-8"?>
<svg id="Layer_1" xmlns="http://www.w3.org/2000/svg" version="1.1" viewBox="0 0 200 200">
  <!-- Generator: Adobe Illustrator 29.1.0, SVG Export Plug-In . SVG Version: 2.1.0 Build 142)  -->
  <defs>
    <style>
      .st0 {
        isolation: isolate;
        opacity: .9;
      }

      .st0, .st1 {
        fill: #2959d6;
      }

      .st2 {
        fill: #0d9fb1;
      }

      .st3 {
        opacity: .7;
      }

      .st4 {
        opacity: .4;
      }

      .st5 {
        opacity: .4;
      }

      .st6 {
        opacity: .6;
      }

      .st7 {
        opacity: .6;
      }

      .st8 {
        opacity: .5;
      }

      .st9 {
        opacity: .5;
      }

      .st10 {
        opacity: .2;
      }

      .st11 {
        opacity: .2;
      }

      .st12 {
        opacity: .3;
      }

      .st13 {
        opacity: .3;
      }

      .st14 {
        opacity: .1;
      }

      .st15 {
        opacity: 0;
      }

      .st16 {
        opacity: .2;
      }

      .st17 {
        opacity: .1;
      }

      .st18 {
        opacity: 0;
      }

      .st19 {
        opacity: 0;
      }

      .st20 {
        fill: #c39969;
      }

      .st21 {
        display: none;
      }
    </style>
  </defs>
  <g class="st21">
    <rect class="st2" x="60" y="110.8" width="80" height="29.3"/>
    <rect class="st20" x="60" y="104.2" width="80" height="7.7"/>
  </g>
  <g class="st7">
    <g class="st11">
      <path class="st1" d="M258.7,90.8h32.1v-28.5h-32.1v28.5Z"/>
    </g>
    <g class="st4">
      <path class="st1" d="M215,90.8h32.1v-28.5h-32.1v28.5Z"/>
    </g>
    <g class="st5">
      <path class="st1" d="M171.4,90.8h32.1v-28.5h-32.1v28.5Z"/>
    </g>
    <g class="st6">
      <path class="st1" d="M127.8,90.8h32.1v-28.5h-32.1v28.5Z"/>
    </g>
    <g class="st18">
      <path class="st1" d="M84.1,90.8h32.1v-28.5h-32.1v28.5Z"/>
    </g>
    <path class="st0" d="M40.5,90.8h32.1v-28.5h-32.1v28.5Z"/>
    <g class="st15">
      <path class="st1" d="M-3.1,90.8H29v-28.5H-3.1v28.5Z"/>
    </g>
    <g class="st10">
      <path class="st1" d="M-46.7,90.8H-14.7v-28.5h-32.1v28.5Z"/>
    </g>
    <g class="st13">
      <path class="st1" d="M258.7,126.8h32.1v-28.5h-32.1v28.5Z"/>
    </g>
    <path class="st0" d="M215,126.8h32.1v-28.5h-32.1v28.5Z"/>
    <g class="st9">
      <path class="st1" d="M171.4,126.8h32.1v-28.5h-32.1v28.5Z"/>
    </g>
    <g class="st3">
      <path class="st1" d="M84.1,126.8h32.1v-28.5h-32.1v28.5Z"/>
    </g>
    <g class="st8">
      <path class="st1" d="M-3.1,126.8H29v-28.5H-3.1v28.5Z"/>
    </g>
    <g class="st17">
      <path class="st1" d="M-46.7,126.8H-14.7v-28.5h-32.1v28.5Z"/>
    </g>
    <g class="st13">
      <path class="st1" d="M-90.4,90.8h32.1v-28.5h-32.1v28.5Z"/>
    </g>
    <g class="st12">
      <path class="st1" d="M84.1,162.8h32.1v-28.5h-32.1v28.5Z"/>
    </g>
    <g class="st19">
      <path class="st1" d="M-46.7,162.8H-14.7v-28.5h-32.1v28.5Z"/>
    </g>
    <g class="st14">
      <path class="st1" d="M-90.4,126.8h32.1v-28.5h-32.1v28.5Z"/>
    </g>
    <g class="st16">
      <path class="st1" d="M-90.4,162.9h32.1v-28.5h-32.1v28.5Z"/>
    </g>
  </g>
</svg>