<svg width="1094" height="73" viewBox="0 0 1094 73" fill="none" xmlns="http://www.w3.org/2000/svg">
<g opacity="0.6">
<g opacity="0.19">
<path d="M19.1796 57.6173H0.243652V72.4975H19.1796V57.6173Z" fill="#2959D6"/>
</g>
<g opacity="0.43">
<path d="M44.9194 57.6173H25.9834V72.4975H44.9194V57.6173Z" fill="#2959D6"/>
</g>
<g opacity="0.39">
<path d="M70.6645 57.6173H51.7285V72.4975H70.6645V57.6173Z" fill="#2959D6"/>
</g>
<g opacity="0.65">
<path d="M96.4086 57.6173H77.4727V72.4975H96.4086V57.6173Z" fill="#2959D6"/>
</g>
<g opacity="0.08">
<path d="M122.152 57.6173H103.216V72.4975H122.152V57.6173Z" fill="#2959D6"/>
</g>
<path opacity="0.9" d="M147.894 57.6173H128.958V72.4975H147.894V57.6173Z" fill="#2959D6"/>
<g opacity="0.09">
<path d="M173.637 57.6173H154.701V72.4975H173.637V57.6173Z" fill="#2959D6"/>
</g>
<g opacity="0.21">
<path d="M199.382 57.6173H180.446V72.4975H199.382V57.6173Z" fill="#2959D6"/>
</g>
<g opacity="0.32">
<path d="M19.1796 38.7833H0.243652V53.6635H19.1796V38.7833Z" fill="#2959D6"/>
</g>
<path opacity="0.9" d="M44.9203 38.7815H25.9844V53.6617H44.9203V38.7815Z" fill="#2959D6"/>
<g opacity="0.51">
<path d="M70.6645 38.7833H51.7285V53.6635H70.6645V38.7833Z" fill="#2959D6"/>
</g>
<g opacity="0.74">
<path d="M122.153 38.7833H103.217V53.6635H122.153V38.7833Z" fill="#2959D6"/>
</g>
<g opacity="0.53">
<path d="M173.637 38.7833H154.701V53.6635H173.637V38.7833Z" fill="#2959D6"/>
</g>
<g opacity="0.13">
<path d="M199.382 38.7833H180.446V53.6635H199.382V38.7833Z" fill="#2959D6"/>
</g>
<g opacity="0.32">
<path d="M225.123 57.5902H206.187V72.4704H225.123V57.5902Z" fill="#2959D6"/>
</g>
<g opacity="0.31">
<path d="M122.153 19.9495H103.217V34.8297H122.153V19.9495Z" fill="#2959D6"/>
</g>
<g opacity="0.04">
<path d="M199.382 19.9495H180.446V34.8297H199.382V19.9495Z" fill="#2959D6"/>
</g>
<g opacity="0.11">
<path d="M225.122 38.7561H206.186V53.6363H225.122V38.7561Z" fill="#2959D6"/>
</g>
<g opacity="0.16">
<path d="M225.123 19.9241H206.187V34.8043H225.123V19.9241Z" fill="#2959D6"/>
</g>
</g>
<g opacity="0.6">
<g opacity="0.22">
<path d="M460.295 60.701H440.061V76.6012H460.295V60.701Z" fill="#2959D6"/>
</g>
<g opacity="0.49">
<path d="M515.306 60.701H495.072V76.6012H515.306V60.701Z" fill="#2959D6"/>
</g>
<g opacity="0.9">
<path d="M542.812 60.7012H522.578V76.6014H542.812V60.7012Z" fill="#2959D6"/>
</g>
<g opacity="0.36">
<path d="M570.317 60.701H550.083V76.6012H570.317V60.701Z" fill="#2959D6"/>
</g>
<g opacity="0.44">
<path d="M597.82 60.701H577.586V76.6012H597.82V60.701Z" fill="#2959D6"/>
</g>
<g opacity="0.9">
<path d="M625.325 60.701H605.091V76.6012H625.325V60.701Z" fill="#2959D6"/>
</g>
<g opacity="0.99">
<path d="M460.295 40.5742H440.061V56.4744H460.295V40.5742Z" fill="#2959D6"/>
</g>
<g opacity="0.5">
<path d="M487.8 40.5742H467.566V56.4744H487.8V40.5742Z" fill="#2959D6"/>
</g>
<g opacity="0.77">
<path d="M515.306 40.5742H495.072V56.4744H515.306V40.5742Z" fill="#2959D6"/>
</g>
<g opacity="0.58">
<path d="M542.812 40.5742H522.578V56.4744H542.812V40.5742Z" fill="#2959D6"/>
</g>
<g opacity="0.46">
<path d="M570.317 40.5742H550.083V56.4744H570.317V40.5742Z" fill="#2959D6"/>
</g>
<g opacity="0.53">
<path d="M515.306 20.4551H495.072V36.3553H515.306V20.4551Z" fill="#2959D6"/>
</g>
<g opacity="0.27">
<path d="M542.812 20.4551H522.578V36.3553H542.812V20.4551Z" fill="#2959D6"/>
</g>
</g>
<g style="mix-blend-mode:multiply" opacity="0.6">
<g opacity="0.9">
<path d="M229.042 58.5254H208.168V74.9286H229.042V58.5254Z" fill="#2959D6"/>
</g>
<g opacity="0.58">
<path d="M257.418 58.5254H236.543V74.9286H257.418V58.5254Z" fill="#2959D6"/>
</g>
<g opacity="0.52">
<path d="M285.793 58.5254H264.918V74.9286H285.793V58.5254Z" fill="#2959D6"/>
</g>
<g opacity="0.03">
<path d="M314.172 58.5254H293.298V74.9286H314.172V58.5254Z" fill="#2959D6"/>
</g>
<g opacity="0.9">
<path d="M342.548 58.5254H321.674V74.9286H342.548V58.5254Z" fill="#2959D6"/>
</g>
<g opacity="0.9">
<path d="M370.924 58.5254H350.05V74.9286H370.924V58.5254Z" fill="#2959D6"/>
</g>
<g opacity="0.36">
<path d="M399.298 58.5254H378.424V74.9286H399.298V58.5254Z" fill="#2959D6"/>
</g>
<g opacity="0.12">
<path d="M427.675 58.5254H406.801V74.9286H427.675V58.5254Z" fill="#2959D6"/>
</g>
<g opacity="0.53">
<path d="M229.042 37.7598H208.168V54.1631H229.042V37.7598Z" fill="#2959D6"/>
</g>
<g opacity="0.53">
<path d="M257.418 37.7598H236.543V54.1631H257.418V37.7598Z" fill="#2959D6"/>
</g>
<g opacity="0.82">
<path d="M285.794 37.7598H264.92V54.1631H285.794V37.7598Z" fill="#2959D6"/>
</g>
<g opacity="0.42">
<path d="M314.172 37.7598H293.298V54.1631H314.172V37.7598Z" fill="#2959D6"/>
</g>
<g opacity="0.41">
<path d="M342.547 37.7598H321.673V54.1631H342.547V37.7598Z" fill="#2959D6"/>
</g>
<g opacity="0.56">
<path d="M370.924 37.7598H350.05V54.163H370.924V37.7598Z" fill="#2959D6"/>
</g>
<g opacity="0.9">
<path d="M427.676 37.7598H406.802V54.1631H427.676V37.7598Z" fill="#2959D6"/>
</g>
<g opacity="0.9">
<path d="M285.793 17H264.919V33.4032H285.793V17Z" fill="#2959D6"/>
</g>
</g>
<g opacity="0.6">
<g opacity="0.9">
<path d="M652.64 60.6173H633.704V75.4975H652.64V60.6173Z" fill="#2959D6"/>
</g>
<g opacity="0.19">
<path d="M678.385 60.6173H659.449V75.4975H678.385V60.6173Z" fill="#2959D6"/>
</g>
<g opacity="0.43">
<path d="M704.124 60.6173H685.188V75.4975H704.124V60.6173Z" fill="#2959D6"/>
</g>
<g opacity="0.39">
<path d="M729.87 60.6173H710.934V75.4975H729.87V60.6173Z" fill="#2959D6"/>
</g>
<g opacity="0.65">
<path d="M755.614 60.6173H736.678V75.4975H755.614V60.6173Z" fill="#2959D6"/>
</g>
<g opacity="0.08">
<path d="M781.357 60.6173H762.421V75.4975H781.357V60.6173Z" fill="#2959D6"/>
</g>
<path opacity="0.9" d="M807.099 60.6173H788.163V75.4975H807.099V60.6173Z" fill="#2959D6"/>
<g opacity="0.09">
<path d="M832.842 60.6173H813.906V75.4975H832.842V60.6173Z" fill="#2959D6"/>
</g>
<g opacity="0.21">
<path d="M858.587 60.6173H839.651V75.4975H858.587V60.6173Z" fill="#2959D6"/>
</g>
<g opacity="0.18">
<path d="M652.64 41.7832H633.704V56.6634H652.64V41.7832Z" fill="#2959D6"/>
</g>
<g opacity="0.32">
<path d="M678.385 41.7832H659.449V56.6634H678.385V41.7832Z" fill="#2959D6"/>
</g>
<path opacity="0.9" d="M704.125 41.7815H685.189V56.6617H704.125V41.7815Z" fill="#2959D6"/>
<g opacity="0.51">
<path d="M729.87 41.7832H710.934V56.6634H729.87V41.7832Z" fill="#2959D6"/>
</g>
<g opacity="0.74">
<path d="M781.358 41.7832H762.422V56.6634H781.358V41.7832Z" fill="#2959D6"/>
</g>
<g opacity="0.53">
<path d="M832.842 41.7832H813.906V56.6634H832.842V41.7832Z" fill="#2959D6"/>
</g>
<g opacity="0.13">
<path d="M858.587 41.7832H839.651V56.6634H858.587V41.7832Z" fill="#2959D6"/>
</g>
<g opacity="0.32">
<path d="M884.328 60.5902H865.392V75.4704H884.328V60.5902Z" fill="#2959D6"/>
</g>
<g opacity="0.43">
<path d="M652.64 22.9495H633.704V37.8297H652.64V22.9495Z" fill="#2959D6"/>
</g>
<g opacity="0.31">
<path d="M781.358 22.9495H762.422V37.8297H781.358V22.9495Z" fill="#2959D6"/>
</g>
<g opacity="0.04">
<path d="M858.587 22.9495H839.651V37.8297H858.587V22.9495Z" fill="#2959D6"/>
</g>
<g opacity="0.11">
<path d="M884.327 41.7561H865.391V56.6363H884.327V41.7561Z" fill="#2959D6"/>
</g>
<g opacity="0.16">
<path d="M884.329 22.9241H865.393V37.8043H884.329V22.9241Z" fill="#2959D6"/>
</g>
</g>
<g style="mix-blend-mode:multiply" opacity="0.6">
<g opacity="0.9">
<path d="M888.247 61.5254H867.373V77.9286H888.247V61.5254Z" fill="#2959D6"/>
</g>
<g opacity="0.58">
<path d="M916.623 61.5254H895.749V77.9286H916.623V61.5254Z" fill="#2959D6"/>
</g>
<g opacity="0.52">
<path d="M944.998 61.5254H924.124V77.9286H944.998V61.5254Z" fill="#2959D6"/>
</g>
<g opacity="0.03">
<path d="M973.377 61.5254H952.503V77.9286H973.377V61.5254Z" fill="#2959D6"/>
</g>
<g opacity="0.9">
<path d="M1001.75 61.5254H980.879V77.9286H1001.75V61.5254Z" fill="#2959D6"/>
</g>
<g opacity="0.9">
<path d="M1030.13 61.5254H1009.25V77.9286H1030.13V61.5254Z" fill="#2959D6"/>
</g>
<g opacity="0.36">
<path d="M1058.5 61.5254H1037.63V77.9286H1058.5V61.5254Z" fill="#2959D6"/>
</g>
<g opacity="0.12">
<path d="M1086.88 61.5254H1066.01V77.9286H1086.88V61.5254Z" fill="#2959D6"/>
</g>
<g opacity="0.53">
<path d="M888.247 40.7599H867.373V57.1631H888.247V40.7599Z" fill="#2959D6"/>
</g>
<g opacity="0.53">
<path d="M916.623 40.7599H895.749V57.1631H916.623V40.7599Z" fill="#2959D6"/>
</g>
<g opacity="0.82">
<path d="M944.999 40.7599H924.125V57.1631H944.999V40.7599Z" fill="#2959D6"/>
</g>
<g opacity="0.42">
<path d="M973.378 40.7599H952.503V57.1631H973.378V40.7599Z" fill="#2959D6"/>
</g>
<g opacity="0.41">
<path d="M1001.75 40.7598H980.878V57.163H1001.75V40.7598Z" fill="#2959D6"/>
</g>
<g opacity="0.56">
<path d="M1030.13 40.7598H1009.25V57.163H1030.13V40.7598Z" fill="#2959D6"/>
</g>
<g opacity="0.9">
<path d="M1086.88 40.7599H1066.01V57.1631H1086.88V40.7599Z" fill="#2959D6"/>
</g>
<g opacity="0.9">
<path d="M944.999 20H924.125V36.4032H944.999V20Z" fill="#2959D6"/>
</g>
</g>
</svg>
