<?xml version="1.0" encoding="UTF-8"?>
<svg id="Info2" xmlns="http://www.w3.org/2000/svg" xmlns:xlink="http://www.w3.org/1999/xlink" version="1.1" viewBox="0 0 1280 720">
  <!-- Generator: Adobe Illustrator 29.1.0, SVG Export Plug-In . SVG Version: 2.1.0 Build 142)  -->
  <defs>
    <style>
      .st0 {
        fill: url(#linear-gradient2);
      }

      .st1 {
        fill: url(#linear-gradient1);
      }

      .st2 {
        fill: url(#linear-gradient9);
      }

      .st3 {
        fill: url(#linear-gradient3);
      }

      .st4 {
        fill: url(#linear-gradient6);
      }

      .st5 {
        fill: url(#linear-gradient8);
      }

      .st6 {
        fill: url(#linear-gradient7);
      }

      .st7 {
        fill: url(#linear-gradient5);
      }

      .st8 {
        fill: url(#linear-gradient4);
      }

      .st9 {
        stroke: #bababa;
      }

      .st9, .st10 {
        fill: none;
      }

      .st9, .st10, .st11, .st12 {
        stroke-miterlimit: 10;
      }

      .st13 {
        fill: url(#linear-gradient);
      }

      .st10 {
        stroke-width: 3px;
      }

      .st10, .st11, .st12 {
        stroke: #273a7e;
      }

      .st14 {
        fill: url(#Degradado_sin_nombre_1565);
      }

      .st15 {
        fill: url(#Degradado_sin_nombre_1567);
      }

      .st16 {
        fill: url(#Degradado_sin_nombre_1564);
      }

      .st17 {
        fill: url(#Degradado_sin_nombre_1563);
      }

      .st18 {
        fill: url(#Degradado_sin_nombre_1561);
      }

      .st19 {
        fill: url(#Degradado_sin_nombre_1566);
      }

      .st20 {
        fill: url(#Degradado_sin_nombre_1562);
      }

      .st21 {
        fill: #28a39c;
      }

      .st22 {
        fill: #ebf6f7;
      }

      .st23 {
        fill: url(#Degradado_sin_nombre_156);
      }

      .st24 {
        fill: url(#Degradado_sin_nombre_26);
      }

      .st25 {
        fill: #202727;
        opacity: .4;
      }

      .st11 {
        stroke-width: 1.2px;
      }

      .st11, .st12, .st26 {
        fill: #273a7e;
      }
    </style>
    <linearGradient id="linear-gradient" x1="764.8" y1="652.7" x2="888.3" y2="652.7" gradientUnits="userSpaceOnUse">
      <stop offset="0" stop-color="#292d95"/>
      <stop offset=".4" stop-color="#00aff1"/>
      <stop offset="1" stop-color="#253a9e"/>
    </linearGradient>
    <linearGradient id="linear-gradient1" x1="584.5" y1="145.7" x2="584.5" y2="456.4" gradientTransform="translate(308.4 1159.8) rotate(-90)" gradientUnits="userSpaceOnUse">
      <stop offset="0" stop-color="#00aff1"/>
      <stop offset="1" stop-color="#292d95"/>
    </linearGradient>
    <linearGradient id="Degradado_sin_nombre_26" data-name="Degradado sin nombre 26" x1="331.5" y1="652.7" x2="454.5" y2="652.7" gradientUnits="userSpaceOnUse">
      <stop offset="0" stop-color="#292d95"/>
      <stop offset=".1" stop-color="#2143a4"/>
      <stop offset=".4" stop-color="#1371c5"/>
      <stop offset=".7" stop-color="#0893dd"/>
      <stop offset=".9" stop-color="#02a7eb"/>
      <stop offset="1" stop-color="#00aff1"/>
    </linearGradient>
    <linearGradient id="Degradado_sin_nombre_156" data-name="Degradado sin nombre 156" x1="333.9" y1="689.4" x2="378.7" y2="689.4" gradientUnits="userSpaceOnUse">
      <stop offset="0" stop-color="#f0f1f1"/>
      <stop offset="1" stop-color="#d0d3d4"/>
    </linearGradient>
    <linearGradient id="Degradado_sin_nombre_1561" data-name="Degradado sin nombre 156" x1="387.6" y1="624.8" x2="432.5" y2="624.8" xlink:href="#Degradado_sin_nombre_156"/>
    <linearGradient id="Degradado_sin_nombre_1562" data-name="Degradado sin nombre 156" x1="466.2" y1="570.6" x2="511" y2="570.6" xlink:href="#Degradado_sin_nombre_156"/>
    <linearGradient id="Degradado_sin_nombre_1563" data-name="Degradado sin nombre 156" x1="556.3" y1="548.3" x2="601.2" y2="548.3" xlink:href="#Degradado_sin_nombre_156"/>
    <linearGradient id="Degradado_sin_nombre_1564" data-name="Degradado sin nombre 156" x1="638.6" y1="552.7" x2="683.5" y2="552.7" xlink:href="#Degradado_sin_nombre_156"/>
    <linearGradient id="Degradado_sin_nombre_1565" data-name="Degradado sin nombre 156" x1="725.8" y1="578.9" x2="770.7" y2="578.9" xlink:href="#Degradado_sin_nombre_156"/>
    <linearGradient id="Degradado_sin_nombre_1566" data-name="Degradado sin nombre 156" x1="799.3" y1="629.2" x2="844.1" y2="629.2" xlink:href="#Degradado_sin_nombre_156"/>
    <linearGradient id="Degradado_sin_nombre_1567" data-name="Degradado sin nombre 156" x1="845.1" x2="890" xlink:href="#Degradado_sin_nombre_156"/>
    <linearGradient id="linear-gradient2" x1="81.6" y1="621.9" x2="214.7" y2="621.9" gradientTransform="matrix(1,0,0,1,0,0)" xlink:href="#linear-gradient1"/>
    <linearGradient id="linear-gradient3" x1="165.1" y1="459.3" x2="298.1" y2="459.3" gradientTransform="matrix(1,0,0,1,0,0)" xlink:href="#linear-gradient1"/>
    <linearGradient id="linear-gradient4" x1="301.9" y1="335.3" x2="435" y2="335.3" gradientTransform="matrix(1,0,0,1,0,0)" xlink:href="#linear-gradient1"/>
    <linearGradient id="linear-gradient5" x1="494.2" y1="246.8" x2="627.3" y2="246.8" gradientTransform="matrix(1,0,0,1,0,0)" xlink:href="#linear-gradient1"/>
    <linearGradient id="linear-gradient6" x1="683.3" y1="246.8" x2="816.3" y2="246.8" gradientTransform="matrix(1,0,0,1,0,0)" xlink:href="#linear-gradient1"/>
    <linearGradient id="linear-gradient7" x1="844.1" y1="334.5" x2="977.2" y2="334.5" gradientTransform="matrix(1,0,0,1,0,0)" xlink:href="#linear-gradient1"/>
    <linearGradient id="linear-gradient8" x1="990.1" y1="459.3" x2="1123.2" y2="459.3" gradientTransform="matrix(1,0,0,1,0,0)" xlink:href="#linear-gradient1"/>
    <linearGradient id="linear-gradient9" x1="1042.3" y1="621.9" x2="1175.4" y2="621.9" gradientTransform="matrix(1,0,0,1,0,0)" xlink:href="#linear-gradient1"/>
  </defs>
  <g id="arc">
    <path class="st13" d="M868.9,720h19.4c-27.9-56-70.9-102.8-123.4-134.7v20.6c43.3,28.3,79.2,67.6,104,114Z"/>
    <path class="st1" d="M454.5,585.7c-.1,0-.2.1-.4.2v19.1c.1,0,.2-.1.4-.2,44.7-27.9,97.5-44,154.1-44h1.1c1.9,0,3.7,0,5.6,0,2.9,0,5.7.2,8.6.3,2.7.1,5.3.3,8,.5,1.4.1,2.9.2,4.3.4,1.2.1,2.4.2,3.6.4h0c1.2.1,2.3.3,3.5.4.3,0,.6,0,.9,0,1.2.1,2.4.3,3.6.5,1.4.2,2.7.4,4.1.6,1.6.2,3.3.5,4.9.8,5.1.8,10.1,1.8,15,2.9,3.3.7,6.6,1.5,9.9,2.4,3.3.9,6.6,1.8,9.9,2.8.9.3,1.8.5,2.7.8.4.1.7.2,1.1.3,2.1.6,4.1,1.3,6.1,2,1.6.5,3.2,1.1,4.8,1.7,1.2.4,2.3.8,3.5,1.3,1.4.5,2.8,1,4.2,1.6.1,0,.3,0,.4.2,2,.8,4,1.6,6,2.4,1.6.6,3.1,1.3,4.7,2,1.5.7,3.1,1.4,4.6,2.1,3,1.3,5.9,2.7,8.8,4.2,1.6.8,3.2,1.6,4.8,2.5,1.5.8,3,1.6,4.4,2.4,1.4.7,2.7,1.5,4.1,2.2,1.5.8,2.9,1.6,4.3,2.5.1,0,.2.1.3.2,2.7,1.6,5.5,3.3,8.2,5,.1,0,.2.1.4.2v-19.2c-.1,0-.2-.1-.4-.2-1.3-.8-2.6-1.5-3.9-2.3-1.1-.6-2.3-1.3-3.4-1.9-.6-.3-1.2-.7-1.8-1-1.1-.6-2.3-1.2-3.5-1.8-10.3-5.4-20.8-10.3-31.7-14.5-1.4-.5-2.7-1-4.1-1.6-1.8-.7-3.6-1.3-5.3-1.9-1.1-.4-2.2-.8-3.3-1.1-5.3-1.8-10.7-3.5-16.2-5-4.8-1.4-9.7-2.6-14.6-3.7-1.6-.4-3.3-.7-5-1.1-1.7-.4-3.5-.7-5.2-1-4.5-.9-9-1.6-13.5-2.2-1.3-.2-2.5-.4-3.8-.5-2.3-.3-4.6-.6-6.8-.8-1.8-.2-3.6-.4-5.4-.5-1,0-2-.2-3-.3-1,0-2.1-.2-3.2-.2-1.7-.1-3.5-.2-5.2-.3-5.2-.3-10.5-.4-15.8-.5h-1.1c-56.1,0-108.7,15-154.1,41.3Z"/>
    <path class="st24" d="M355.5,720c23.9-47,58-86.9,99-115.3v-19.4c-49.5,31.9-90.3,78.6-117.3,134.7h18.3Z"/>
  </g>
  <g id="lines">
    <line id="line1" class="st9" x1="343.8" y1="688.2" x2="159.1" y2="622.6"/>
    <line id="line2" class="st9" x1="412.7" y1="628.5" x2="233" y2="463.4"/>
    <line id="line3" class="st9" x1="489.3" y1="566.2" x2="375.9" y2="359.6"/>
    <line id="line4" class="st9" x1="578.7" y1="538" x2="555.3" y2="271.1"/>
    <line id="line5" class="st9" x1="663.7" y1="546" x2="751.2" y2="244"/>
    <line id="line6" class="st9" x1="751.9" y1="578.9" x2="908.6" y2="335.2"/>
    <line id="line7" class="st9" x1="1058.1" y1="463.4" x2="821.7" y2="629.2"/>
    <line id="line8" class="st9" x1="1078.4" y1="626.2" x2="867.5" y2="689.4"/>
  </g>
  <g id="balls">
    <circle id="ball1" class="st23" cx="356.3" cy="689.4" r="22.4"/>
    <circle id="ball2" class="st18" cx="410" cy="624.8" r="22.4"/>
    <circle id="ball3" class="st20" cx="488.6" cy="570.6" r="22.4"/>
    <circle id="ball4" class="st17" cx="578.7" cy="548.3" r="22.4"/>
    <circle id="ball5" class="st16" cx="661.1" cy="552.7" r="22.4"/>
    <circle id="ball6" class="st14" cx="748.2" cy="578.9" r="22.4"/>
    <circle id="ball7" class="st19" cx="821.7" cy="629.2" r="22.4"/>
    <circle id="ball8" class="st15" cx="867.5" cy="689.4" r="22.4"/>
  </g>
  <g id="title">
    <g>
      <path class="st26" d="M242.9,58.3v-24h6.3v24h-6.3Z"/>
      <path class="st26" d="M253.1,58.3v-16.7h5.9v2.9h-.4c.5-1.1,1.3-1.9,2.3-2.5,1-.6,2.2-.9,3.5-.9s2.4.3,3.3.8c.9.5,1.5,1.3,1.9,2.4.4,1.1.6,2.4.6,4v9.9h-6.1v-9.7c0-.7,0-1.2-.2-1.6-.2-.4-.4-.7-.7-.9-.3-.2-.7-.3-1.2-.3s-1.1.1-1.6.4-.8.6-1,1.1c-.2.5-.4,1-.4,1.7v9.3h-6.1Z"/>
      <path class="st26" d="M273.5,38.7v-5.4h6.4v5.4h-6.4ZM273.7,58.3v-16.7h6.1v16.7h-6.1Z"/>
      <path class="st26" d="M291.8,58.7c-1.9,0-3.5-.4-4.9-1.1s-2.5-1.7-3.2-3.1c-.8-1.3-1.2-2.9-1.2-4.7s.4-3.4,1.2-4.7c.8-1.3,1.9-2.3,3.2-3,1.4-.7,3-1.1,4.9-1.1s2.2.2,3.3.5c1.1.3,2,.7,2.7,1.3l-1.6,4.1c-.5-.4-1.1-.7-1.8-1-.7-.2-1.4-.4-2-.4-1.2,0-2.1.4-2.8,1.1-.7.7-1,1.8-1,3.1s.3,2.3,1,3.1c.7.7,1.6,1.1,2.8,1.1s1.3-.1,2-.4c.7-.2,1.3-.6,1.8-1l1.6,4.2c-.7.5-1.6.9-2.7,1.3-1.1.3-2.2.5-3.3.5Z"/>
      <path class="st26" d="M299.5,38.7v-5.4h6.4v5.4h-6.4ZM299.7,58.3v-16.7h6.1v16.7h-6.1Z"/>
      <path class="st26" d="M315.1,58.7c-1.3,0-2.4-.2-3.4-.7-1-.5-1.8-1.1-2.3-2-.6-.8-.8-1.8-.8-2.8s.3-2.2,1-2.9c.6-.7,1.7-1.2,3.1-1.5,1.4-.3,3.3-.5,5.6-.5h1.9v2.8h-1.9c-.7,0-1.3,0-1.7.1-.5,0-.9.2-1.2.3-.3.1-.5.3-.7.5-.1.2-.2.5-.2.8,0,.5.2,1,.5,1.3.4.3.9.5,1.6.5s1-.1,1.5-.4.8-.6,1.1-1,.4-1,.4-1.5v-3.9c0-.8-.2-1.4-.6-1.8-.4-.3-1.1-.5-2.1-.5s-1.8.1-2.9.4c-1,.3-2.1.7-3.1,1.3l-1.6-4c.6-.4,1.3-.8,2.2-1.1.9-.3,1.8-.6,2.8-.7,1-.2,1.9-.3,2.7-.3,1.9,0,3.4.3,4.6.8,1.2.5,2.1,1.4,2.7,2.5.6,1.1.9,2.5.9,4.2v9.6h-5.6v-3.2h.2c-.1.7-.4,1.3-.8,1.9-.4.5-.9,1-1.6,1.3-.7.3-1.4.5-2.2.5Z"/>
      <path class="st26" d="M337.3,58.7c-2.5,0-4.4-.6-5.6-1.8s-1.8-3-1.8-5.4v-5.5h-3.1v-4.5h3.1v-4.9h6.1v4.9h4.8v4.5h-4.8v5.3c0,.8.2,1.5.6,1.9.4.4,1,.6,1.9.6s.6,0,.9-.1c.3,0,.7-.2,1.1-.3l.8,4.4c-.5.3-1.1.5-1.8.6-.7.2-1.4.2-2.1.2Z"/>
      <path class="st26" d="M342.9,38.7v-5.4h6.4v5.4h-6.4ZM343,58.3v-16.7h6.1v16.7h-6.1Z"/>
      <path class="st26" d="M357.5,58.3l-7.3-16.7h6.4l4.2,10.9h-1.2l4.5-10.9h5.9l-7.5,16.7h-5Z"/>
      <path class="st26" d="M376.8,58.7c-1.3,0-2.4-.2-3.4-.7-1-.5-1.8-1.1-2.3-2-.6-.8-.8-1.8-.8-2.8s.3-2.2,1-2.9c.6-.7,1.7-1.2,3.1-1.5,1.4-.3,3.3-.5,5.6-.5h1.9v2.8h-1.9c-.7,0-1.3,0-1.7.1-.5,0-.9.2-1.2.3-.3.1-.5.3-.7.5-.1.2-.2.5-.2.8,0,.5.2,1,.5,1.3.4.3.9.5,1.6.5s1-.1,1.5-.4.8-.6,1.1-1,.4-1,.4-1.5v-3.9c0-.8-.2-1.4-.6-1.8-.4-.3-1.1-.5-2.1-.5s-1.8.1-2.9.4c-1,.3-2.1.7-3.1,1.3l-1.6-4c.6-.4,1.3-.8,2.2-1.1.9-.3,1.8-.6,2.8-.7,1-.2,1.9-.3,2.7-.3,1.9,0,3.4.3,4.6.8,1.2.5,2.1,1.4,2.7,2.5.6,1.1.9,2.5.9,4.2v9.6h-5.6v-3.2h.2c-.1.7-.4,1.3-.8,1.9-.4.5-.9,1-1.6,1.3-.7.3-1.4.5-2.2.5Z"/>
      <path class="st26" d="M397,58.7c-1,0-2,0-3-.2-.9-.2-1.8-.4-2.6-.6-.8-.3-1.5-.6-2.1-1l1.4-3.9c.6.3,1.2.6,1.9.8s1.4.4,2.2.6c.7.1,1.5.2,2.2.2s1.4-.1,1.8-.4c.4-.2.5-.5.5-.9s-.1-.6-.4-.8c-.2-.2-.6-.3-1-.4l-3.8-.6c-1.4-.2-2.5-.8-3.3-1.6-.8-.8-1.2-1.8-1.2-3.1s.3-2.2,1-3c.7-.9,1.6-1.5,2.8-2,1.2-.5,2.5-.7,4-.7s1.6,0,2.4.2c.8.1,1.6.3,2.3.6.7.2,1.4.6,2,1.1l-1.5,3.8c-.4-.3-.9-.5-1.5-.8-.6-.2-1.2-.4-1.8-.6-.6-.1-1.2-.2-1.7-.2-1,0-1.6.1-2,.4-.4.2-.6.6-.6,1s.1.5.3.7c.2.2.5.3.9.4l3.8.6c1.5.2,2.6.7,3.4,1.5.8.7,1.2,1.8,1.2,3.1s-.3,2.3-1,3.1c-.6.9-1.5,1.5-2.7,2-1.1.5-2.5.7-4,.7Z"/>
      <path class="st26" d="M416.7,38.7v-5.4h6.4v5.4h-6.4ZM416.9,58.3v-16.7h6.1v16.7h-6.1Z"/>
      <path class="st26" d="M426.5,58.3v-16.7h5.9v2.9h-.4c.3-.7.7-1.3,1.3-1.8.5-.5,1.1-.9,1.9-1.2s1.5-.4,2.4-.4c1.2,0,2.3.3,3.1.9s1.5,1.5,1.9,2.7h-.5c.5-1.1,1.3-2,2.3-2.6s2.2-1,3.5-1,2.4.3,3.2.8c.8.5,1.5,1.3,1.9,2.4.4,1.1.6,2.4.6,4.1v9.9h-6.1v-9.7c0-1-.1-1.7-.4-2.1-.3-.4-.8-.6-1.5-.6s-1,.1-1.4.4c-.4.3-.7.6-.9,1.2-.2.5-.3,1.1-.3,1.9v9h-6.1v-9.7c0-1-.1-1.7-.4-2.1-.3-.4-.8-.6-1.5-.6s-1,.1-1.4.4c-.4.3-.7.6-.9,1.2-.2.5-.3,1.1-.3,1.9v9h-6.1Z"/>
      <path class="st26" d="M457.1,64.4v-22.8h5.9v3h-.3c.3-1,1-1.8,2-2.5,1-.6,2.2-1,3.4-1s2.7.4,3.8,1.1c1.1.7,2,1.7,2.6,3,.6,1.3.9,2.9.9,4.7s-.3,3.3-.9,4.7c-.6,1.3-1.5,2.3-2.6,3-1.1.7-2.4,1.1-3.8,1.1s-2.4-.3-3.4-.9c-1-.6-1.7-1.4-2-2.3h.4v8.9h-6.1ZM466.2,54.2c.9,0,1.7-.3,2.2-1,.6-.7.9-1.8.9-3.2s-.3-2.6-.9-3.3c-.6-.7-1.3-1-2.2-1s-1.7.3-2.3,1c-.6.7-.9,1.8-.9,3.3s.3,2.6.9,3.2c.6.7,1.3,1,2.3,1Z"/>
      <path class="st26" d="M486.7,58.7c-1.9,0-3.5-.4-4.9-1.1-1.4-.7-2.5-1.7-3.2-3-.8-1.3-1.2-2.9-1.2-4.7s.4-3.4,1.2-4.7c.8-1.3,1.8-2.3,3.2-3,1.4-.7,3-1.1,4.9-1.1s3.5.4,4.9,1.1c1.4.7,2.4,1.7,3.2,3,.8,1.3,1.1,2.9,1.1,4.7s-.4,3.3-1.1,4.7c-.8,1.3-1.8,2.3-3.2,3s-3,1.1-4.9,1.1ZM486.7,54.2c.9,0,1.7-.3,2.2-1,.6-.7.9-1.8.9-3.3s-.3-2.6-.9-3.2c-.6-.7-1.3-1-2.2-1s-1.7.3-2.3,1c-.6.7-.9,1.8-.9,3.2s.3,2.6.9,3.3c.6.7,1.3,1,2.3,1Z"/>
      <path class="st26" d="M498.7,58.3v-16.7h5.9v4.1h-.3c.2-1.4.8-2.4,1.7-3.2.9-.8,2.1-1.2,3.7-1.3h1.6c0-.1.3,4.9.3,4.9l-3.3.3c-1.2.1-2.1.4-2.6,1-.6.6-.8,1.4-.8,2.5v8.3h-6.1Z"/>
      <path class="st26" d="M522.2,58.7c-2.5,0-4.4-.6-5.6-1.8s-1.8-3-1.8-5.4v-5.5h-3.1v-4.5h3.1v-4.9h6.1v4.9h4.8v4.5h-4.8v5.3c0,.8.2,1.5.6,1.9.4.4,1,.6,1.9.6s.6,0,.9-.1c.3,0,.7-.2,1.1-.3l.8,4.4c-.5.3-1.1.5-1.8.6-.7.2-1.4.2-2.1.2Z"/>
      <path class="st26" d="M533.7,58.7c-1.3,0-2.4-.2-3.4-.7-1-.5-1.8-1.1-2.3-2-.6-.8-.8-1.8-.8-2.8s.3-2.2,1-2.9c.6-.7,1.7-1.2,3.1-1.5,1.4-.3,3.3-.5,5.6-.5h1.9v2.8h-1.9c-.7,0-1.3,0-1.7.1-.5,0-.9.2-1.2.3-.3.1-.5.3-.7.5-.1.2-.2.5-.2.8,0,.5.2,1,.5,1.3.4.3.9.5,1.6.5s1-.1,1.5-.4.8-.6,1.1-1,.4-1,.4-1.5v-3.9c0-.8-.2-1.4-.6-1.8-.4-.3-1.1-.5-2.1-.5s-1.8.1-2.9.4c-1,.3-2.1.7-3.1,1.3l-1.6-4c.6-.4,1.3-.8,2.2-1.1.9-.3,1.8-.6,2.8-.7,1-.2,1.9-.3,2.7-.3,1.9,0,3.4.3,4.6.8,1.2.5,2.1,1.4,2.7,2.5.6,1.1.9,2.5.9,4.2v9.6h-5.6v-3.2h.2c-.1.7-.4,1.3-.8,1.9-.4.5-.9,1-1.6,1.3-.7.3-1.4.5-2.2.5Z"/>
      <path class="st26" d="M547.2,58.3v-16.7h5.9v2.9h-.4c.5-1.1,1.3-1.9,2.3-2.5,1-.6,2.2-.9,3.5-.9s2.4.3,3.3.8c.9.5,1.5,1.3,1.9,2.4.4,1.1.6,2.4.6,4v9.9h-6.1v-9.7c0-.7,0-1.2-.2-1.6-.2-.4-.4-.7-.7-.9-.3-.2-.7-.3-1.2-.3s-1.1.1-1.6.4-.8.6-1,1.1c-.2.5-.4,1-.4,1.7v9.3h-6.1Z"/>
      <path class="st26" d="M576.6,58.7c-2.5,0-4.4-.6-5.6-1.8s-1.8-3-1.8-5.4v-5.5h-3.1v-4.5h3.1v-4.9h6.1v4.9h4.8v4.5h-4.8v5.3c0,.8.2,1.5.6,1.9.4.4,1,.6,1.9.6s.6,0,.9-.1c.3,0,.7-.2,1.1-.3l.8,4.4c-.5.3-1.1.5-1.8.6-.7.2-1.4.2-2.1.2Z"/>
      <path class="st26" d="M591.4,58.7c-2,0-3.8-.4-5.3-1.1s-2.6-1.7-3.4-3.1c-.8-1.3-1.2-2.9-1.2-4.6s.4-3.2,1.1-4.6c.8-1.3,1.8-2.3,3.1-3.1s2.8-1.1,4.5-1.1,3.2.4,4.4,1.1c1.2.7,2.2,1.7,2.8,3,.7,1.3,1,2.8,1,4.6v1.3h-12v-2.9h7.5l-.5.4c0-1.2-.3-2.2-.8-2.8-.5-.6-1.3-.9-2.2-.9s-1.3.2-1.8.5c-.5.3-.9.8-1.2,1.4-.3.6-.4,1.4-.4,2.4v.3c0,1.1.2,2,.5,2.6.3.7.8,1.1,1.4,1.4.7.3,1.5.4,2.5.4s1.8-.1,2.7-.4c.9-.2,1.8-.6,2.5-1.2l1.5,4c-.9.6-1.9,1.1-3.1,1.4-1.2.4-2.5.6-3.7.6Z"/>
      <path class="st26" d="M607.9,58.7c-1,0-2,0-3-.2-.9-.2-1.8-.4-2.6-.6-.8-.3-1.5-.6-2.1-1l1.4-3.9c.6.3,1.2.6,1.9.8s1.4.4,2.2.6c.7.1,1.5.2,2.2.2s1.4-.1,1.8-.4c.4-.2.5-.5.5-.9s-.1-.6-.4-.8c-.2-.2-.6-.3-1-.4l-3.8-.6c-1.4-.2-2.5-.8-3.3-1.6-.8-.8-1.2-1.8-1.2-3.1s.3-2.2,1-3c.7-.9,1.6-1.5,2.8-2,1.2-.5,2.5-.7,4-.7s1.6,0,2.4.2c.8.1,1.6.3,2.3.6.7.2,1.4.6,2,1.1l-1.5,3.8c-.4-.3-.9-.5-1.5-.8-.6-.2-1.2-.4-1.8-.6-.6-.1-1.2-.2-1.7-.2-1,0-1.6.1-2,.4-.4.2-.6.6-.6,1s.1.5.3.7c.2.2.5.3.9.4l3.8.6c1.5.2,2.6.7,3.4,1.5.8.7,1.2,1.8,1.2,3.1s-.3,2.3-1,3.1c-.6.9-1.5,1.5-2.7,2-1.1.5-2.5.7-4,.7Z"/>
      <path class="st26" d="M636.9,58.7c-2,0-3.8-.4-5.3-1.1s-2.6-1.7-3.4-3.1c-.8-1.3-1.2-2.9-1.2-4.6s.4-3.2,1.1-4.6c.8-1.3,1.8-2.3,3.1-3.1s2.8-1.1,4.5-1.1,3.2.4,4.4,1.1c1.2.7,2.2,1.7,2.8,3,.7,1.3,1,2.8,1,4.6v1.3h-12v-2.9h7.5l-.5.4c0-1.2-.3-2.2-.8-2.8-.5-.6-1.3-.9-2.2-.9s-1.3.2-1.8.5c-.5.3-.9.8-1.2,1.4-.3.6-.4,1.4-.4,2.4v.3c0,1.1.2,2,.5,2.6.3.7.8,1.1,1.4,1.4.7.3,1.5.4,2.5.4s1.8-.1,2.7-.4c.9-.2,1.8-.6,2.5-1.2l1.5,4c-.9.6-1.9,1.1-3.1,1.4-1.2.4-2.5.6-3.7.6Z"/>
      <path class="st26" d="M653.3,58.7c-1,0-2,0-3-.2-.9-.2-1.8-.4-2.6-.6-.8-.3-1.5-.6-2.1-1l1.4-3.9c.6.3,1.2.6,1.9.8s1.4.4,2.2.6c.7.1,1.5.2,2.2.2s1.4-.1,1.8-.4c.4-.2.5-.5.5-.9s-.1-.6-.4-.8c-.2-.2-.6-.3-1-.4l-3.8-.6c-1.4-.2-2.5-.8-3.3-1.6-.8-.8-1.2-1.8-1.2-3.1s.3-2.2,1-3c.7-.9,1.6-1.5,2.8-2,1.2-.5,2.5-.7,4-.7s1.6,0,2.4.2c.8.1,1.6.3,2.3.6.7.2,1.4.6,2,1.1l-1.5,3.8c-.4-.3-.9-.5-1.5-.8-.6-.2-1.2-.4-1.8-.6-.6-.1-1.2-.2-1.7-.2-1,0-1.6.1-2,.4-.4.2-.6.6-.6,1s.1.5.3.7c.2.2.5.3.9.4l3.8.6c1.5.2,2.6.7,3.4,1.5.8.7,1.2,1.8,1.2,3.1s-.3,2.3-1,3.1c-.6.9-1.5,1.5-2.7,2s-2.5.7-4,.7Z"/>
      <path class="st26" d="M672.3,58.7c-2.5,0-4.4-.6-5.6-1.8-1.2-1.2-1.8-3-1.8-5.4v-5.5h-3.1v-4.5h3.1v-4.9h6.1v4.9h4.8v4.5h-4.8v5.3c0,.8.2,1.5.6,1.9.4.4,1,.6,1.9.6s.6,0,.9-.1c.3,0,.7-.2,1.1-.3l.8,4.4c-.5.3-1.1.5-1.8.6-.7.2-1.4.2-2.1.2Z"/>
      <path class="st26" d="M683.8,58.7c-1.3,0-2.4-.2-3.4-.7-1-.5-1.8-1.1-2.3-2-.6-.8-.8-1.8-.8-2.8s.3-2.2,1-2.9c.6-.7,1.7-1.2,3.1-1.5,1.4-.3,3.3-.5,5.6-.5h1.9v2.8h-1.9c-.7,0-1.3,0-1.7.1-.5,0-.9.2-1.2.3-.3.1-.5.3-.7.5-.1.2-.2.5-.2.8,0,.5.2,1,.5,1.3.4.3.9.5,1.6.5s1-.1,1.5-.4c.4-.2.8-.6,1.1-1s.4-1,.4-1.5v-3.9c0-.8-.2-1.4-.6-1.8-.4-.3-1.1-.5-2.1-.5s-1.8.1-2.9.4-2.1.7-3.1,1.3l-1.6-4c.6-.4,1.3-.8,2.2-1.1.9-.3,1.8-.6,2.8-.7,1-.2,1.9-.3,2.7-.3,1.9,0,3.4.3,4.6.8,1.2.5,2.1,1.4,2.7,2.5.6,1.1.9,2.5.9,4.2v9.6h-5.6v-3.2h.2c-.1.7-.4,1.3-.8,1.9-.4.5-.9,1-1.6,1.3-.7.3-1.4.5-2.2.5ZM681.6,38.7l-2.7-.2c0-1.8.6-3.2,1.4-4.1.8-1,1.9-1.5,3.2-1.5s1,0,1.5.3c.4.2.9.4,1.4.8.5.3.9.5,1.2.6.3.1.6.2.9.2.6,0,1-.2,1.4-.5.3-.3.5-.9.7-1.5l2.7.2c0,1.8-.6,3.2-1.4,4.1-.8,1-1.9,1.5-3.2,1.5s-1,0-1.5-.2c-.5-.2-1-.4-1.5-.8-.4-.3-.8-.5-1.1-.6-.3-.1-.6-.2-.9-.2-.6,0-1.1.2-1.4.5-.3.4-.6.8-.7,1.5Z"/>
      <path class="st26" d="M705.8,58.7c-1.9,0-3.5-.4-4.9-1.1-1.4-.7-2.5-1.7-3.2-3-.8-1.3-1.2-2.9-1.2-4.7s.4-3.4,1.2-4.7c.8-1.3,1.8-2.3,3.2-3,1.4-.7,3-1.1,4.9-1.1s3.5.4,4.9,1.1c1.4.7,2.4,1.7,3.2,3,.8,1.3,1.1,2.9,1.1,4.7s-.4,3.3-1.1,4.7c-.8,1.3-1.8,2.3-3.2,3s-3,1.1-4.9,1.1ZM705.8,54.2c.9,0,1.7-.3,2.2-1,.6-.7.9-1.8.9-3.3s-.3-2.6-.9-3.2c-.6-.7-1.3-1-2.2-1s-1.7.3-2.3,1c-.6.7-.9,1.8-.9,3.2s.3,2.6.9,3.3c.6.7,1.3,1,2.3,1Z"/>
      <path class="st26" d="M733.3,58.7c-1.3,0-2.4-.2-3.4-.7-1-.5-1.8-1.1-2.3-2-.6-.8-.8-1.8-.8-2.8s.3-2.2,1-2.9c.6-.7,1.7-1.2,3.1-1.5,1.4-.3,3.3-.5,5.6-.5h1.9v2.8h-1.9c-.7,0-1.3,0-1.7.1-.5,0-.9.2-1.2.3-.3.1-.6.3-.7.5-.1.2-.2.5-.2.8,0,.5.2,1,.5,1.3.4.3.9.5,1.6.5s1-.1,1.5-.4c.4-.2.8-.6,1.1-1s.4-1,.4-1.5v-3.9c0-.8-.2-1.4-.6-1.8-.4-.3-1.1-.5-2.1-.5s-1.8.1-2.9.4c-1,.3-2.1.7-3.1,1.3l-1.6-4c.6-.4,1.3-.8,2.2-1.1.9-.3,1.8-.6,2.8-.7,1-.2,1.9-.3,2.7-.3,1.9,0,3.4.3,4.6.8s2.1,1.4,2.7,2.5c.6,1.1.9,2.5.9,4.2v9.6h-5.6v-3.2h.2c-.1.7-.4,1.3-.8,1.9-.4.5-.9,1-1.6,1.3-.7.3-1.4.5-2.2.5Z"/>
      <path class="st26" d="M743.8,64.9l-.4-4.2,1.6-.2c.7,0,1.2-.3,1.6-.6.3-.3.5-.9.5-1.5v-16.7h6.1v15.8c0,1.3-.1,2.4-.4,3.2-.3.9-.7,1.6-1.3,2.2s-1.4,1-2.4,1.3-2.2.5-3.7.6h-1.5ZM746.8,38.7v-5.4h6.4v5.4h-6.4Z"/>
      <path class="st26" d="M762.8,58.7c-1.5,0-2.6-.3-3.6-.8s-1.6-1.3-2.1-2.4c-.5-1.1-.7-2.4-.7-4v-9.9h6.1v10c0,.5,0,1,.2,1.4.1.4.4.6.7.8.3.2.7.3,1.2.3s1-.1,1.4-.4c.4-.3.8-.6,1-1.1.2-.5.4-1.1.4-1.7v-9.2h6.1v16.7h-5.9v-3.1h.5c-.5,1.1-1.2,2-2.1,2.6-.9.6-2,.9-3.2.9Z"/>
      <path class="st26" d="M783.5,58.7c-1.4,0-2.7-.4-3.8-1.1-1.1-.7-2-1.7-2.6-3-.6-1.3-.9-2.9-.9-4.7s.3-3.4.9-4.7c.6-1.3,1.5-2.3,2.6-3s2.4-1.1,3.8-1.1,2.4.3,3.4.9c1,.6,1.7,1.4,2,2.3h-.4v-10h6.1v24h-5.9v-3h.3c-.3,1-1,1.8-2,2.5-1,.6-2.2,1-3.5,1ZM785.5,54.2c.9,0,1.7-.3,2.2-1,.6-.7.9-1.8.9-3.2s-.3-2.6-.9-3.3c-.6-.7-1.3-1-2.2-1s-1.7.3-2.3,1c-.6.7-.9,1.8-.9,3.3s.3,2.6.9,3.2c.6.7,1.3,1,2.3,1Z"/>
      <path class="st26" d="M803.9,58.7c-1.3,0-2.4-.2-3.4-.7-1-.5-1.8-1.1-2.3-2-.6-.8-.8-1.8-.8-2.8s.3-2.2,1-2.9c.6-.7,1.7-1.2,3.1-1.5,1.4-.3,3.3-.5,5.6-.5h1.9v2.8h-1.9c-.7,0-1.3,0-1.7.1-.5,0-.9.2-1.2.3-.3.1-.5.3-.7.5-.1.2-.2.5-.2.8,0,.5.2,1,.5,1.3.4.3.9.5,1.6.5s1-.1,1.5-.4c.4-.2.8-.6,1.1-1s.4-1,.4-1.5v-3.9c0-.8-.2-1.4-.6-1.8-.4-.3-1.1-.5-2.1-.5s-1.8.1-2.9.4-2.1.7-3.1,1.3l-1.6-4c.6-.4,1.3-.8,2.2-1.1.9-.3,1.8-.6,2.8-.7,1-.2,1.9-.3,2.7-.3,1.9,0,3.4.3,4.6.8,1.2.5,2.1,1.4,2.7,2.5.6,1.1.9,2.5.9,4.2v9.6h-5.6v-3.2h.2c-.1.7-.4,1.3-.8,1.9-.4.5-.9,1-1.6,1.3-.7.3-1.4.5-2.2.5Z"/>
      <path class="st26" d="M817.4,58.3v-16.7h5.9v2.9h-.4c.5-1.1,1.3-1.9,2.3-2.5,1-.6,2.2-.9,3.5-.9s2.4.3,3.3.8c.9.5,1.5,1.3,1.9,2.4.4,1.1.6,2.4.6,4v9.9h-6.1v-9.7c0-.7,0-1.2-.2-1.6-.2-.4-.4-.7-.7-.9-.3-.2-.7-.3-1.2-.3s-1.1.1-1.6.4-.8.6-1,1.1c-.2.5-.4,1-.4,1.7v9.3h-6.1Z"/>
      <path class="st26" d="M844.5,58.7c-1.4,0-2.7-.4-3.8-1.1-1.1-.7-2-1.7-2.6-3-.6-1.3-.9-2.9-.9-4.7s.3-3.4.9-4.7c.6-1.3,1.5-2.3,2.6-3,1.1-.7,2.4-1.1,3.8-1.1s2.4.3,3.4.9c1,.6,1.7,1.4,2,2.3h-.4v-10h6.1v24h-5.9v-3h.3c-.3,1-1,1.8-2,2.5s-2.2,1-3.5,1ZM846.5,54.2c.9,0,1.7-.3,2.2-1,.6-.7.9-1.8.9-3.2s-.3-2.6-.9-3.3c-.6-.7-1.3-1-2.2-1s-1.7.3-2.3,1c-.6.7-.9,1.8-.9,3.3s.3,2.6.9,3.2c.6.7,1.3,1,2.3,1Z"/>
      <path class="st26" d="M867.5,58.7c-1.9,0-3.5-.4-4.9-1.1-1.4-.7-2.5-1.7-3.2-3-.8-1.3-1.2-2.9-1.2-4.7s.4-3.4,1.2-4.7c.8-1.3,1.8-2.3,3.2-3,1.4-.7,3-1.1,4.9-1.1s3.5.4,4.9,1.1c1.4.7,2.4,1.7,3.2,3,.8,1.3,1.1,2.9,1.1,4.7s-.4,3.3-1.1,4.7c-.8,1.3-1.8,2.3-3.2,3s-3,1.1-4.9,1.1ZM867.5,54.2c.9,0,1.7-.3,2.2-1,.6-.7.9-1.8.9-3.3s-.3-2.6-.9-3.2c-.6-.7-1.3-1-2.2-1s-1.7.3-2.3,1c-.6.7-.9,1.8-.9,3.2s.3,2.6.9,3.3c.6.7,1.3,1,2.3,1Z"/>
      <path class="st26" d="M895.1,58.7c-1.3,0-2.4-.2-3.4-.7-1-.5-1.8-1.1-2.3-2-.6-.8-.8-1.8-.8-2.8s.3-2.2,1-2.9c.6-.7,1.7-1.2,3.1-1.5,1.4-.3,3.3-.5,5.6-.5h1.9v2.8h-1.9c-.7,0-1.3,0-1.7.1-.5,0-.9.2-1.2.3-.3.1-.6.3-.7.5-.1.2-.2.5-.2.8,0,.5.2,1,.5,1.3.4.3.9.5,1.6.5s1-.1,1.5-.4c.4-.2.8-.6,1.1-1s.4-1,.4-1.5v-3.9c0-.8-.2-1.4-.6-1.8-.4-.3-1.1-.5-2.1-.5s-1.8.1-2.9.4c-1,.3-2.1.7-3.1,1.3l-1.6-4c.6-.4,1.3-.8,2.2-1.1.9-.3,1.8-.6,2.8-.7,1-.2,1.9-.3,2.7-.3,1.9,0,3.4.3,4.6.8s2.1,1.4,2.7,2.5c.6,1.1.9,2.5.9,4.2v9.6h-5.6v-3.2h.2c-.1.7-.4,1.3-.8,1.9-.4.5-.9,1-1.6,1.3-.7.3-1.4.5-2.2.5Z"/>
      <path class="st26" d="M918.4,58.3v-16.7h5.9v2.9h-.4c.3-.7.7-1.3,1.3-1.8.5-.5,1.1-.9,1.9-1.2.7-.3,1.5-.4,2.4-.4,1.2,0,2.3.3,3.1.9s1.5,1.5,1.9,2.7h-.5c.5-1.1,1.3-2,2.3-2.6s2.2-1,3.5-1,2.4.3,3.2.8c.8.5,1.5,1.3,1.9,2.4.4,1.1.6,2.4.6,4.1v9.9h-6.1v-9.7c0-1-.1-1.7-.4-2.1-.3-.4-.8-.6-1.5-.6s-1,.1-1.4.4c-.4.3-.7.6-.9,1.2-.2.5-.3,1.1-.3,1.9v9h-6.1v-9.7c0-1-.1-1.7-.4-2.1-.3-.4-.8-.6-1.5-.6s-1,.1-1.4.4c-.4.3-.7.6-.9,1.2-.2.5-.3,1.1-.3,1.9v9h-6.1Z"/>
      <path class="st26" d="M957.4,58.7c-1.9,0-3.5-.4-4.9-1.1-1.4-.7-2.5-1.7-3.2-3-.8-1.3-1.2-2.9-1.2-4.7s.4-3.4,1.2-4.7c.8-1.3,1.8-2.3,3.2-3,1.4-.7,3-1.1,4.9-1.1s3.5.4,4.9,1.1c1.4.7,2.4,1.7,3.2,3,.8,1.3,1.1,2.9,1.1,4.7s-.4,3.3-1.1,4.7c-.8,1.3-1.8,2.3-3.2,3s-3,1.1-4.9,1.1ZM957.4,54.2c.9,0,1.7-.3,2.2-1,.6-.7.9-1.8.9-3.3s-.3-2.6-.9-3.2c-.6-.7-1.3-1-2.2-1s-1.7.3-2.3,1c-.6.7-.9,1.8-.9,3.2s.3,2.6.9,3.3c.6.7,1.3,1,2.3,1Z"/>
      <path class="st26" d="M976.1,58.7c-2.3,0-4-.6-5.1-1.8-1-1.2-1.6-2.9-1.6-5.3v-17.3h6.1v17.1c0,.5,0,.9.2,1.3.1.4.4.6.7.8.3.2.7.3,1.2.3s.5,0,.7,0c.2,0,.5,0,.7-.1v4.6c-.5.1-1,.2-1.5.3-.5,0-1,.1-1.5.1Z"/>
      <path class="st26" d="M987.8,58.7c-1.4,0-2.7-.4-3.8-1.1s-2-1.7-2.6-3c-.6-1.3-.9-2.9-.9-4.7s.3-3.4.9-4.7c.6-1.3,1.5-2.3,2.6-3,1.1-.7,2.4-1.1,3.8-1.1s2.4.3,3.4.9,1.7,1.4,2,2.3h-.4v-10h6.1v24h-5.9v-3h.3c-.3,1-1,1.8-2,2.5-1,.6-2.2,1-3.5,1ZM989.7,54.2c.9,0,1.7-.3,2.2-1,.6-.7.9-1.8.9-3.2s-.3-2.6-.9-3.3c-.6-.7-1.3-1-2.2-1s-1.7.3-2.3,1c-.6.7-.9,1.8-.9,3.3s.3,2.6.9,3.2c.6.7,1.3,1,2.3,1Z"/>
      <path class="st26" d="M1008.2,58.7c-1.3,0-2.4-.2-3.4-.7-1-.5-1.8-1.1-2.3-2-.6-.8-.8-1.8-.8-2.8s.3-2.2,1-2.9c.6-.7,1.7-1.2,3.1-1.5,1.4-.3,3.3-.5,5.6-.5h1.9v2.8h-1.9c-.7,0-1.3,0-1.7.1-.5,0-.9.2-1.2.3-.3.1-.6.3-.7.5-.1.2-.2.5-.2.8,0,.5.2,1,.5,1.3.4.3.9.5,1.6.5s1-.1,1.5-.4c.4-.2.8-.6,1.1-1s.4-1,.4-1.5v-3.9c0-.8-.2-1.4-.6-1.8-.4-.3-1.1-.5-2.1-.5s-1.8.1-2.9.4c-1,.3-2.1.7-3.1,1.3l-1.6-4c.6-.4,1.3-.8,2.2-1.1.9-.3,1.8-.6,2.8-.7,1-.2,1.9-.3,2.7-.3,1.9,0,3.4.3,4.6.8s2.1,1.4,2.7,2.5c.6,1.1.9,2.5.9,4.2v9.6h-5.6v-3.2h.2c-.1.7-.4,1.3-.8,1.9-.4.5-.9,1-1.6,1.3-.7.3-1.4.5-2.2.5Z"/>
      <path class="st26" d="M1021.7,58.3v-16.7h5.9v4.1h-.3c.2-1.4.8-2.4,1.7-3.2.9-.8,2.1-1.2,3.7-1.3h1.6c0-.1.3,4.9.3,4.9l-3.3.3c-1.2.1-2.1.4-2.6,1-.6.6-.8,1.4-.8,2.5v8.3h-6.1Z"/>
      <path class="st26" d="M248.7,99.5c-1.5,0-2.6-.3-3.6-.8-.9-.5-1.6-1.3-2.1-2.4-.5-1.1-.7-2.4-.7-4v-9.9h6.1v10c0,.5,0,1,.2,1.4.1.4.4.6.7.8.3.2.7.3,1.2.3s1-.1,1.4-.4c.4-.3.8-.6,1-1.1.2-.5.4-1.1.4-1.7v-9.2h6.1v16.7h-6v-3.1h.5c-.5,1.1-1.2,2-2.1,2.6-.9.6-2,.9-3.2.9Z"/>
      <path class="st26" d="M263,99.1v-16.7h5.9v2.9h-.4c.3-.7.7-1.3,1.3-1.8.5-.5,1.1-.9,1.9-1.2s1.5-.4,2.4-.4c1.2,0,2.3.3,3.1.9s1.5,1.5,1.9,2.7h-.5c.5-1.1,1.3-2,2.3-2.6s2.2-1,3.5-1,2.4.3,3.2.8c.8.5,1.5,1.3,1.9,2.4.4,1.1.6,2.4.6,4.1v9.9h-6.1v-9.7c0-1-.1-1.7-.4-2.1-.3-.4-.8-.6-1.5-.6s-1,.1-1.4.4c-.4.3-.7.6-.9,1.2-.2.5-.3,1.1-.3,1.9v9h-6.1v-9.7c0-1-.1-1.7-.4-2.1-.3-.4-.8-.6-1.5-.6s-1,.1-1.4.4c-.4.3-.7.6-.9,1.2-.2.5-.3,1.1-.3,1.9v9h-6.1Z"/>
      <path class="st26" d="M311.8,99.5c-1.9,0-3.5-.4-4.9-1.1s-2.5-1.7-3.2-3.1c-.8-1.3-1.2-2.9-1.2-4.7s.4-3.4,1.2-4.7c.8-1.3,1.9-2.3,3.2-3,1.4-.7,3-1.1,4.9-1.1s2.2.2,3.3.5c1.1.3,2,.7,2.7,1.3l-1.6,4.1c-.5-.4-1.1-.7-1.8-1-.7-.2-1.4-.4-2-.4-1.2,0-2.1.4-2.8,1.1-.7.7-1,1.8-1,3.1s.3,2.3,1,3.1c.7.7,1.6,1.1,2.8,1.1s1.3-.1,2-.4c.7-.2,1.3-.6,1.8-1l1.6,4.2c-.7.5-1.6.9-2.7,1.3-1.1.3-2.2.5-3.3.5Z"/>
      <path class="st26" d="M328.9,99.5c-2,0-3.8-.4-5.3-1.1s-2.6-1.7-3.4-3.1c-.8-1.3-1.2-2.9-1.2-4.6s.4-3.2,1.1-4.6c.8-1.3,1.8-2.3,3.1-3.1s2.8-1.1,4.5-1.1,3.2.4,4.4,1.1c1.2.7,2.2,1.7,2.8,3,.7,1.3,1,2.8,1,4.6v1.3h-12v-2.9h7.5l-.5.4c0-1.2-.3-2.2-.8-2.8-.5-.6-1.3-.9-2.2-.9s-1.3.2-1.8.5c-.5.3-.9.8-1.2,1.4-.3.6-.4,1.4-.4,2.4v.3c0,1.1.2,2,.5,2.6.3.7.8,1.1,1.4,1.4.7.3,1.5.4,2.5.4s1.8-.1,2.7-.4c.9-.2,1.8-.6,2.5-1.2l1.5,4c-.9.6-1.9,1.1-3.1,1.4-1.2.4-2.5.6-3.7.6Z"/>
      <path class="st26" d="M338.6,99.1v-16.7h5.9v2.9h-.4c.5-1.1,1.3-1.9,2.3-2.5,1-.6,2.2-.9,3.5-.9s2.4.3,3.3.8c.9.5,1.5,1.3,1.9,2.4.4,1.1.6,2.4.6,4v9.9h-6.1v-9.7c0-.7,0-1.2-.2-1.6-.2-.4-.4-.7-.7-.9-.3-.2-.7-.3-1.2-.3s-1.1.1-1.6.4-.8.6-1,1.1c-.2.5-.4,1-.4,1.7v9.3h-6.1Z"/>
      <path class="st26" d="M365,99.5c-1.3,0-2.4-.2-3.4-.7-1-.5-1.8-1.1-2.3-2-.6-.8-.8-1.8-.8-2.8s.3-2.2,1-2.9c.6-.7,1.7-1.2,3.1-1.5,1.4-.3,3.3-.5,5.6-.5h1.9v2.8h-1.9c-.7,0-1.3,0-1.7.1-.5,0-.9.2-1.2.3-.3.1-.5.3-.7.5-.1.2-.2.5-.2.8,0,.5.2,1,.5,1.3.4.3.9.5,1.6.5s1-.1,1.5-.4.8-.6,1.1-1,.4-1,.4-1.5v-3.9c0-.8-.2-1.4-.6-1.8-.4-.3-1.1-.5-2.1-.5s-1.8.1-2.9.4c-1,.3-2.1.7-3.1,1.3l-1.6-4c.6-.4,1.3-.8,2.2-1.1.9-.3,1.8-.6,2.8-.7,1-.2,1.9-.3,2.7-.3,1.9,0,3.4.3,4.6.8,1.2.5,2.1,1.4,2.7,2.5.6,1.1.9,2.5.9,4.2v9.6h-5.6v-3.2h.2c-.1.7-.4,1.3-.8,1.9-.4.5-.9,1-1.6,1.3-.7.3-1.4.5-2.2.5ZM365.3,80.2l3.5-7h5.7l-5.2,7h-3.9Z"/>
      <path class="st26" d="M378.5,99.1v-16.7h5.9v4.1h-.3c.2-1.4.8-2.4,1.7-3.2.9-.8,2.1-1.2,3.7-1.3h1.6c0-.1.3,4.9.3,4.9l-3.3.3c-1.2.1-2.1.4-2.6,1-.6.6-.8,1.4-.8,2.5v8.3h-6.1Z"/>
      <path class="st26" d="M393.1,79.5v-5.4h6.4v5.4h-6.4ZM393.3,99.1v-16.7h6.1v16.7h-6.1Z"/>
      <path class="st26" d="M411.3,99.5c-1.9,0-3.5-.4-4.9-1.1-1.4-.7-2.5-1.7-3.2-3-.8-1.3-1.2-2.9-1.2-4.7s.4-3.4,1.2-4.7c.8-1.3,1.8-2.3,3.2-3,1.4-.7,3-1.1,4.9-1.1s3.5.4,4.9,1.1c1.4.7,2.4,1.7,3.2,3,.8,1.3,1.1,2.9,1.1,4.7s-.4,3.3-1.1,4.7c-.8,1.3-1.8,2.3-3.2,3s-3,1.1-4.9,1.1ZM411.3,95c.9,0,1.7-.3,2.2-1,.6-.7.9-1.8.9-3.3s-.3-2.6-.9-3.2c-.6-.7-1.3-1-2.2-1s-1.7.3-2.3,1c-.6.7-.9,1.8-.9,3.2s.3,2.6.9,3.3c.6.7,1.3,1,2.3,1Z"/>
      <path class="st26" d="M439.6,99.5c-1.4,0-2.7-.4-3.8-1.1-1.1-.7-2-1.7-2.6-3-.6-1.3-.9-2.9-.9-4.7s.3-3.4.9-4.7c.6-1.3,1.5-2.3,2.6-3,1.1-.7,2.4-1.1,3.8-1.1s2.4.3,3.4.9c1,.6,1.7,1.4,2,2.3h-.4v-10h6.1v24h-5.9v-3h.3c-.3,1-1,1.8-2,2.5s-2.2,1-3.5,1ZM441.5,95c.9,0,1.7-.3,2.2-1,.6-.7.9-1.8.9-3.2s-.3-2.6-.9-3.3c-.6-.7-1.3-1-2.2-1s-1.7.3-2.3,1c-.6.7-.9,1.8-.9,3.3s.3,2.6.9,3.2c.6.7,1.3,1,2.3,1Z"/>
      <path class="st26" d="M462.6,99.5c-1.9,0-3.5-.4-4.9-1.1-1.4-.7-2.5-1.7-3.2-3-.8-1.3-1.2-2.9-1.2-4.7s.4-3.4,1.2-4.7c.8-1.3,1.8-2.3,3.2-3,1.4-.7,3-1.1,4.9-1.1s3.5.4,4.9,1.1c1.4.7,2.4,1.7,3.2,3,.8,1.3,1.1,2.9,1.1,4.7s-.4,3.3-1.1,4.7c-.8,1.3-1.8,2.3-3.2,3s-3,1.1-4.9,1.1ZM462.6,95c.9,0,1.7-.3,2.2-1,.6-.7.9-1.8.9-3.3s-.3-2.6-.9-3.2c-.6-.7-1.3-1-2.2-1s-1.7.3-2.3,1c-.6.7-.9,1.8-.9,3.2s.3,2.6.9,3.3c.6.7,1.3,1,2.3,1Z"/>
      <path class="st26" d="M493.4,99.5c-2,0-3.8-.4-5.3-1.1s-2.6-1.7-3.4-3.1c-.8-1.3-1.2-2.9-1.2-4.6s.4-3.2,1.1-4.6c.8-1.3,1.8-2.3,3.1-3.1s2.8-1.1,4.5-1.1,3.2.4,4.4,1.1c1.2.7,2.2,1.7,2.8,3,.7,1.3,1,2.8,1,4.6v1.3h-12v-2.9h7.5l-.5.4c0-1.2-.3-2.2-.8-2.8-.5-.6-1.3-.9-2.2-.9s-1.3.2-1.8.5c-.5.3-.9.8-1.2,1.4-.3.6-.4,1.4-.4,2.4v.3c0,1.1.2,2,.5,2.6.3.7.8,1.1,1.4,1.4.7.3,1.5.4,2.5.4s1.8-.1,2.7-.4c.9-.2,1.8-.6,2.5-1.2l1.5,4c-.9.6-1.9,1.1-3.1,1.4-1.2.4-2.5.6-3.7.6Z"/>
      <path class="st26" d="M511.7,99.5c-1.9,0-3.5-.4-4.9-1.1s-2.5-1.7-3.2-3.1c-.8-1.3-1.2-2.9-1.2-4.7s.4-3.4,1.2-4.7c.8-1.3,1.9-2.3,3.2-3,1.4-.7,3-1.1,4.9-1.1s2.2.2,3.3.5c1.1.3,2,.7,2.7,1.3l-1.6,4.1c-.5-.4-1.1-.7-1.8-1-.7-.2-1.4-.4-2-.4-1.2,0-2.1.4-2.8,1.1-.7.7-1,1.8-1,3.1s.3,2.3,1,3.1c.7.7,1.6,1.1,2.8,1.1s1.3-.1,2-.4c.7-.2,1.3-.6,1.8-1l1.6,4.2c-.7.5-1.6.9-2.7,1.3-1.1.3-2.2.5-3.3.5Z"/>
      <path class="st26" d="M528.1,99.5c-1.9,0-3.5-.4-4.9-1.1-1.4-.7-2.5-1.7-3.2-3-.8-1.3-1.2-2.9-1.2-4.7s.4-3.4,1.2-4.7c.8-1.3,1.8-2.3,3.2-3,1.4-.7,3-1.1,4.9-1.1s3.5.4,4.9,1.1c1.4.7,2.4,1.7,3.2,3,.8,1.3,1.1,2.9,1.1,4.7s-.4,3.3-1.1,4.7c-.8,1.3-1.8,2.3-3.2,3s-3,1.1-4.9,1.1ZM528.1,95c.9,0,1.7-.3,2.2-1,.6-.7.9-1.8.9-3.3s-.3-2.6-.9-3.2c-.6-.7-1.3-1-2.2-1s-1.7.3-2.3,1c-.6.7-.9,1.8-.9,3.2s.3,2.6.9,3.3c.6.7,1.3,1,2.3,1Z"/>
      <path class="st26" d="M546.8,99.5c-1,0-2,0-3-.2-.9-.2-1.8-.4-2.6-.6-.8-.3-1.5-.6-2.1-1l1.4-3.9c.6.3,1.2.6,1.9.8s1.4.4,2.2.6c.7.1,1.5.2,2.2.2s1.4-.1,1.8-.4c.4-.2.5-.5.5-.9s-.1-.6-.4-.8c-.2-.2-.6-.3-1-.4l-3.8-.6c-1.4-.2-2.5-.8-3.3-1.6-.8-.8-1.2-1.8-1.2-3.1s.3-2.2,1-3c.7-.9,1.6-1.5,2.8-2,1.2-.5,2.5-.7,4-.7s1.6,0,2.4.2c.8.1,1.6.3,2.3.6.7.2,1.4.6,2,1.1l-1.5,3.8c-.4-.3-.9-.5-1.5-.8-.6-.2-1.2-.4-1.8-.6-.6-.1-1.2-.2-1.7-.2-1,0-1.6.1-2,.4-.4.2-.6.6-.6,1s.1.5.3.7c.2.2.5.3.9.4l3.8.6c1.5.2,2.6.7,3.4,1.5.8.7,1.2,1.8,1.2,3.1s-.3,2.3-1,3.1c-.6.9-1.5,1.5-2.7,2-1.1.5-2.5.7-4,.7Z"/>
      <path class="st26" d="M563.7,99.5c-1,0-2,0-3-.2-.9-.2-1.8-.4-2.6-.6-.8-.3-1.5-.6-2.1-1l1.4-3.9c.6.3,1.2.6,1.9.8s1.4.4,2.2.6c.7.1,1.5.2,2.2.2s1.4-.1,1.8-.4c.4-.2.5-.5.5-.9s-.1-.6-.4-.8c-.2-.2-.6-.3-1-.4l-3.8-.6c-1.4-.2-2.5-.8-3.3-1.6-.8-.8-1.2-1.8-1.2-3.1s.3-2.2,1-3c.7-.9,1.6-1.5,2.8-2,1.2-.5,2.5-.7,4-.7s1.6,0,2.4.2c.8.1,1.6.3,2.3.6.7.2,1.4.6,2,1.1l-1.5,3.8c-.4-.3-.9-.5-1.5-.8-.6-.2-1.2-.4-1.8-.6-.6-.1-1.2-.2-1.7-.2-1,0-1.6.1-2,.4-.4.2-.6.6-.6,1s.1.5.3.7c.2.2.5.3.9.4l3.8.6c1.5.2,2.6.7,3.4,1.5.8.7,1.2,1.8,1.2,3.1s-.3,2.3-1,3.1c-.6.9-1.5,1.5-2.7,2-1.1.5-2.5.7-4,.7Z"/>
      <path class="st26" d="M573.7,79.5v-5.4h6.4v5.4h-6.4ZM573.8,99.1v-16.7h6.1v16.7h-6.1Z"/>
      <path class="st26" d="M590.1,99.5c-1,0-2,0-3-.2-.9-.2-1.8-.4-2.6-.6-.8-.3-1.5-.6-2.1-1l1.4-3.9c.6.3,1.2.6,1.9.8s1.4.4,2.2.6c.7.1,1.5.2,2.2.2s1.4-.1,1.8-.4c.4-.2.5-.5.5-.9s-.1-.6-.4-.8c-.2-.2-.6-.3-1-.4l-3.8-.6c-1.4-.2-2.5-.8-3.3-1.6-.8-.8-1.2-1.8-1.2-3.1s.3-2.2,1-3c.7-.9,1.6-1.5,2.8-2,1.2-.5,2.5-.7,4-.7s1.6,0,2.4.2c.8.1,1.6.3,2.3.6.7.2,1.4.6,2,1.1l-1.5,3.8c-.4-.3-.9-.5-1.5-.8-.6-.2-1.2-.4-1.8-.6-.6-.1-1.2-.2-1.7-.2-1,0-1.6.1-2,.4-.4.2-.6.6-.6,1s.1.5.3.7c.2.2.5.3.9.4l3.8.6c1.5.2,2.6.7,3.4,1.5.8.7,1.2,1.8,1.2,3.1s-.3,2.3-1,3.1c-.6.9-1.5,1.5-2.7,2-1.1.5-2.5.7-4,.7Z"/>
      <path class="st26" d="M609,99.5c-2.5,0-4.4-.6-5.6-1.8s-1.8-3-1.8-5.4v-5.5h-3.1v-4.5h3.1v-4.9h6.1v4.9h4.8v4.5h-4.8v5.3c0,.8.2,1.5.6,1.9.4.4,1,.6,1.9.6s.6,0,.9-.1c.3,0,.7-.2,1.1-.3l.8,4.4c-.5.3-1.1.5-1.8.6-.7.2-1.4.2-2.1.2Z"/>
      <path class="st26" d="M623.8,99.5c-2,0-3.8-.4-5.3-1.1s-2.6-1.7-3.4-3.1c-.8-1.3-1.2-2.9-1.2-4.6s.4-3.2,1.1-4.6c.8-1.3,1.8-2.3,3.1-3.1s2.8-1.1,4.5-1.1,3.2.4,4.4,1.1c1.2.7,2.2,1.7,2.8,3,.7,1.3,1,2.8,1,4.6v1.3h-12v-2.9h7.5l-.5.4c0-1.2-.3-2.2-.8-2.8-.5-.6-1.3-.9-2.2-.9s-1.3.2-1.8.5c-.5.3-.9.8-1.2,1.4-.3.6-.4,1.4-.4,2.4v.3c0,1.1.2,2,.5,2.6.3.7.8,1.1,1.4,1.4.7.3,1.5.4,2.5.4s1.8-.1,2.7-.4c.9-.2,1.8-.6,2.5-1.2l1.5,4c-.9.6-1.9,1.1-3.1,1.4-1.2.4-2.5.6-3.7.6Z"/>
      <path class="st26" d="M633.7,99.1v-16.7h5.9v2.9h-.4c.3-.7.7-1.3,1.3-1.8s1.1-.9,1.9-1.2,1.5-.4,2.4-.4c1.2,0,2.3.3,3.1.9s1.5,1.5,1.9,2.7h-.5c.5-1.1,1.3-2,2.3-2.6,1-.6,2.2-1,3.5-1s2.4.3,3.2.8c.8.5,1.5,1.3,1.9,2.4s.6,2.4.6,4.1v9.9h-6.1v-9.7c0-1-.1-1.7-.4-2.1-.3-.4-.8-.6-1.5-.6s-1,.1-1.4.4c-.4.3-.7.6-.9,1.2-.2.5-.3,1.1-.3,1.9v9h-6.1v-9.7c0-1-.1-1.7-.4-2.1-.3-.4-.8-.6-1.5-.6s-1,.1-1.4.4c-.4.3-.7.6-.9,1.2-.2.5-.3,1.1-.3,1.9v9h-6.1Z"/>
      <path class="st26" d="M670.1,99.5c-1.3,0-2.4-.2-3.4-.7-1-.5-1.8-1.1-2.3-2-.6-.8-.8-1.8-.8-2.8s.3-2.2,1-2.9c.6-.7,1.7-1.2,3.1-1.5,1.4-.3,3.3-.5,5.6-.5h1.9v2.8h-1.9c-.7,0-1.3,0-1.7.1-.5,0-.9.2-1.2.3-.3.1-.5.3-.7.5-.1.2-.2.5-.2.8,0,.5.2,1,.5,1.3s.9.5,1.6.5,1-.1,1.5-.4.8-.6,1.1-1c.3-.4.4-1,.4-1.5v-3.9c0-.8-.2-1.4-.6-1.8-.4-.3-1.1-.5-2.1-.5s-1.8.1-2.9.4-2.1.7-3.1,1.3l-1.6-4c.6-.4,1.3-.8,2.2-1.1.9-.3,1.8-.6,2.8-.7,1-.2,1.9-.3,2.7-.3,1.9,0,3.4.3,4.6.8,1.2.5,2.1,1.4,2.7,2.5.6,1.1.9,2.5.9,4.2v9.6h-5.6v-3.2h.2c-.1.7-.4,1.3-.8,1.9-.4.5-.9,1-1.6,1.3-.7.3-1.4.5-2.2.5Z"/>
      <path class="st26" d="M699.8,99.5c-1.4,0-2.7-.4-3.8-1.1-1.1-.7-2-1.7-2.6-3-.6-1.3-.9-2.9-.9-4.7s.3-3.4.9-4.7c.6-1.3,1.5-2.3,2.6-3,1.1-.7,2.4-1.1,3.8-1.1s2.4.3,3.4.9c1,.6,1.7,1.4,2,2.3h-.4v-10h6.1v24h-5.9v-3h.3c-.3,1-1,1.8-2,2.5s-2.2,1-3.5,1ZM701.8,95c.9,0,1.7-.3,2.2-1,.6-.7.9-1.8.9-3.2s-.3-2.6-.9-3.3c-.6-.7-1.3-1-2.2-1s-1.7.3-2.3,1c-.6.7-.9,1.8-.9,3.3s.3,2.6.9,3.2c.6.7,1.3,1,2.3,1Z"/>
      <path class="st26" d="M723.5,99.5c-2,0-3.8-.4-5.3-1.1s-2.6-1.7-3.4-3.1c-.8-1.3-1.2-2.9-1.2-4.6s.4-3.2,1.1-4.6c.8-1.3,1.8-2.3,3.1-3.1s2.8-1.1,4.5-1.1,3.2.4,4.4,1.1,2.2,1.7,2.8,3c.7,1.3,1,2.8,1,4.6v1.3h-12v-2.9h7.5l-.5.4c0-1.2-.3-2.2-.8-2.8-.5-.6-1.3-.9-2.2-.9s-1.3.2-1.8.5c-.5.3-.9.8-1.2,1.4-.3.6-.4,1.4-.4,2.4v.3c0,1.1.2,2,.5,2.6.3.7.8,1.1,1.4,1.4.7.3,1.5.4,2.5.4s1.8-.1,2.7-.4,1.8-.6,2.5-1.2l1.5,4c-.9.6-1.9,1.1-3.1,1.4-1.2.4-2.5.6-3.7.6Z"/>
      <path class="st26" d="M749.7,99.5c-1,0-2,0-3-.2-.9-.2-1.8-.4-2.6-.6-.8-.3-1.5-.6-2.1-1l1.4-3.9c.6.3,1.2.6,1.9.8s1.4.4,2.2.6c.7.1,1.5.2,2.2.2s1.4-.1,1.8-.4c.4-.2.5-.5.5-.9s-.1-.6-.4-.8c-.2-.2-.6-.3-1-.4l-3.8-.6c-1.4-.2-2.5-.8-3.3-1.6-.8-.8-1.2-1.8-1.2-3.1s.3-2.2,1-3c.7-.9,1.6-1.5,2.8-2,1.2-.5,2.5-.7,4-.7s1.6,0,2.4.2c.8.1,1.6.3,2.3.6.7.2,1.4.6,2,1.1l-1.5,3.8c-.4-.3-.9-.5-1.5-.8-.6-.2-1.2-.4-1.8-.6-.6-.1-1.2-.2-1.7-.2-1,0-1.6.1-2,.4-.4.2-.6.6-.6,1s.1.5.3.7.5.3.9.4l3.8.6c1.5.2,2.6.7,3.4,1.5.8.7,1.2,1.8,1.2,3.1s-.3,2.3-1,3.1c-.6.9-1.5,1.5-2.7,2-1.1.5-2.5.7-4,.7Z"/>
      <path class="st26" d="M765.6,99.5c-1.3,0-2.4-.2-3.4-.7-1-.5-1.8-1.1-2.3-2-.6-.8-.8-1.8-.8-2.8s.3-2.2,1-2.9c.6-.7,1.7-1.2,3.1-1.5,1.4-.3,3.3-.5,5.6-.5h1.9v2.8h-1.9c-.7,0-1.3,0-1.7.1-.5,0-.9.2-1.2.3-.3.1-.6.3-.7.5-.1.2-.2.5-.2.8,0,.5.2,1,.5,1.3.4.3.9.5,1.6.5s1-.1,1.5-.4c.4-.2.8-.6,1.1-1s.4-1,.4-1.5v-3.9c0-.8-.2-1.4-.6-1.8-.4-.3-1.1-.5-2.1-.5s-1.8.1-2.9.4c-1,.3-2.1.7-3.1,1.3l-1.6-4c.6-.4,1.3-.8,2.2-1.1.9-.3,1.8-.6,2.8-.7,1-.2,1.9-.3,2.7-.3,1.9,0,3.4.3,4.6.8s2.1,1.4,2.7,2.5c.6,1.1.9,2.5.9,4.2v9.6h-5.6v-3.2h.2c-.1.7-.4,1.3-.8,1.9-.4.5-.9,1-1.6,1.3-.7.3-1.4.5-2.2.5Z"/>
      <path class="st26" d="M785.4,99.5c-1.5,0-2.6-.3-3.6-.8s-1.6-1.3-2.1-2.4c-.5-1.1-.7-2.4-.7-4v-9.9h6.1v10c0,.5,0,1,.2,1.4.1.4.4.6.7.8.3.2.7.3,1.2.3s1-.1,1.4-.4c.4-.3.8-.6,1-1.1.2-.5.4-1.1.4-1.7v-9.2h6.1v16.7h-5.9v-3.1h.5c-.5,1.1-1.2,2-2.1,2.6-.9.6-2,.9-3.2.9ZM785.6,80.2l3.5-7h5.7l-5.2,7h-3.9Z"/>
      <path class="st26" d="M806.1,99.5c-1.4,0-2.7-.4-3.8-1.1-1.1-.7-2-1.7-2.6-3-.6-1.3-.9-2.9-.9-4.7s.3-3.4.9-4.7c.6-1.3,1.5-2.3,2.6-3s2.4-1.1,3.8-1.1,2.4.3,3.4.9c1,.6,1.7,1.4,2,2.3h-.4v-10h6.1v24h-5.9v-3h.3c-.3,1-1,1.8-2,2.5-1,.6-2.2,1-3.5,1ZM808,95c.9,0,1.7-.3,2.2-1,.6-.7.9-1.8.9-3.2s-.3-2.6-.9-3.3c-.6-.7-1.3-1-2.2-1s-1.7.3-2.3,1c-.6.7-.9,1.8-.9,3.3s.3,2.6.9,3.2c.6.7,1.3,1,2.3,1Z"/>
      <path class="st26" d="M829.8,99.5c-2,0-3.8-.4-5.3-1.1s-2.6-1.7-3.4-3.1c-.8-1.3-1.2-2.9-1.2-4.6s.4-3.2,1.1-4.6c.8-1.3,1.8-2.3,3.1-3.1s2.8-1.1,4.5-1.1,3.2.4,4.4,1.1c1.2.7,2.2,1.7,2.8,3s1,2.8,1,4.6v1.3h-12v-2.9h7.5l-.5.4c0-1.2-.3-2.2-.8-2.8-.5-.6-1.3-.9-2.2-.9s-1.3.2-1.8.5c-.5.3-.9.8-1.2,1.4-.3.6-.4,1.4-.4,2.4v.3c0,1.1.2,2,.5,2.6.3.7.8,1.1,1.4,1.4.7.3,1.5.4,2.5.4s1.8-.1,2.7-.4c.9-.2,1.8-.6,2.5-1.2l1.5,4c-.9.6-1.9,1.1-3.1,1.4s-2.5.6-3.7.6Z"/>
      <path class="st26" d="M860.3,99.5c-1.3,0-2.4-.3-3.4-1-1-.6-1.7-1.5-2-2.5h.3v3h-5.9v-24h6.1v10h-.4c.4-.9,1-1.7,2-2.3s2.1-.9,3.4-.9,2.7.4,3.8,1.1c1.1.7,1.9,1.7,2.6,3,.6,1.3.9,2.9.9,4.7s-.3,3.3-.9,4.7c-.6,1.3-1.5,2.3-2.6,3s-2.4,1.1-3.8,1.1ZM858.4,95c.9,0,1.7-.3,2.2-1,.6-.7.9-1.8.9-3.2s-.3-2.6-.9-3.3c-.6-.7-1.3-1-2.2-1s-1.7.3-2.3,1c-.6.7-.9,1.8-.9,3.3s.3,2.6.9,3.2c.6.7,1.3,1,2.3,1Z"/>
      <path class="st26" d="M870.3,99.1v-16.7h5.9v4.1h-.3c.2-1.4.8-2.4,1.7-3.2.9-.8,2.1-1.2,3.7-1.3h1.6c0-.1.3,4.9.3,4.9l-3.3.3c-1.2.1-2.1.4-2.6,1-.6.6-.8,1.4-.8,2.5v8.3h-6.1Z"/>
      <path class="st26" d="M890.9,99.5c-1.3,0-2.4-.2-3.4-.7-1-.5-1.8-1.1-2.3-2-.6-.8-.8-1.8-.8-2.8s.3-2.2,1-2.9c.6-.7,1.7-1.2,3.1-1.5,1.4-.3,3.3-.5,5.6-.5h1.9v2.8h-1.9c-.7,0-1.3,0-1.7.1-.5,0-.9.2-1.2.3-.3.1-.6.3-.7.5-.1.2-.2.5-.2.8,0,.5.2,1,.5,1.3.4.3.9.5,1.6.5s1-.1,1.5-.4c.4-.2.8-.6,1.1-1s.4-1,.4-1.5v-3.9c0-.8-.2-1.4-.6-1.8-.4-.3-1.1-.5-2.1-.5s-1.8.1-2.9.4c-1,.3-2.1.7-3.1,1.3l-1.6-4c.6-.4,1.3-.8,2.2-1.1.9-.3,1.8-.6,2.8-.7,1-.2,1.9-.3,2.7-.3,1.9,0,3.4.3,4.6.8s2.1,1.4,2.7,2.5c.6,1.1.9,2.5.9,4.2v9.6h-5.6v-3.2h.2c-.1.7-.4,1.3-.8,1.9-.4.5-.9,1-1.6,1.3-.7.3-1.4.5-2.2.5Z"/>
      <path class="st26" d="M911.1,99.5c-1,0-2,0-3-.2-.9-.2-1.8-.4-2.6-.6-.8-.3-1.5-.6-2.1-1l1.4-3.9c.6.3,1.2.6,1.9.8s1.4.4,2.2.6c.7.1,1.5.2,2.2.2s1.4-.1,1.8-.4c.4-.2.5-.5.5-.9s-.1-.6-.4-.8c-.2-.2-.6-.3-1-.4l-3.8-.6c-1.4-.2-2.5-.8-3.3-1.6-.8-.8-1.2-1.8-1.2-3.1s.3-2.2,1-3c.7-.9,1.6-1.5,2.8-2,1.2-.5,2.5-.7,4-.7s1.6,0,2.4.2c.8.1,1.6.3,2.3.6.7.2,1.4.6,2,1.1l-1.5,3.8c-.4-.3-.9-.5-1.5-.8-.6-.2-1.2-.4-1.8-.6-.6-.1-1.2-.2-1.7-.2-1,0-1.6.1-2,.4-.4.2-.6.6-.6,1s.1.5.3.7c.2.2.5.3.9.4l3.8.6c1.5.2,2.6.7,3.4,1.5.8.7,1.2,1.8,1.2,3.1s-.3,2.3-1,3.1c-.6.9-1.5,1.5-2.7,2s-2.5.7-4,.7Z"/>
      <path class="st26" d="M921.1,79.5v-5.4h6.4v5.4h-6.4ZM921.3,99.1v-16.7h6.1v16.7h-6.1Z"/>
      <path class="st26" d="M937.4,99.5c-2.3,0-4-.6-5.1-1.8-1-1.2-1.6-2.9-1.6-5.3v-17.3h6.1v17.1c0,.5,0,.9.2,1.3.1.4.4.6.7.8.3.2.7.3,1.2.3s.5,0,.7,0c.2,0,.5,0,.7-.1v4.6c-.5.1-1,.2-1.5.3-.5,0-1,.1-1.5.1Z"/>
      <path class="st26" d="M951.8,99.5c-2,0-3.8-.4-5.3-1.1s-2.6-1.7-3.4-3.1c-.8-1.3-1.2-2.9-1.2-4.6s.4-3.2,1.1-4.6c.8-1.3,1.8-2.3,3.1-3.1s2.8-1.1,4.5-1.1,3.2.4,4.4,1.1,2.2,1.7,2.8,3c.7,1.3,1,2.8,1,4.6v1.3h-12v-2.9h7.5l-.5.4c0-1.2-.3-2.2-.8-2.8-.5-.6-1.3-.9-2.2-.9s-1.3.2-1.8.5c-.5.3-.9.8-1.2,1.4-.3.6-.4,1.4-.4,2.4v.3c0,1.1.2,2,.5,2.6.3.7.8,1.1,1.4,1.4.7.3,1.5.4,2.5.4s1.8-.1,2.7-.4,1.8-.6,2.5-1.2l1.5,4c-.9.6-1.9,1.1-3.1,1.4-1.2.4-2.5.6-3.7.6Z"/>
      <path class="st26" d="M961.3,79.5v-5.4h6.4v5.4h-6.4ZM961.5,99.1v-16.7h6.1v16.7h-6.1Z"/>
      <path class="st26" d="M971.1,99.1v-16.7h5.9v4.1h-.3c.2-1.4.8-2.4,1.7-3.2.9-.8,2.1-1.2,3.7-1.3h1.6c0-.1.3,4.9.3,4.9l-3.3.3c-1.2.1-2.1.4-2.6,1-.6.6-.8,1.4-.8,2.5v8.3h-6.1Z"/>
      <path class="st26" d="M994.3,99.5c-1.9,0-3.5-.4-4.9-1.1-1.4-.7-2.5-1.7-3.2-3-.8-1.3-1.2-2.9-1.2-4.7s.4-3.4,1.2-4.7c.8-1.3,1.8-2.3,3.2-3,1.4-.7,3-1.1,4.9-1.1s3.5.4,4.9,1.1c1.4.7,2.4,1.7,3.2,3,.8,1.3,1.1,2.9,1.1,4.7s-.4,3.3-1.1,4.7-1.8,2.3-3.2,3c-1.4.7-3,1.1-4.9,1.1ZM994.3,95c.9,0,1.7-.3,2.2-1,.6-.7.9-1.8.9-3.3s-.3-2.6-.9-3.2c-.6-.7-1.3-1-2.2-1s-1.7.3-2.3,1c-.6.7-.9,1.8-.9,3.2s.3,2.6.9,3.3c.6.7,1.3,1,2.3,1Z"/>
    </g>
  </g>
  <g id="item1">
    <g id="bt1">
      <path id="bg1" class="st0" d="M138.1,556.2c34.7-5.3,67.2,17.2,74.9,50.9.4,1.6.7,3.2.9,4.8,5.6,36.6-19.8,70.9-56.6,76-35.3,4.9-68.6-19.4-74.7-54.5-6.3-36.4,18.1-70.7,54.2-77,.4,0,.9-.2,1.3-.2Z"/>
      <path id="shade1" class="st25" d="M137.3,556.8c34.7-5.3,67.2,17.2,74.9,50.9l-21.2,31.7c3.3-7.9,4.5-16.8,2.9-25.9-4.2-23.7-26.5-40.4-50.4-37.7-26.2,2.9-44.4,27-40.4,52.8s22.4,38.5,44.3,39.1c-8.7,0-17.4-2.5-25.1-7.7-11.1-7.4-17.9-18.9-19.8-31.1s.6-22.5,7.1-32.3l26.4-39.5c.4,0,.9-.2,1.3-.2Z"/>
      <path id="circle1" class="st22" d="M193.5,613.9c1.6,9.1.5,18-2.9,25.9l-5.3,8c-8.8,13.2-23.4,20.3-38.2,20.3,0,0-.1,0-.2,0-21.9-.6-40.9-16.7-44.3-39.1-4-25.8,14.3-49.8,40.4-52.8s46.2,14,50.4,37.7Z"/>
      <path id="icon1" class="st26" d="M136.1,604.5c3.8-2.8,8.4-4.5,13.5-4.5,12.5,0,22.6,10.2,22.6,22.6s-10.1,22.6-22.6,22.6-22.6-10.2-22.6-22.6,1.7-9.7,4.5-13.5l2.8,2.8c-2.1,3-3.4,6.7-3.4,10.7,0,10.3,8.4,18.7,18.7,18.7s18.7-8.4,18.7-18.7-8.4-18.7-18.7-18.7-7.6,1.3-10.7,3.4l-2.8-2.8ZM140,622.6c0-1.4.3-2.8.9-4l-2.9-2.9c-1.2,2-1.9,4.4-1.9,6.9,0,7.4,6,13.5,13.5,13.5s13.5-6.1,13.5-13.5-6-13.5-13.5-13.5-4.9.7-6.9,1.9l2.9,2.9c1.2-.6,2.6-.9,4-.9,5.3,0,9.5,4.3,9.5,9.6s-4.3,9.6-9.5,9.6-9.5-4.3-9.5-9.6ZM122.1,600l5.3,5.3h3l16,16c-.2.4-.3.8-.3,1.3,0,1.9,1.5,3.4,3.4,3.4s3.4-1.5,3.4-3.4-1.5-3.4-3.4-3.4-.9,0-1.3.3l-16-16.1v-2.8l-5.3-5.3v4.7h-4.7Z"/>
    </g>
    <g id="txt1">
      <path class="st21" d="M43.7,628.7v-29.5l4.8,4.6h-10.5v-8.5h17v33.4h-11.3Z"/>
      <g>
        <path class="st21" d="M18,581.7v-13h6.3c1.2,0,2.3.2,3.2.6.9.4,1.6,1,2.1,1.7s.7,1.6.7,2.6-.2,1.9-.7,2.6-1.2,1.3-2.1,1.7c-.9.4-1.9.6-3.2.6h-3.8l2-1.9v5.1h-4.4ZM22.4,577.1l-2-2h3.6c.6,0,1.1-.1,1.3-.4s.4-.6.4-1.1-.1-.8-.4-1.1-.7-.4-1.3-.4h-3.6l2-2v7Z"/>
        <path class="st21" d="M34.7,581.9c-.8,0-1.5-.1-2.1-.4s-1-.7-1.3-1.1c-.3-.5-.4-1-.4-1.6s.2-1.2.5-1.7c.3-.5.8-.8,1.5-1,.7-.2,1.6-.4,2.6-.4h2.1v2h-1.5c-.4,0-.8,0-1,.2s-.3.4-.3.6,0,.4.3.6c.2.2.4.2.7.2s.5,0,.8-.2c.2-.2.4-.4.5-.7l.5,1.2c-.2.8-.5,1.3-1,1.7-.5.4-1.2.6-2.1.6ZM37.6,581.7v-1.8l-.3-.5v-3.4c0-.5-.2-.9-.5-1.1-.3-.3-.8-.4-1.5-.4s-.9,0-1.4.2c-.5.1-.9.3-1.2.6l-1.3-2.8c.6-.4,1.3-.7,2.1-.9.8-.2,1.6-.3,2.4-.3,1.8,0,3.1.4,4.1,1.2,1,.8,1.4,2,1.4,3.7v5.5h-3.9Z"/>
        <path class="st21" d="M47.3,581.9c-.9,0-1.7,0-2.6-.3-.8-.2-1.5-.4-2-.7l1.2-2.8c.5.3,1,.5,1.7.7.6.2,1.3.2,1.9.2s.9,0,1-.1c.2,0,.3-.2.3-.4s-.1-.3-.3-.3c-.2,0-.5-.1-.8-.2-.3,0-.7,0-1.1-.1-.4,0-.8-.1-1.3-.3s-.8-.3-1.2-.5c-.3-.2-.6-.5-.8-.9s-.3-.9-.3-1.4.2-1.2.6-1.8,1-.9,1.8-1.3c.8-.3,1.7-.5,2.9-.5s1.5,0,2.2.2,1.4.3,1.9.6l-1.2,2.8c-.5-.3-1-.5-1.5-.6-.5-.1-1-.2-1.4-.2s-.9,0-1.1.1-.3.2-.3.3.1.3.3.3.5.1.8.2c.3,0,.7,0,1.1.1.4,0,.8.1,1.2.3.4.1.8.3,1.1.5.3.2.6.5.8.9s.3.9.3,1.4-.2,1.2-.6,1.7c-.4.5-1,.9-1.8,1.3-.8.3-1.8.5-2.9.5Z"/>
        <path class="st21" d="M57.8,581.9c-.9,0-1.7,0-2.6-.3-.8-.2-1.5-.4-2-.7l1.2-2.8c.5.3,1,.5,1.7.7.6.2,1.3.2,1.9.2s.9,0,1-.1c.2,0,.3-.2.3-.4s-.1-.3-.3-.3c-.2,0-.5-.1-.8-.2-.3,0-.7,0-1.1-.1-.4,0-.8-.1-1.3-.3s-.8-.3-1.2-.5c-.3-.2-.6-.5-.8-.9s-.3-.9-.3-1.4.2-1.2.6-1.8,1-.9,1.8-1.3c.8-.3,1.7-.5,2.9-.5s1.5,0,2.2.2,1.4.3,1.9.6l-1.2,2.8c-.5-.3-1-.5-1.5-.6-.5-.1-1-.2-1.4-.2s-.9,0-1.1.1-.3.2-.3.3.1.3.3.3.5.1.8.2c.3,0,.7,0,1.1.1.4,0,.8.1,1.2.3.4.1.8.3,1.1.5.3.2.6.5.8.9s.3.9.3,1.4-.2,1.2-.6,1.7c-.4.5-1,.9-1.8,1.3-.8.3-1.8.5-2.9.5Z"/>
        <path class="st21" d="M69.7,581.9c-1.2,0-2.2-.2-3.1-.7-.9-.5-1.6-1.1-2.1-1.9-.5-.8-.8-1.7-.8-2.7s.3-1.9.8-2.7c.5-.8,1.2-1.4,2.1-1.9.9-.4,1.9-.7,3.1-.7s2.2.2,3.1.7c.9.4,1.6,1.1,2.1,1.9.5.8.8,1.7.8,2.7s-.3,1.9-.8,2.7c-.5.8-1.2,1.4-2.1,1.9s-1.9.7-3.1.7ZM69.7,578.6c.3,0,.6,0,.8-.2.2-.1.4-.4.6-.7.1-.3.2-.7.2-1.1s0-.8-.2-1.1c-.1-.3-.3-.5-.6-.7-.2-.1-.5-.2-.8-.2s-.6,0-.8.2c-.2.1-.4.4-.6.7-.1.3-.2.7-.2,1.1s0,.8.2,1.1c.1.3.3.5.6.7.2.1.5.2.8.2Z"/>
      </g>
    </g>
  </g>
  <g id="item2">
    <g id="bt2">
      <path id="bg2" class="st3" d="M221.5,393.6c34.7-5.3,67.2,17.2,74.9,50.9.4,1.6.7,3.2.9,4.8,5.6,36.6-19.8,70.9-56.6,76-35.3,4.9-68.6-19.4-74.7-54.5-6.3-36.4,18.1-70.7,54.2-77,.4,0,.9-.2,1.3-.2Z"/>
      <path id="shade2" class="st25" d="M220.7,394.2c34.7-5.3,67.2,17.2,74.9,50.9l-21.2,31.7c3.3-7.9,4.5-16.8,2.9-25.9-4.2-23.7-26.5-40.4-50.4-37.7-26.2,2.9-44.4,27-40.4,52.8s22.4,38.5,44.3,39.1c-8.7,0-17.4-2.5-25.1-7.7-11.1-7.4-17.9-18.9-19.8-31.1-1.7-10.9.6-22.5,7.1-32.3l26.4-39.5c.4,0,.9-.2,1.3-.2Z"/>
      <path id="circle2" class="st22" d="M276.9,451.3c1.6,9.1.5,18-2.9,25.9l-5.3,8c-8.8,13.2-23.4,20.3-38.2,20.3,0,0-.1,0-.2,0-21.9-.6-40.9-16.7-44.3-39.1-4-25.8,14.3-49.8,40.4-52.8s46.2,14,50.4,37.7Z"/>
      <g id="icon2">
        <g>
          <path class="st11" d="M253.5,426.2h-13.8c-1.6,0-3,1.3-3,3v2c-2.2,0-4,1.8-4,4s1.8,4,4,4v4.9h7.9v-2c0-1.1.9-2,2-2s2,.9,2,2v2h4.9c1.6,0,3-1.3,3-3v-11.9c0-1.6-1.3-3-3-3ZM254.5,441c0,.5-.4,1-1,1h-3c0-2.2-1.8-4-4-4s-4,1.8-4,4h-4v-4.9h-2c-1.1,0-2-.9-2-2s.9-2,2-2h2v-4c0-.5.4-1,1-1h13.8c.5,0,1,.4,1,1v11.9Z"/>
          <path class="st11" d="M236.7,446c-2.2,0-4,1.8-4,4h-4v-4.9h-2c-1.1,0-2-.9-2-2s.9-2,2-2h2v-8.9h-2.7c-10.5,0-19.1,8.6-19.1,19.1s2.6,11.1,7,14.8l3.9,3.2v2.7c-1.1.4,15.8-.2,15.8-.2l5.8-5.7c4.5-3.6,7-9,7-14.8v-1.3h-5.9c0-2.2-1.8-4-4-4ZM226.1,434.1h.7v4.9c-2.2,0-4,1.8-4,4s1.8,4,4,4v3h-4c0-2.2-1.8-4-4-4s-4,1.8-4,4h-5.9c.7-8.8,8.1-15.8,17.1-15.8ZM215.3,464.5c-3.8-3.1-6.1-7.7-6.3-12.6h7.9v-2c0-1.1.9-2,2-2s2,.9,2,2v2h5.9v4c-2.2,0-4,1.8-4,4s1.8,4,4,4v7.9h-6.9v-3.4l-4.6-3.8ZM238.3,464.5l-4.6,3.8v3.4h-4.9v-9.9h-2c-1.1,0-2-.9-2-2s.9-2,2-2h2v-5.9h5.9v-2c0-1.1.9-2,2-2s2,.9,2,2v2h5.9c-.2,4.9-2.4,9.5-6.3,12.6Z"/>
          <g id="icon21" data-name="icon2">
            <path class="st26" d="M211.9,476.8c.6,2.9,3.1,4.9,6,4.9h0c.9,5.6,6.1,9.4,11.7,8.6,4.4-.7,7.9-4.1,8.6-8.6h0c3.4,0,6.1-2.7,6.1-6.1,0-2.9-2.1-5.4-4.9-6,0,0-29.9-5.3-27.5,7.2ZM228,487.2c-3.3,0-6.2-2.3-6.9-5.5h13.8c-.7,3.2-3.6,5.5-6.9,5.5ZM241.1,475.6c0,1.6-1.3,2.9-2.9,2.9h-20.3c-1.6,0-2.9-1.3-3-2.9,0-1.6,1.3-2.9,2.9-3,0,0,0,0,0,0h20.3c1.6,0,2.9,1.3,2.9,2.9h0Z"/>
          </g>
        </g>
      </g>
    </g>
    <g id="txt2">
      <path class="st21" d="M117.5,466.1v-6.9l12.1-11.2c.8-.7,1.3-1.4,1.7-1.9.4-.5.6-1,.7-1.5.1-.4.2-.8.2-1.2,0-.8-.3-1.5-.8-1.9-.5-.5-1.4-.7-2.4-.7s-1.9.3-2.8.8c-.9.5-1.6,1.3-2.1,2.3l-8.5-4.2c1.2-2.3,3-4.2,5.4-5.6,2.4-1.4,5.4-2.1,9-2.1s5,.4,7,1.3c2,.9,3.6,2.1,4.8,3.6,1.1,1.6,1.7,3.4,1.7,5.5s-.1,2.2-.4,3.2c-.3,1.1-.8,2.2-1.6,3.4-.8,1.2-2.1,2.5-3.7,4l-9.1,8.3-1.8-3.9h17.3v8.7h-26.8Z"/>
      <g>
        <path class="st21" d="M101.4,419.1v-13h6.3c1.2,0,2.3.2,3.2.6.9.4,1.6,1,2.1,1.7s.7,1.6.7,2.6-.2,1.9-.7,2.6-1.2,1.3-2.1,1.7c-.9.4-1.9.6-3.2.6h-3.8l2-1.9v5.1h-4.4ZM105.8,414.5l-2-2h3.6c.6,0,1.1-.1,1.3-.4.3-.3.4-.6.4-1.1s-.1-.8-.4-1.1c-.3-.3-.7-.4-1.3-.4h-3.6l2-2v7Z"/>
        <path class="st21" d="M118.1,419.3c-.8,0-1.5-.1-2.1-.4-.6-.3-1-.7-1.3-1.1-.3-.5-.4-1-.4-1.6s.2-1.2.5-1.7c.3-.5.8-.8,1.5-1,.7-.2,1.6-.4,2.6-.4h2.1v2h-1.5c-.4,0-.8,0-1,.2s-.3.4-.3.6,0,.4.3.6c.2.2.4.2.7.2s.5,0,.8-.2c.2-.2.4-.4.5-.7l.5,1.2c-.2.8-.5,1.3-1,1.7-.5.4-1.2.6-2.1.6ZM121,419.1v-1.8l-.3-.5v-3.4c0-.5-.2-.9-.5-1.1-.3-.3-.8-.4-1.5-.4s-.9,0-1.4.2c-.5.1-.9.3-1.2.6l-1.3-2.8c.6-.4,1.3-.7,2.1-.9.8-.2,1.6-.3,2.4-.3,1.8,0,3.1.4,4.1,1.2,1,.8,1.4,2,1.4,3.7v5.5h-3.9Z"/>
        <path class="st21" d="M130.7,419.3c-.9,0-1.7,0-2.6-.3s-1.5-.4-2-.7l1.2-2.8c.5.3,1,.5,1.7.7.6.2,1.3.2,1.9.2s.9,0,1-.1c.2,0,.3-.2.3-.4s-.1-.3-.3-.3c-.2,0-.5-.1-.8-.2-.3,0-.7,0-1.1-.1-.4,0-.8-.1-1.3-.3-.4-.1-.8-.3-1.2-.5-.3-.2-.6-.5-.8-.9s-.3-.9-.3-1.4.2-1.2.6-1.8c.4-.5,1-.9,1.8-1.3.8-.3,1.7-.5,2.9-.5s1.5,0,2.2.2,1.4.3,1.9.6l-1.2,2.8c-.5-.3-1-.5-1.5-.6-.5-.1-1-.2-1.4-.2s-.9,0-1.1.1-.3.2-.3.3.1.3.3.3.5.1.8.2c.3,0,.7,0,1.1.1.4,0,.8.1,1.2.3.4.1.8.3,1.1.5.3.2.6.5.8.9.2.4.3.9.3,1.4s-.2,1.2-.6,1.7c-.4.5-1,1-1.8,1.3-.8.3-1.8.5-2.9.5Z"/>
        <path class="st21" d="M141.3,419.3c-.9,0-1.7,0-2.6-.3s-1.5-.4-2-.7l1.2-2.8c.5.3,1,.5,1.7.7.6.2,1.3.2,1.9.2s.9,0,1-.1c.2,0,.3-.2.3-.4s-.1-.3-.3-.3c-.2,0-.5-.1-.8-.2-.3,0-.7,0-1.1-.1-.4,0-.8-.1-1.3-.3-.4-.1-.8-.3-1.2-.5-.3-.2-.6-.5-.8-.9s-.3-.9-.3-1.4.2-1.2.6-1.8c.4-.5,1-.9,1.8-1.3.8-.3,1.7-.5,2.9-.5s1.5,0,2.2.2,1.4.3,1.9.6l-1.2,2.8c-.5-.3-1-.5-1.5-.6-.5-.1-1-.2-1.4-.2s-.9,0-1.1.1-.3.2-.3.3.1.3.3.3.5.1.8.2c.3,0,.7,0,1.1.1.4,0,.8.1,1.2.3.4.1.8.3,1.1.5.3.2.6.5.8.9.2.4.3.9.3,1.4s-.2,1.2-.6,1.7c-.4.5-1,1-1.8,1.3-.8.3-1.8.5-2.9.5Z"/>
        <path class="st21" d="M153.2,419.3c-1.2,0-2.2-.2-3.1-.7-.9-.5-1.6-1.1-2.1-1.9-.5-.8-.8-1.7-.8-2.7s.3-1.9.8-2.7c.5-.8,1.2-1.4,2.1-1.9.9-.4,1.9-.7,3.1-.7s2.2.2,3.1.7c.9.4,1.6,1.1,2.1,1.9.5.8.8,1.7.8,2.7s-.3,1.9-.8,2.7c-.5.8-1.2,1.4-2.1,1.9s-1.9.7-3.1.7ZM153.2,416.1c.3,0,.6,0,.8-.2.2-.1.4-.4.6-.7.1-.3.2-.7.2-1.1s0-.8-.2-1.1c-.1-.3-.3-.5-.6-.7-.2-.1-.5-.2-.8-.2s-.6,0-.8.2c-.2.1-.4.4-.6.7-.1.3-.2.7-.2,1.1s0,.8.2,1.1c.1.3.3.5.6.7.2.1.5.2.8.2Z"/>
      </g>
    </g>
  </g>
  <g id="item3">
    <g id="bt3">
      <path id="bg3" class="st8" d="M358.4,269.5c34.7-5.3,67.2,17.2,74.9,50.9.4,1.6.7,3.2.9,4.8,5.6,36.6-19.8,70.9-56.6,76-35.3,4.9-68.6-19.4-74.7-54.5-6.3-36.4,18.1-70.7,54.2-77,.4,0,.9-.2,1.3-.2Z"/>
      <path id="shade3" class="st25" d="M357.5,270.2c34.7-5.3,67.2,17.2,74.9,50.9l-21.2,31.7c3.3-7.9,4.5-16.8,2.9-25.9-4.2-23.7-26.5-40.4-50.4-37.7-26.2,2.9-44.4,27-40.4,52.8s22.4,38.5,44.3,39.1c-8.7,0-17.4-2.5-25.1-7.7-11.1-7.4-17.9-18.9-19.8-31.1-1.7-10.9.6-22.5,7.1-32.3l26.4-39.5c.4,0,.9-.2,1.3-.2Z"/>
      <path id="circle3" class="st22" d="M413.8,327.3c1.6,9.1.5,18-2.9,25.9l-5.3,8c-8.8,13.2-23.4,20.3-38.2,20.3,0,0-.1,0-.2,0-21.9-.6-40.9-16.7-44.3-39.1-4-25.8,14.3-49.8,40.4-52.8s46.2,14,50.4,37.7Z"/>
      <path id="icon3" class="st26" d="M369.2,302.4c-12.9,0-23.4,10.4-23.4,23.3,0,0,0,0,0,.1,0,6.2,2.4,12.2,6.8,16.6l5.6,5.6c-3.2.6-5.3,3.8-4.6,7,.6,2.8,3,4.8,5.8,4.8h0c.9,5.4,5.9,9.2,11.4,8.3,4.3-.7,7.6-4,8.3-8.3h0c3.3,0,5.9-2.7,5.9-5.9,0-2.8-2-5.3-4.8-5.8l5.6-5.6c9.1-9.2,9.1-24,0-33.1-4.4-4.4-10.4-6.9-16.6-6.8h0ZM369.2,365c-3.2,0-6-2.2-6.7-5.3h13.4c-.7,3.1-3.5,5.3-6.7,5.3ZM381.9,353.7c0,1.6-1.3,2.8-2.8,2.8h-19.7c-1.6,0-2.9-1.3-2.9-2.8,0-1.6,1.3-2.9,2.8-2.9,0,0,0,0,0,0h19.7c1.6,0,2.8,1.3,2.8,2.8h0ZM383.6,340.2l-7.6,7.6h-13.5l-7.6-7.6c-7.9-7.9-7.9-20.8,0-28.8,7.9-7.9,20.8-7.9,28.8,0s7.9,20.8,0,28.8ZM369.2,312.4c-7.5,0-13.5,6.1-13.5,13.5s6.1,13.5,13.5,13.5,13.5-6.1,13.5-13.5h0c0-7.5-6.1-13.5-13.5-13.5ZM369.2,336.4c-5.8,0-10.4-4.7-10.4-10.4s4.7-10.4,10.4-10.4c5.8,0,10.4,4.7,10.4,10.4h0c0,5.8-4.7,10.4-10.4,10.4h0ZM375.9,320.6c.6.6.6,1.6,0,2.2l-8.1,8.5c-.3.3-.7.5-1.1.5,0,0,0,0-.1,0-.5,0-.9-.3-1.1-.7l-3.3-4.8c-.5-.7-.3-1.7.4-2.1.7-.5,1.7-.3,2.1.4l2.2,3.2,6.8-7.1c.6-.6,1.6-.6,2.2,0h0Z"/>
    </g>
    <g id="txt3">
      <path class="st21" d="M267.9,342.8c-2.3,0-4.6-.3-7-.8-2.4-.5-4.4-1.3-6.2-2.2l3.8-8.3c1.4.8,2.9,1.4,4.5,1.8,1.6.4,3.1.6,4.5.6s2.3-.2,3.1-.6c.8-.4,1.2-1.1,1.2-1.9s-.3-1.3-.9-1.7c-.6-.4-1.6-.6-3.1-.6h-4.4v-6.9l8.6-8.8,1,3.8h-16.7v-8.5h24.9v6.9l-8.6,8.8-5.4-3.1h3c4.2,0,7.4.9,9.6,2.8,2.2,1.9,3.3,4.3,3.3,7.3s-.5,3.7-1.6,5.5c-1.1,1.8-2.7,3.2-5,4.3-2.2,1.1-5.1,1.7-8.7,1.7Z"/>
      <g>
        <path class="st21" d="M238.3,295.1v-13h6.3c1.2,0,2.3.2,3.2.6.9.4,1.6,1,2.1,1.7s.7,1.6.7,2.6-.2,1.9-.7,2.6-1.2,1.3-2.1,1.7c-.9.4-1.9.6-3.2.6h-3.8l2-1.9v5.1h-4.4ZM242.7,290.5l-2-2h3.6c.6,0,1.1-.1,1.3-.4s.4-.6.4-1.1-.1-.8-.4-1.1-.7-.4-1.3-.4h-3.6l2-2v7Z"/>
        <path class="st21" d="M255,295.3c-.8,0-1.5-.1-2.1-.4-.6-.3-1-.7-1.3-1.1-.3-.5-.4-1-.4-1.6s.2-1.2.5-1.7c.3-.5.8-.8,1.5-1s1.6-.4,2.6-.4h2.1v2h-1.5c-.4,0-.8,0-1,.2s-.3.4-.3.6,0,.4.3.6c.2.2.4.2.7.2s.5,0,.8-.2c.2-.2.4-.4.5-.7l.5,1.2c-.2.8-.5,1.3-1,1.7-.5.4-1.2.6-2.1.6ZM257.9,295.1v-1.8l-.3-.5v-3.4c0-.5-.2-.9-.5-1.1-.3-.3-.8-.4-1.5-.4s-.9,0-1.4.2c-.5.1-.9.3-1.2.6l-1.3-2.8c.6-.4,1.3-.7,2.1-.9.8-.2,1.6-.3,2.4-.3,1.8,0,3.1.4,4.1,1.2,1,.8,1.4,2,1.4,3.7v5.5h-3.9Z"/>
        <path class="st21" d="M267.6,295.3c-.9,0-1.7,0-2.6-.3-.8-.2-1.5-.4-2-.7l1.2-2.8c.5.3,1,.5,1.7.7.6.2,1.3.2,1.9.2s.9,0,1-.1c.2,0,.3-.2.3-.4s-.1-.3-.3-.3c-.2,0-.5-.1-.8-.2-.3,0-.7,0-1.1-.1-.4,0-.8-.1-1.3-.3s-.8-.3-1.2-.5c-.3-.2-.6-.5-.8-.9-.2-.4-.3-.9-.3-1.4s.2-1.2.6-1.8c.4-.5,1-.9,1.8-1.3.8-.3,1.7-.5,2.9-.5s1.5,0,2.2.2,1.4.3,1.9.6l-1.2,2.8c-.5-.3-1-.5-1.5-.6-.5-.1-1-.2-1.4-.2s-.9,0-1.1.1c-.2,0-.3.2-.3.3s.1.3.3.3c.2,0,.5.1.8.2.3,0,.7,0,1.1.1.4,0,.8.1,1.2.3.4.1.8.3,1.1.5.3.2.6.5.8.9.2.4.3.9.3,1.4s-.2,1.2-.6,1.7c-.4.5-1,.9-1.8,1.3-.8.3-1.8.5-2.9.5Z"/>
        <path class="st21" d="M278.1,295.3c-.9,0-1.7,0-2.6-.3-.8-.2-1.5-.4-2-.7l1.2-2.8c.5.3,1,.5,1.7.7.6.2,1.3.2,1.9.2s.9,0,1-.1c.2,0,.3-.2.3-.4s-.1-.3-.3-.3c-.2,0-.5-.1-.8-.2-.3,0-.7,0-1.1-.1-.4,0-.8-.1-1.3-.3s-.8-.3-1.2-.5c-.3-.2-.6-.5-.8-.9-.2-.4-.3-.9-.3-1.4s.2-1.2.6-1.8c.4-.5,1-.9,1.8-1.3.8-.3,1.7-.5,2.9-.5s1.5,0,2.2.2,1.4.3,1.9.6l-1.2,2.8c-.5-.3-1-.5-1.5-.6-.5-.1-1-.2-1.4-.2s-.9,0-1.1.1c-.2,0-.3.2-.3.3s.1.3.3.3c.2,0,.5.1.8.2.3,0,.7,0,1.1.1.4,0,.8.1,1.2.3.4.1.8.3,1.1.5.3.2.6.5.8.9.2.4.3.9.3,1.4s-.2,1.2-.6,1.7c-.4.5-1,.9-1.8,1.3-.8.3-1.8.5-2.9.5Z"/>
        <path class="st21" d="M290,295.3c-1.2,0-2.2-.2-3.1-.7-.9-.5-1.6-1.1-2.1-1.9-.5-.8-.8-1.7-.8-2.7s.3-1.9.8-2.7c.5-.8,1.2-1.4,2.1-1.9.9-.4,1.9-.7,3.1-.7s2.2.2,3.1.7,1.6,1.1,2.1,1.9c.5.8.8,1.7.8,2.7s-.3,1.9-.8,2.7c-.5.8-1.2,1.4-2.1,1.9s-1.9.7-3.1.7ZM290,292c.3,0,.6,0,.8-.2.2-.1.4-.4.6-.7.1-.3.2-.7.2-1.1s0-.8-.2-1.1c-.1-.3-.3-.5-.6-.7-.2-.1-.5-.2-.8-.2s-.6,0-.8.2c-.2.1-.4.4-.6.7-.1.3-.2.7-.2,1.1s0,.8.2,1.1c.1.3.3.5.6.7.2.1.5.2.8.2Z"/>
      </g>
    </g>
  </g>
  <g id="item4">
    <g id="bt4">
      <path id="bg11" data-name="bg1" class="st7" d="M550.7,181c34.7-5.3,67.2,17.2,74.9,50.9.4,1.6.7,3.2.9,4.8,5.6,36.6-19.8,70.9-56.6,76-35.3,4.9-68.6-19.4-74.7-54.5-6.3-36.4,18.1-70.7,54.2-77,.4,0,.9-.2,1.3-.2Z"/>
      <path id="shade11" data-name="shade1" class="st25" d="M549.9,181.7c34.7-5.3,67.2,17.2,74.9,50.9l-21.2,31.7c3.3-7.9,4.5-16.8,2.9-25.9-4.2-23.7-26.5-40.4-50.4-37.7-26.2,2.9-44.4,27-40.4,52.8s22.4,38.5,44.3,39.1c-8.7,0-17.4-2.5-25.1-7.7-11.1-7.4-17.9-18.9-19.8-31.1s.6-22.5,7.1-32.3l26.4-39.5c.4,0,.9-.2,1.3-.2Z"/>
      <path id="circle11" data-name="circle1" class="st22" d="M606.1,238.8c1.6,9.1.5,18-2.9,25.9l-5.3,8c-8.8,13.2-23.4,20.3-38.2,20.3,0,0-.1,0-.2,0-21.9-.6-40.9-16.7-44.3-39.1-4-25.8,14.3-49.8,40.4-52.8s46.2,14,50.4,37.7Z"/>
      <g id="icons">
        <g>
          <g>
            <path class="st11" d="M579.6,265.7c-.5,0-.9-.4-.9-.9v-24.6c0-.5.4-.9.9-.9s.9.4.9.9v24.6c0,.5-.4.9-.9.9Z"/>
            <path class="st11" d="M569.2,275.9h-28.4c-2.5,0-4.5-2-4.5-4.5v-48.6c0-2.5,2-4.5,4.5-4.5h35.2c2.5,0,4.5,2,4.5,4.5s-.4.9-.9.9-.9-.4-.9-.9c0-1.5-1.2-2.7-2.7-2.7h-35.2c-1.5,0-2.7,1.2-2.7,2.7v48.6c0,1.5,1.2,2.7,2.7,2.7h28.4c.5,0,.9.4.9.9s-.4.9-.9.9h0Z"/>
            <path class="st11" d="M569.3,275.9c-.6,0-1-.4-1-.9v-6.8c0-2.3,1.9-4.2,4.2-4.2h6.9c.4,0,.7.2.8.5.2.4,0,.7-.2,1l-10.2,10.2c-.2.2-.4.3-.6.3h0ZM572.6,265.7c-1.3,0-2.4,1.1-2.4,2.4v4.8l7.2-7.2h-4.8Z"/>
          </g>
          <path class="st10" d="M555.3,235.2h-10.4c-1.3,0-2.5-1.2-2.5-2.5v-.4c0-1.3,1.2-2.5,2.5-2.5h10.4c1.3,0,2.5,1.2,2.5,2.5v.4c0,1.3-1.2,2.5-2.5,2.5Z"/>
          <path class="st10" d="M570.8,245.8h-8.7c-1.3,0-2.5-1.2-2.5-2.5v-.4c0-1.3,1.2-2.5,2.5-2.5h8.7c1.3,0,2.5,1.2,2.5,2.5v.4c0,1.4-1.1,2.5-2.5,2.5Z"/>
          <path class="st11" d="M550.1,238.8c-.5,0-.9-.4-.9-.9v-2c0-.5.4-.9.9-.9s.9.4.9.9v2c0,.5-.4.9-.9.9Z"/>
          <path class="st10" d="M555.3,271.1h-10.4c-1.3,0-2.5-1.2-2.5-2.5v-.4c0-1.3,1.2-2.5,2.5-2.5h10.4c1.3,0,2.5,1.2,2.5,2.5v.4c0,1.3-1.2,2.5-2.5,2.5Z"/>
          <path class="st11" d="M550.1,265.5c-.5,0-.9-.4-.9-.9v-1.6c0-.5.4-.9.9-.9s.9.4.9.9v1.6c0,.5-.4.9-.9.9Z"/>
          <path class="st11" d="M558.6,244.1h-1.7c-.5,0-.9-.4-.9-.9s.4-.9.9-.9h1.7c.5,0,.9.4.9.9s-.4.9-.9.9Z"/>
          <path class="st10" d="M570.8,260.2h-8.7c-1.3,0-2.5-1.2-2.5-2.5v-.4c0-1.3,1.2-2.5,2.5-2.5h8.7c1.3,0,2.5,1.2,2.5,2.5v.4h0c-.2,1.5-1.2,2.5-2.5,2.5Z"/>
          <path class="st11" d="M559.1,258.4h-2.2c-.5,0-.9-.4-.9-.9s.4-.9.9-.9h2.2c.5,0,.9.4.9.9s-.4.9-.9.9Z"/>
          <path class="st11" d="M550.1,253.1c-.5,0-.9-.4-.9-.9v-3.6c0-.5.4-.9.9-.9s.9.4.9.9v3.6c0,.5-.4.9-.9.9Z"/>
          <path class="st11" d="M550.1,249.5c-.2,0-.4,0-.5-.2l-6.7-5.4c-.2-.2-.4-.4-.4-.7s0-.5.4-.7l6.7-5.4c.4-.3.8-.3,1.1,0l6.7,5.4c.2.2.4.4.4.7s0,.5-.4.7l-6.7,5.4c-.2,0-.4.2-.5.2ZM544.8,243.2l5.3,4.2,5.3-4.2-5.3-4.2-5.3,4.2Z"/>
          <path class="st11" d="M550.1,263.8c-.2,0-.4,0-.5-.2l-6.7-5.4c-.2-.2-.4-.4-.4-.7s0-.5.4-.7l6.7-5.4c.4-.3.8-.3,1.1,0l6.7,5.4c.2.2.4.4.4.7s0,.5-.4.7l-6.7,5.4c-.2,0-.4.2-.5.2ZM544.8,257.5l5.3,4.2,5.3-4.2-5.3-4.2-5.3,4.2Z"/>
          <path class="st11" d="M555.6,226.2h-12.2c-.5,0-.9-.4-.9-.9s.4-.9.9-.9h12.2c.5,0,.9.4.9.9s-.4.9-.9.9Z"/>
          <path class="st26" d="M584.3,241.4c-.4,0-.8-.3-.9-.7-.2-.8-.6-1.2-.7-1.2-.2,0-.5.4-.7,1.2,0,.4-.5.8-1.1.7-1.6-.4-2.9-.9-4-1.7-.4-.3-.4-.7-.3-1.2.4-.7.4-1.3.4-1.3-.2-.2-.7,0-1.3.3-.4.3-1,.2-1.3-.3-.8-1.2-1.3-2.5-1.6-3.9,0-.4.2-.9.6-1.1.8-.2,1.2-.6,1.2-.7,0-.2-.4-.5-1.2-.7-.4,0-.8-.5-.7-1.1.4-1.6.9-3,1.7-4,.3-.4.7-.4,1.2-.3.7.4,1.3.4,1.3.4.2-.2,0-.7-.3-1.3-.2-.2-.2-.4-.2-.7s.2-.4.4-.5c1.2-.8,2.5-1.3,3.9-1.6.4,0,.9.2,1.1.6.2.8.6,1.2.7,1.2.2,0,.5-.4.7-1.2,0-.4.5-.8,1.1-.7,1.6.4,2.9.9,4,1.7.4.3.4.7.3,1.2-.4.7-.4,1.3-.4,1.3.2.2.7,0,1.3-.3.4-.3,1-.2,1.3.3.8,1.2,1.3,2.5,1.6,3.9,0,.4-.2.9-.6,1.1-.8.2-1.2.6-1.2.7,0,.4.4.6,1.2.8.4,0,.8.5.7,1.1-.4,1.7-.9,3-1.7,4-.3.4-.7.4-1.2.2-.7-.4-1.3-.4-1.3-.4-.2.2,0,.7.3,1.3.2.2.2.4.2.7s-.2.4-.4.5c-1.2.8-2.5,1.3-3.9,1.6q0,.2-.2.2h0ZM578.6,238.6c.5.4,1.2.6,1.9.8.4-1.1,1.3-1.7,2.2-1.7s1.7.6,2.2,1.7c.6-.2,1.3-.4,1.8-.8-.4-1.1-.3-2.1.4-2.7s1.6-.7,2.8-.3c.4-.5.5-1.2.8-1.9-1.1-.4-1.7-1.3-1.7-2.3s.6-1.7,1.7-2.2c-.2-.6-.4-1.3-.8-1.8-1.1.4-2.1.3-2.7-.4s-.7-1.6-.3-2.7c-.5-.4-1.2-.6-1.9-.8-.4,1.1-1.3,1.7-2.2,1.7s-1.7-.6-2.2-1.7c-.6.2-1.3.4-1.8.8.4,1.1.3,2.1-.4,2.7s-1.6.7-2.7.3c-.4.5-.6,1.2-.8,2,1.1.4,1.7,1.3,1.7,2.2s-.6,1.7-1.7,2.2c.2.6.4,1.3.8,1.8,1.1-.4,2.1-.3,2.7.4.4.6.5,1.6.2,2.7Z"/>
          <path class="st11" d="M582.6,236.8c-1.3,0-2.5-.4-3.5-1.3-1.1-.9-1.7-2.2-1.8-3.7-.2-2.9,2.1-5.5,4.9-5.7s5.5,2.1,5.7,4.9c0,1.4-.4,2.8-1.3,3.9-.9,1.1-2.2,1.7-3.7,1.8,0,0-.2,0-.3,0ZM582.4,228c-1.9,0-3.4,1.8-3.3,3.7,0,.9.4,1.8,1.2,2.4s1.6.9,2.5.9c.9,0,1.8-.4,2.4-1.2s.9-1.6.9-2.5c0-2-1.8-3.4-3.7-3.3Z"/>
        </g>
      </g>
    </g>
    <g id="txt4">
      <path class="st21" d="M445.4,247.9v-7.2l14.2-20.5h11.6l-13.7,20.5-5.3-1.6h25.9v8.7h-32.7ZM462.7,253.6v-5.7l.3-8.7v-5.1h10.6v19.6h-10.9Z"/>
      <g>
        <path class="st21" d="M430.6,206.6v-13h6.3c1.2,0,2.3.2,3.2.6.9.4,1.6,1,2.1,1.7s.7,1.6.7,2.6-.2,1.9-.7,2.6-1.2,1.3-2.1,1.7c-.9.4-1.9.6-3.2.6h-3.8l2-1.9v5.1h-4.4ZM435,202l-2-2h3.6c.6,0,1.1-.1,1.3-.4s.4-.6.4-1.1-.1-.8-.4-1.1-.7-.4-1.3-.4h-3.6l2-2v7Z"/>
        <path class="st21" d="M447.3,206.8c-.8,0-1.5-.1-2.1-.4-.6-.3-1-.7-1.3-1.1-.3-.5-.4-1-.4-1.6s.2-1.2.5-1.7c.3-.5.8-.8,1.5-1s1.6-.4,2.6-.4h2.1v2h-1.5c-.4,0-.8,0-1,.2s-.3.4-.3.6,0,.4.3.6c.2.2.4.2.7.2s.5,0,.8-.2c.2-.2.4-.4.5-.7l.5,1.2c-.2.8-.5,1.3-1,1.7-.5.4-1.2.6-2.1.6ZM450.2,206.6v-1.8l-.3-.5v-3.4c0-.5-.2-.9-.5-1.1-.3-.3-.8-.4-1.5-.4s-.9,0-1.4.2c-.5.1-.9.3-1.2.6l-1.3-2.8c.6-.4,1.3-.7,2.1-.9.8-.2,1.6-.3,2.4-.3,1.8,0,3.1.4,4.1,1.2,1,.8,1.4,2,1.4,3.7v5.5h-3.9Z"/>
        <path class="st21" d="M459.9,206.8c-.9,0-1.7,0-2.6-.3-.8-.2-1.5-.4-2-.7l1.2-2.8c.5.3,1,.5,1.7.7.6.2,1.3.2,1.9.2s.9,0,1-.1c.2,0,.3-.2.3-.4s-.1-.3-.3-.3c-.2,0-.5-.1-.8-.2-.3,0-.7,0-1.1-.1-.4,0-.8-.1-1.3-.3s-.8-.3-1.2-.5c-.3-.2-.6-.5-.8-.9-.2-.4-.3-.9-.3-1.4s.2-1.2.6-1.8c.4-.5,1-.9,1.8-1.3.8-.3,1.7-.5,2.9-.5s1.5,0,2.2.2,1.4.3,1.9.6l-1.2,2.8c-.5-.3-1-.5-1.5-.6-.5-.1-1-.2-1.4-.2s-.9,0-1.1.1c-.2,0-.3.2-.3.3s.1.3.3.3c.2,0,.5.1.8.2.3,0,.7,0,1.1.1.4,0,.8.1,1.2.3.4.1.8.3,1.1.5.3.2.6.5.8.9.2.4.3.9.3,1.4s-.2,1.2-.6,1.7c-.4.5-1,.9-1.8,1.3-.8.3-1.8.5-2.9.5Z"/>
        <path class="st21" d="M470.4,206.8c-.9,0-1.7,0-2.6-.3-.8-.2-1.5-.4-2-.7l1.2-2.8c.5.3,1,.5,1.7.7.6.2,1.3.2,1.9.2s.9,0,1-.1c.2,0,.3-.2.3-.4s-.1-.3-.3-.3c-.2,0-.5-.1-.8-.2-.3,0-.7,0-1.1-.1-.4,0-.8-.1-1.3-.3s-.8-.3-1.2-.5c-.3-.2-.6-.5-.8-.9-.2-.4-.3-.9-.3-1.4s.2-1.2.6-1.8c.4-.5,1-.9,1.8-1.3.8-.3,1.7-.5,2.9-.5s1.5,0,2.2.2,1.4.3,1.9.6l-1.2,2.8c-.5-.3-1-.5-1.5-.6-.5-.1-1-.2-1.4-.2s-.9,0-1.1.1c-.2,0-.3.2-.3.3s.1.3.3.3c.2,0,.5.1.8.2.3,0,.7,0,1.1.1.4,0,.8.1,1.2.3.4.1.8.3,1.1.5.3.2.6.5.8.9.2.4.3.9.3,1.4s-.2,1.2-.6,1.7c-.4.5-1,.9-1.8,1.3-.8.3-1.8.5-2.9.5Z"/>
        <path class="st21" d="M482.3,206.8c-1.2,0-2.2-.2-3.1-.7-.9-.5-1.6-1.1-2.1-1.9-.5-.8-.8-1.7-.8-2.7s.3-1.9.8-2.7c.5-.8,1.2-1.4,2.1-1.9.9-.4,1.9-.7,3.1-.7s2.2.2,3.1.7,1.6,1.1,2.1,1.9c.5.8.8,1.7.8,2.7s-.3,1.9-.8,2.7c-.5.8-1.2,1.4-2.1,1.9s-1.9.7-3.1.7ZM482.3,203.5c.3,0,.6,0,.8-.2.2-.1.4-.4.6-.7.1-.3.2-.7.2-1.1s0-.8-.2-1.1c-.1-.3-.3-.5-.6-.7-.2-.1-.5-.2-.8-.2s-.6,0-.8.2c-.2.1-.4.4-.6.7-.1.3-.2.7-.2,1.1s0,.8.2,1.1c.1.3.3.5.6.7.2.1.5.2.8.2Z"/>
      </g>
    </g>
  </g>
  <g id="item5">
    <g id="bt5">
      <path id="bg5" class="st4" d="M739.7,181c34.7-5.3,67.2,17.2,74.9,50.9.4,1.6.7,3.2.9,4.8,5.6,36.6-19.8,70.9-56.6,76-35.3,4.9-68.6-19.4-74.7-54.5-6.3-36.4,18.1-70.7,54.2-77,.4,0,.9-.2,1.3-.2Z"/>
      <path id="shade5" class="st25" d="M738.9,181.7c34.7-5.3,67.2,17.2,74.9,50.9l-21.2,31.7c3.3-7.9,4.5-16.8,2.9-25.9-4.2-23.7-26.5-40.4-50.4-37.7-26.2,2.9-44.4,27-40.4,52.8,3.4,22.4,22.4,38.5,44.3,39.1-8.7,0-17.4-2.5-25.1-7.7-11.1-7.4-17.9-18.9-19.8-31.1s.6-22.5,7.1-32.3l26.4-39.5c.4,0,.9-.2,1.3-.2Z"/>
      <path id="circle5" class="st22" d="M795.2,238.8c1.6,9.1.5,18-2.9,25.9l-5.3,8c-8.8,13.2-23.4,20.3-38.2,20.3,0,0-.1,0-.2,0-21.9-.6-40.9-16.7-44.3-39.1-4-25.8,14.3-49.8,40.4-52.8,24-2.7,46.2,14,50.4,37.7Z"/>
      <g id="icon5">
        <g>
          <path class="st26" d="M755.9,226.7c1.3-1.2,2.1-2.9,2.1-4.8,0-3.6-2.9-6.5-6.5-6.5s-6.5,2.9-6.5,6.5.8,3.6,2.1,4.8c-3.8.7-6.8,4.1-6.8,8.2v3.7c0,.5.4.9.9.9h20.4c.5,0,.9-.4.9-.9v-3.7c0-4.1-2.9-7.5-6.8-8.2ZM746.9,221.9c0-2.6,2.1-4.6,4.6-4.6s4.6,2.1,4.6,4.6-2.1,4.6-4.6,4.6-4.6-2.1-4.6-4.6ZM760.8,237.7h-18.6v-2.8c0-3.6,2.9-6.5,6.5-6.5h5.6c3.6,0,6.5,2.9,6.5,6.5v2.8Z"/>
          <path class="st26" d="M761.7,240.6h-20.4c-1.1,0-1.9-.9-1.9-1.9v-3.7c0-3.9,2.4-7.4,6-8.7-.9-1.2-1.3-2.7-1.3-4.3,0-4.1,3.4-7.5,7.5-7.5s7.5,3.4,7.5,7.5-.5,3-1.3,4.3c3.5,1.4,6,4.8,6,8.7v3.7c0,1.1-.9,1.9-1.9,1.9ZM743.2,236.7h16.6v-1.8c0-3-2.5-5.5-5.5-5.5h-5.6c-3,0-5.5,2.5-5.5,5.5v1.8ZM752.8,227.4h1.4-.5c0,0,.5-.6.5-.6-.5.2-.9.4-1.5.6ZM748.8,227.4h1.4c-.5-.1-1-.3-1.5-.6l.5.5h-.5ZM751.5,218.3c-2,0-3.6,1.6-3.6,3.6s1.6,3.6,3.6,3.6,3.6-1.6,3.6-3.6-1.6-3.6-3.6-3.6Z"/>
        </g>
        <g>
          <path class="st26" d="M739.2,258.3c1.3-1.2,2.1-2.9,2.1-4.8,0-3.6-2.9-6.5-6.5-6.5s-6.5,2.9-6.5,6.5.8,3.6,2.1,4.8c-3.8.7-6.8,4.1-6.8,8.2v3.7c0,.5.4.9.9.9h20.4c.5,0,.9-.4.9-.9v-3.7c0-4.1-2.9-7.5-6.8-8.2ZM730.2,253.5c0-2.6,2.1-4.6,4.6-4.6s4.6,2.1,4.6,4.6-2.1,4.6-4.6,4.6-4.6-2.1-4.6-4.6ZM744.1,269.3h-18.6v-2.8c0-3.6,2.9-6.5,6.5-6.5h5.6c3.6,0,6.5,2.9,6.5,6.5v2.8Z"/>
          <path class="st26" d="M745,272.1h-20.4c-1.1,0-1.9-.9-1.9-1.9v-3.7c0-3.9,2.4-7.4,6-8.7-.9-1.2-1.3-2.7-1.3-4.3,0-4.1,3.4-7.5,7.5-7.5s7.5,3.4,7.5,7.5-.5,3-1.3,4.3c3.5,1.4,6,4.8,6,8.7v3.7c0,1.1-.9,1.9-1.9,1.9ZM726.5,268.3h16.6v-1.8c0-3-2.5-5.5-5.5-5.5h-5.6c-3,0-5.5,2.5-5.5,5.5v1.8ZM736.1,259h1.4-.5c0,0,.5-.6.5-.6-.5.3-.9.4-1.5.6ZM732.1,259h1.4c-.5-.1-1-.3-1.5-.6l.5.5h-.5ZM734.8,249.8c-2,0-3.6,1.6-3.6,3.6s1.6,3.6,3.6,3.6,3.6-1.6,3.6-3.6-1.6-3.6-3.6-3.6Z"/>
        </g>
        <g>
          <path class="st26" d="M772.6,258.3c1.3-1.2,2.1-2.9,2.1-4.8,0-3.6-2.9-6.5-6.5-6.5s-6.5,2.9-6.5,6.5.8,3.6,2.1,4.8c-3.8.7-6.8,4.1-6.8,8.2v3.7c0,.5.4.9.9.9h20.4c.5,0,.9-.4.9-.9v-3.7c0-4.1-2.9-7.5-6.8-8.2ZM763.6,253.5c0-2.6,2.1-4.6,4.6-4.6s4.6,2.1,4.6,4.6-2.1,4.6-4.6,4.6-4.6-2.1-4.6-4.6ZM777.5,269.3h-18.6v-2.8c0-3.6,2.9-6.5,6.5-6.5h5.6c3.6,0,6.5,2.9,6.5,6.5v2.8Z"/>
          <path class="st26" d="M778.4,272.1h-20.4c-1.1,0-1.9-.9-1.9-1.9v-3.7c0-3.9,2.4-7.4,6-8.7-.9-1.2-1.3-2.7-1.3-4.3,0-4.1,3.4-7.5,7.5-7.5s7.5,3.4,7.5,7.5-.5,3-1.3,4.3c3.5,1.4,6,4.8,6,8.7v3.7c0,1.1-.9,1.9-1.9,1.9ZM759.9,268.3h16.6v-1.8c0-3-2.5-5.5-5.5-5.5h-5.6c-3,0-5.5,2.5-5.5,5.5v1.8ZM769.5,259h1.4-.5c0,0,.5-.6.5-.6-.5.3-.9.4-1.5.6ZM765.5,259h1.4c-.5-.1-1-.3-1.5-.6l.5.5h-.5ZM768.2,249.8c-2,0-3.6,1.6-3.6,3.6s1.6,3.6,3.6,3.6,3.6-1.6,3.6-3.6-1.6-3.6-3.6-3.6Z"/>
        </g>
        <g>
          <path class="st26" d="M729.3,245.1h-1.9c0,.7,0,1.4.2,2l1.8-.2c0-.6-.1-1.2-.1-1.8Z"/>
          <path class="st26" d="M726.7,248.2v-1c-.2-.7-.3-1.3-.3-2v-1s3.8-.1,3.8-.1v1c0,.6.1,1.1.2,1.7v1c.1,0-3.7.5-3.7.5Z"/>
        </g>
        <g>
          <path class="st26" d="M727.6,241.3c0,.6-.1,1.3-.2,1.9h1.9c0-.5,0-1.1.1-1.7l-1.8-.2Z"/>
          <path class="st26" d="M730.2,244.4h-3.9c0-.1,0-1.1,0-1.1,0-.7,0-1.3.2-2v-1c.1,0,3.9.5,3.9.5v1c-.2.6-.2,1.1-.3,1.7v1Z"/>
        </g>
        <g>
          <path class="st26" d="M736.9,225c-.5.4-1,.8-1.5,1.2l1.2,1.4c.4-.4.9-.8,1.4-1.1l-1.1-1.5Z"/>
          <path class="st26" d="M736.6,229l-2.6-2.9.7-.7c.5-.4,1-.9,1.5-1.3l.8-.6,2.3,3.1-.8.6c-.4.3-.9.7-1.3,1.1l-.7.7Z"/>
        </g>
        <g>
          <path class="st26" d="M729.7,233.9c-.3.6-.5,1.2-.8,1.8l1.7.7c.2-.6.4-1.1.7-1.6l-1.7-.8Z"/>
          <path class="st26" d="M731.3,237.7l-3.6-1.4.4-.9c.2-.6.5-1.2.8-1.9l.4-.9,3.5,1.6-.4.9c-.2.5-.5,1-.7,1.6l-.4.9Z"/>
        </g>
        <g>
          <path class="st26" d="M728.3,237.6c-.2.6-.3,1.2-.5,1.9l1.8.4c.1-.6.3-1.2.4-1.7l-1.8-.5Z"/>
          <path class="st26" d="M730.5,241l-3.8-.8.2-1c.1-.7.3-1.3.5-2l.3-1,3.7,1.1-.3,1c-.2.5-.3,1.1-.4,1.6l-.2,1Z"/>
        </g>
        <g>
          <path class="st26" d="M734,227.6c-.4.5-.9,1-1.3,1.4l1.4,1.2c.4-.5.8-.9,1.2-1.3l-1.3-1.3Z"/>
          <path class="st26" d="M734.4,231.6l-3-2.4.6-.8c.4-.5.9-1,1.3-1.5l.7-.7,2.8,2.7-.7.7c-.4.4-.8.8-1.1,1.3l-.6.8Z"/>
        </g>
        <g>
          <path class="st26" d="M740.1,222.9c-.6.3-1.1.6-1.7,1l1,1.6c.5-.3,1-.6,1.5-.9l-.9-1.6Z"/>
          <path class="st26" d="M739.2,226.9l-2.1-3.2.8-.5c.6-.4,1.2-.7,1.7-1l.9-.5,1.8,3.4-.9.5c-.5.3-1,.6-1.5.9l-.8.5Z"/>
        </g>
        <g>
          <path class="st26" d="M731.6,230.6c-.4.5-.7,1.1-1,1.6l1.6.9c.3-.5.6-1,.9-1.5l-1.5-1Z"/>
          <path class="st26" d="M732.6,234.5l-3.3-1.9.5-.9c.3-.6.7-1.1,1.1-1.7l.6-.8,3.2,2.2-.6.8c-.3.5-.6,1-.9,1.4l-.5.9Z"/>
        </g>
        <g>
          <path class="st26" d="M747.1,266l-.4,1.8c.6.1,1.3.2,1.9.3l.2-1.8c-.6,0-1.2-.2-1.8-.3Z"/>
          <path class="st26" d="M749.5,269.3h-1c-.7-.2-1.3-.3-2-.4l-1-.2.8-3.8,1,.2c.5.1,1.1.2,1.7.3h1c0,.1-.4,3.9-.4,3.9Z"/>
        </g>
        <g>
          <path class="st26" d="M756,266c-.6.1-1.2.2-1.8.3l.2,1.8c.6,0,1.3-.2,1.9-.3l-.4-1.8Z"/>
          <path class="st26" d="M753.6,269.3l-.5-3.8h1c.6-.2,1.1-.3,1.7-.4l1-.2.8,3.8-1,.2c-.7.1-1.3.2-2,.3h-1Z"/>
        </g>
        <g>
          <path class="st26" d="M752.4,266.5c-.6,0-1.2,0-1.8,0v1.9c.2,0,.5,0,.9,0,.3,0,.7,0,1,0v-1.9Z"/>
          <path class="st26" d="M751.5,269.3c-.3,0-.7,0-1,0h-1s.2-3.9.2-3.9h1c.5,0,1.1,0,1.7,0h1s.2,3.8.2,3.8h-1c-.3,0-.7,0-1,0h0Z"/>
        </g>
        <g>
          <path class="st26" d="M767.6,226.3l-1.2,1.4c.4.4.9.8,1.3,1.2l1.3-1.3c-.4-.5-.9-.9-1.4-1.3Z"/>
          <path class="st26" d="M767.6,230.3l-.7-.7c-.4-.4-.8-.8-1.2-1.2l-.7-.7,2.6-2.9.7.7c.5.4,1,.9,1.4,1.4l.7.7-2.8,2.6Z"/>
        </g>
        <g>
          <path class="st26" d="M770.3,229.1l-1.4,1.2c.4.5.7.9,1.1,1.4l1.5-1c-.4-.5-.8-1.1-1.2-1.5Z"/>
          <path class="st26" d="M769.7,233l-.6-.8c-.3-.5-.7-.9-1-1.4l-.6-.8,3-2.4.6.8c.4.5.8,1,1.2,1.6l.6.8-3.2,2.2Z"/>
        </g>
        <g>
          <path class="st26" d="M775.6,243.3h-1.9c0,.4,0,.7,0,1s0,.6,0,.9h1.9c0-.3,0-.6,0-.9s0-.6,0-1Z"/>
          <path class="st26" d="M776.6,246.2h-3.9c0-.1,0-1.1,0-1.1,0-.3,0-.6,0-.9s0-.6,0-.8v-1s3.8-.2,3.8-.2v1c0,.3,0,.7,0,1s0,.7,0,1v1Z"/>
        </g>
        <g>
          <path class="st26" d="M772.5,232.2l-1.6.9c.3.5.6,1,.8,1.6l1.7-.8c-.3-.6-.6-1.2-.9-1.7Z"/>
          <path class="st26" d="M771.2,236.1l-.4-.9c-.2-.5-.5-1-.8-1.5l-.5-.9,3.3-1.9.5.9c.3.6.6,1.2.9,1.8l.4.9-3.5,1.6Z"/>
        </g>
        <g>
          <path class="st26" d="M774.1,235.7l-1.7.7c.2.6.4,1.1.6,1.7l1.8-.5c-.2-.6-.4-1.2-.6-1.8Z"/>
          <path class="st26" d="M772.2,239.3l-.3-1c-.2-.5-.3-1.1-.5-1.6l-.4-.9,3.6-1.4.4.9c.2.6.5,1.3.6,1.9l.3,1-3.7,1.1Z"/>
        </g>
        <g>
          <path class="st26" d="M775.2,239.4l-1.8.4c.1.6.2,1.2.3,1.8l1.8-.2c0-.6-.2-1.3-.3-1.9Z"/>
          <path class="st26" d="M772.8,242.7v-1c-.2-.6-.3-1.1-.4-1.7l-.2-1,3.8-.8.2,1c.1.6.2,1.3.3,2v1c.1,0-3.7.5-3.7.5Z"/>
        </g>
        <g>
          <path class="st26" d="M764.6,223.9l-1,1.6c.5.3,1,.7,1.5,1l1.1-1.5c-.5-.4-1-.8-1.6-1.1Z"/>
          <path class="st26" d="M765.2,227.9l-.8-.6c-.4-.3-.9-.7-1.4-1l-.8-.5,2.1-3.2.8.5c.6.4,1.1.8,1.6,1.2l.8.6-2.3,3.1Z"/>
        </g>
        <g>
          <path class="st26" d="M761.2,222.1l-.7,1.7c.5.2,1.1.5,1.6.8l.9-1.6c-.6-.3-1.1-.6-1.7-.8Z"/>
          <path class="st26" d="M762.4,225.9l-.9-.5c-.5-.3-1-.5-1.5-.7l-.9-.4,1.5-3.5.9.4c.6.3,1.2.6,1.8.9l.9.5-1.8,3.4Z"/>
        </g>
      </g>
    </g>
    <g id="txt5">
      <path class="st21" d="M847.5,258.5c-2.3,0-4.6-.3-7-.8-2.4-.5-4.4-1.3-6.2-2.2l3.8-8.3c1.4.8,2.9,1.4,4.5,1.8,1.6.4,3,.6,4.4.6s2.3-.2,3.2-.7c.8-.4,1.2-1.1,1.2-2s-.1-.9-.4-1.3c-.3-.4-.8-.6-1.5-.8s-1.8-.3-3.1-.3h-9.7l1.7-20.3h22.2v8.5h-18.2l5.7-4.8-1,12.9-5.7-4.8h7.8c3.3,0,6,.5,7.9,1.4,2,1,3.4,2.2,4.3,3.8.9,1.6,1.4,3.4,1.4,5.4s-.5,3.9-1.6,5.7c-1.1,1.8-2.7,3.3-5,4.4s-5.1,1.7-8.7,1.7Z"/>
      <g>
        <path class="st21" d="M818.4,210.7v-13h6.3c1.2,0,2.3.2,3.2.6.9.4,1.6,1,2.1,1.7.5.7.7,1.6.7,2.6s-.2,1.9-.7,2.6c-.5.7-1.2,1.3-2.1,1.7s-1.9.6-3.2.6h-3.8l2-1.9v5.1h-4.4ZM822.8,206.1l-2-2h3.6c.6,0,1.1-.1,1.3-.4.3-.3.4-.6.4-1.1s-.1-.8-.4-1.1c-.3-.3-.7-.4-1.3-.4h-3.6l2-2v7Z"/>
        <path class="st21" d="M835.1,210.9c-.8,0-1.5-.1-2.1-.4-.6-.3-1-.7-1.3-1.1-.3-.5-.4-1-.4-1.6s.2-1.2.5-1.7c.3-.5.8-.8,1.5-1s1.6-.4,2.6-.4h2.1v2h-1.5c-.4,0-.8,0-1,.2s-.3.4-.3.6,0,.4.3.6c.2.2.4.2.7.2s.5,0,.8-.2c.2-.2.4-.4.5-.7l.5,1.2c-.2.8-.5,1.3-1,1.7-.5.4-1.2.6-2.1.6ZM838,210.7v-1.8l-.3-.5v-3.4c0-.5-.2-.9-.5-1.1-.3-.3-.8-.4-1.5-.4s-.9,0-1.4.2c-.5.1-.9.3-1.2.6l-1.3-2.8c.6-.4,1.3-.7,2.1-.9.8-.2,1.6-.3,2.4-.3,1.8,0,3.1.4,4.1,1.2,1,.8,1.4,2,1.4,3.7v5.5h-3.9Z"/>
        <path class="st21" d="M847.7,210.9c-.9,0-1.7,0-2.6-.3-.8-.2-1.5-.4-2-.7l1.2-2.8c.5.3,1,.5,1.7.7.6.2,1.3.2,1.9.2s.9,0,1-.1c.2,0,.3-.2.3-.4s-.1-.3-.3-.3-.5-.1-.8-.2c-.3,0-.7,0-1.1-.1-.4,0-.8-.1-1.3-.3s-.8-.3-1.2-.5c-.3-.2-.6-.5-.8-.9-.2-.4-.3-.9-.3-1.4s.2-1.2.6-1.8c.4-.5,1-.9,1.8-1.3.8-.3,1.7-.5,2.9-.5s1.5,0,2.2.2c.7.1,1.4.3,1.9.6l-1.2,2.8c-.5-.3-1-.5-1.5-.6s-1-.2-1.4-.2-.9,0-1.1.1c-.2,0-.3.2-.3.3s.1.3.3.3c.2,0,.5.1.8.2.3,0,.7,0,1.1.1.4,0,.8.1,1.2.3.4.1.8.3,1.1.5.3.2.6.5.8.9.2.4.3.9.3,1.4s-.2,1.2-.6,1.7c-.4.5-1,.9-1.8,1.3-.8.3-1.8.5-2.9.5Z"/>
        <path class="st21" d="M858.2,210.9c-.9,0-1.7,0-2.6-.3-.8-.2-1.5-.4-2-.7l1.2-2.8c.5.3,1,.5,1.7.7.6.2,1.3.2,1.9.2s.9,0,1-.1.3-.2.3-.4-.1-.3-.3-.3c-.2,0-.5-.1-.8-.2-.3,0-.7,0-1.1-.1-.4,0-.8-.1-1.3-.3s-.8-.3-1.2-.5c-.3-.2-.6-.5-.8-.9-.2-.4-.3-.9-.3-1.4s.2-1.2.6-1.8c.4-.5,1-.9,1.8-1.3.8-.3,1.7-.5,2.9-.5s1.5,0,2.2.2c.7.1,1.4.3,1.9.6l-1.2,2.8c-.5-.3-1-.5-1.5-.6-.5-.1-1-.2-1.4-.2s-.9,0-1.1.1c-.2,0-.3.2-.3.3s.1.3.3.3c.2,0,.5.1.8.2s.7,0,1.1.1c.4,0,.8.1,1.2.3s.8.3,1.1.5c.3.2.6.5.8.9.2.4.3.9.3,1.4s-.2,1.2-.6,1.7c-.4.5-1,.9-1.8,1.3s-1.8.5-2.9.5Z"/>
        <path class="st21" d="M870.1,210.9c-1.2,0-2.2-.2-3.1-.7-.9-.5-1.6-1.1-2.1-1.9-.5-.8-.8-1.7-.8-2.7s.3-1.9.8-2.7c.5-.8,1.2-1.4,2.1-1.9.9-.4,1.9-.7,3.1-.7s2.2.2,3.1.7,1.6,1.1,2.1,1.9.8,1.7.8,2.7-.3,1.9-.8,2.7-1.2,1.4-2.1,1.9-1.9.7-3.1.7ZM870.1,207.6c.3,0,.6,0,.8-.2s.4-.4.6-.7c.1-.3.2-.7.2-1.1s0-.8-.2-1.1c-.1-.3-.3-.5-.6-.7s-.5-.2-.8-.2-.6,0-.8.2-.4.4-.6.7c-.1.3-.2.7-.2,1.1s0,.8.2,1.1c.1.3.3.5.6.7s.5.2.8.2Z"/>
      </g>
    </g>
  </g>
  <g id="item6">
    <g id="bt6">
      <path id="bg6" class="st6" d="M900.6,268.8c34.7-5.3,67.2,17.2,74.9,50.9.4,1.6.7,3.2.9,4.8,5.6,36.6-19.8,70.9-56.6,76-35.3,4.9-68.6-19.4-74.7-54.5-6.3-36.4,18.1-70.7,54.2-77,.4,0,.9-.2,1.3-.2Z"/>
      <path id="shade6" class="st25" d="M899.8,269.4c34.7-5.3,67.2,17.2,74.9,50.9l-21.2,31.7c3.3-7.9,4.5-16.8,2.9-25.9-4.2-23.7-26.5-40.4-50.4-37.7-26.2,2.9-44.4,27-40.4,52.8,3.4,22.4,22.4,38.5,44.3,39.1-8.7,0-17.4-2.5-25.1-7.7-11.1-7.4-17.9-18.9-19.8-31.1s.6-22.5,7.1-32.3l26.4-39.5c.4,0,.9-.2,1.3-.2Z"/>
      <path id="circle6" class="st22" d="M956,326.5c1.6,9.1.5,18-2.9,25.9l-5.3,8c-8.8,13.2-23.4,20.3-38.2,20.3,0,0-.1,0-.2,0-21.9-.6-40.9-16.7-44.3-39.1-4-25.8,14.3-49.8,40.4-52.8,24-2.7,46.2,14,50.4,37.7Z"/>
    </g>
    <g id="txt6">
      <path class="st21" d="M1011.4,346c-3.2,0-6-.6-8.4-1.8-2.4-1.2-4.3-3.1-5.6-5.5-1.4-2.4-2-5.5-2-9.1s.8-7.2,2.3-10c1.6-2.8,3.7-4.9,6.5-6.3,2.8-1.5,6-2.2,9.7-2.2s3.9.2,5.7.7c1.8.5,3.4,1.1,4.7,1.9l-4.1,7.9c-1-.7-2-1.2-3-1.4s-2-.4-3.1-.4c-2.3,0-4.1.7-5.4,2s-2,3.3-2,5.9v2.8l-2.6-1.9c.6-1.1,1.4-2,2.2-2.7.9-.7,1.9-1.3,3.1-1.7,1.2-.4,2.5-.6,4.1-.6s3.9.4,5.7,1.3,3.1,2.1,4.2,3.7,1.6,3.5,1.6,5.7-.6,4.5-1.8,6.2c-1.2,1.8-2.8,3.1-4.9,4.1-2.1,1-4.3,1.4-6.8,1.4ZM1010.6,338.2c.7,0,1.3-.1,1.8-.4.5-.3.9-.7,1.2-1.2.3-.5.4-1.1.4-1.8,0-1.1-.3-1.9-1-2.5-.6-.6-1.5-.9-2.5-.9s-1.3.1-1.8.4c-.5.3-.9.7-1.2,1.2-.3.5-.5,1.1-.5,1.8s.2,1.3.5,1.8c.3.5.7.9,1.2,1.2.5.3,1.1.4,1.8.4Z"/>
      <g>
        <path class="st21" d="M978.3,298.2v-13h6.3c1.2,0,2.3.2,3.2.6.9.4,1.6,1,2.1,1.7.5.7.7,1.6.7,2.6s-.2,1.9-.7,2.6c-.5.7-1.2,1.3-2.1,1.7s-1.9.6-3.2.6h-3.8l2-1.9v5.1h-4.4ZM982.7,293.6l-2-2h3.6c.6,0,1.1-.1,1.3-.4.3-.3.4-.6.4-1.1s-.1-.8-.4-1.1c-.3-.3-.7-.4-1.3-.4h-3.6l2-2v7Z"/>
        <path class="st21" d="M995,298.4c-.8,0-1.5-.1-2.1-.4-.6-.3-1-.7-1.3-1.1-.3-.5-.4-1-.4-1.6s.2-1.2.5-1.7c.3-.5.8-.8,1.5-1s1.6-.4,2.6-.4h2.1v2h-1.5c-.4,0-.8,0-1,.2s-.3.4-.3.6,0,.4.3.6c.2.2.4.2.7.2s.5,0,.8-.2c.2-.2.4-.4.5-.7l.5,1.2c-.2.8-.5,1.3-1,1.7-.5.4-1.2.6-2.1.6ZM997.9,298.2v-1.8l-.3-.5v-3.4c0-.5-.2-.9-.5-1.1-.3-.3-.8-.4-1.5-.4s-.9,0-1.4.2c-.5.1-.9.3-1.2.6l-1.3-2.8c.6-.4,1.3-.7,2.1-.9.8-.2,1.6-.3,2.4-.3,1.8,0,3.1.4,4.1,1.2,1,.8,1.4,2,1.4,3.7v5.5h-3.9Z"/>
        <path class="st21" d="M1007.6,298.4c-.9,0-1.7,0-2.6-.3-.8-.2-1.5-.4-2-.7l1.2-2.8c.5.3,1,.5,1.7.7.6.2,1.3.2,1.9.2s.9,0,1-.1c.2,0,.3-.2.3-.4s-.1-.3-.3-.3-.5-.1-.8-.2c-.3,0-.7,0-1.1-.1-.4,0-.8-.1-1.3-.3s-.8-.3-1.2-.5c-.3-.2-.6-.5-.8-.9-.2-.4-.3-.9-.3-1.4s.2-1.2.6-1.8c.4-.5,1-.9,1.8-1.3.8-.3,1.7-.5,2.9-.5s1.5,0,2.2.2c.7.1,1.4.3,1.9.6l-1.2,2.8c-.5-.3-1-.5-1.5-.6s-1-.2-1.4-.2-.9,0-1.1.1c-.2,0-.3.2-.3.3s.1.3.3.3c.2,0,.5.1.8.2.3,0,.7,0,1.1.1.4,0,.8.1,1.2.3.4.1.8.3,1.1.5.3.2.6.5.8.9.2.4.3.9.3,1.4s-.2,1.2-.6,1.7c-.4.5-1,.9-1.8,1.3-.8.3-1.8.5-2.9.5Z"/>
        <path class="st21" d="M1018.1,298.4c-.9,0-1.7,0-2.6-.3-.8-.2-1.5-.4-2-.7l1.2-2.8c.5.3,1,.5,1.7.7.6.2,1.3.2,1.9.2s.9,0,1-.1.3-.2.3-.4-.1-.3-.3-.3c-.2,0-.5-.1-.8-.2-.3,0-.7,0-1.1-.1-.4,0-.8-.1-1.3-.3s-.8-.3-1.2-.5c-.3-.2-.6-.5-.8-.9-.2-.4-.3-.9-.3-1.4s.2-1.2.6-1.8c.4-.5,1-.9,1.8-1.3.8-.3,1.7-.5,2.9-.5s1.5,0,2.2.2c.7.1,1.4.3,1.9.6l-1.2,2.8c-.5-.3-1-.5-1.5-.6-.5-.1-1-.2-1.4-.2s-.9,0-1.1.1c-.2,0-.3.2-.3.3s.1.3.3.3c.2,0,.5.1.8.2s.7,0,1.1.1c.4,0,.8.1,1.2.3s.8.3,1.1.5c.3.2.6.5.8.9.2.4.3.9.3,1.4s-.2,1.2-.6,1.7c-.4.5-1,.9-1.8,1.3s-1.8.5-2.9.5Z"/>
        <path class="st21" d="M1030,298.4c-1.2,0-2.2-.2-3.1-.7-.9-.5-1.6-1.1-2.1-1.9-.5-.8-.8-1.7-.8-2.7s.3-1.9.8-2.7c.5-.8,1.2-1.4,2.1-1.9.9-.4,1.9-.7,3.1-.7s2.2.2,3.1.7,1.6,1.1,2.1,1.9.8,1.7.8,2.7-.3,1.9-.8,2.7-1.2,1.4-2.1,1.9-1.9.7-3.1.7ZM1030,295.1c.3,0,.6,0,.8-.2s.4-.4.6-.7c.1-.3.2-.7.2-1.1s0-.8-.2-1.1c-.1-.3-.3-.5-.6-.7s-.5-.2-.8-.2-.6,0-.8.2-.4.4-.6.7c-.1.3-.2.7-.2,1.1s0,.8.2,1.1c.1.3.3.5.6.7s.5.2.8.2Z"/>
      </g>
    </g>
    <g id="ic6">
      <path class="st11" d="M913.4,327.4c-.1,0-.3,0-.4,0-1.3-.2-2.3-1.3-2.3-2.6,0-.6-.5-1.1-1.1-1.1s-1.1.5-1.1,1.1c0,2.2,1.5,4.1,3.6,4.7v1.1c0,.6.5,1.1,1.1,1.1s1.1-.5,1.1-1.1v-1.1c2.4-.5,4.1-2.8,3.9-5.3-.3-2.5-2.4-4.4-4.9-4.4-1.4,0-2.6-1.2-2.6-2.6s1.2-2.6,2.6-2.6,2.6,1.2,2.6,2.6.5,1.1,1.1,1.1,1.1-.5,1.1-1.1c0-2.3-1.6-4.3-3.9-4.8v-1c0-.6-.5-1.1-1.1-1.1s-1.1.5-1.1,1.1v1.1c-2.4.6-3.9,2.9-3.6,5.4s2.4,4.2,4.8,4.2c1.4,0,2.6,1.1,2.6,2.5,0,1.4-1.1,2.6-2.5,2.6Z"/>
      <path class="st11" d="M896.7,321.2c0,9.2,7.4,16.6,16.6,16.6s16.6-7.4,16.6-16.6-7.4-16.6-16.6-16.6c-9.2,0-16.6,7.4-16.6,16.6ZM913.3,306.9c7.9,0,14.3,6.4,14.3,14.3s-6.4,14.3-14.3,14.3-14.3-6.4-14.3-14.3c0-7.9,6.4-14.3,14.3-14.3Z"/>
      <path class="st11" d="M935.5,340.6l-9,4.2c-1.2-2.3-3.6-3.8-6.2-3.8l-8.3-.2c-1.3,0-2.6-.4-3.8-1l-.8-.4c-4.3-2.2-9.4-2.2-13.7,0v-1.9c0-.6-.4-1.2-1.1-1.2l-9.1-.2c-.6,0-1.2.5-1.2,1.1l-.5,19.9c0,.6.5,1.2,1.1,1.2l9.1.2h0c.6,0,1.1-.5,1.1-1.1v-1s2.4-1.3,2.4-1.3c.9-.5,2-.6,3-.3l14.1,3.9s0,0,0,0c1,.2,2.1.3,3.1.3,2.2,0,4.4-.5,6.4-1.4,0,0,0,0,.1,0l20.4-13.2c.5-.3.7-1,.4-1.5-1.5-2.7-4.9-3.7-7.6-2.3ZM884.2,355.9l.5-17.6,6.8.2-.5,17.6-6.8-.2ZM921.2,355.6c-2.5,1.1-5.3,1.4-7.9.9l-14-3.9c-1.6-.4-3.3-.3-4.7.5l-1.2.6.3-11.7c3.8-2.5,8.7-2.8,12.8-.7l.8.4c1.5.8,3.1,1.2,4.7,1.2l8.3.2c2.3,0,4.3,1.7,4.8,4l-12.3-.3c-.6,0-1.2.5-1.2,1.1,0,.6.5,1.2,1.1,1.2l13.6.4h0c.6,0,1.1-.5,1.1-1.1,0-.5,0-1-.1-1.5l9.2-4.3s0,0,0,0c1.3-.7,2.9-.4,3.9.6l-19.3,12.5Z"/>
    </g>
  </g>
  <g id="item7">
    <g id="bt7">
      <path id="bg7" class="st5" d="M1046.6,393.6c34.7-5.3,67.2,17.2,74.9,50.9.4,1.6.7,3.2.9,4.8,5.6,36.6-19.8,70.9-56.6,76-35.3,4.9-68.6-19.4-74.7-54.5-6.3-36.4,18.1-70.7,54.2-77,.4,0,.9-.2,1.3-.2Z"/>
      <path id="shade7" class="st25" d="M1045.8,394.2c34.7-5.3,67.2,17.2,74.9,50.9l-21.2,31.7c3.3-7.9,4.5-16.8,2.9-25.9-4.2-23.7-26.5-40.4-50.4-37.7-26.2,2.9-44.4,27-40.4,52.8,3.4,22.4,22.4,38.5,44.3,39.1-8.7,0-17.4-2.5-25.1-7.7-11.1-7.4-17.9-18.9-19.8-31.1s.6-22.5,7.1-32.3l26.4-39.5c.4,0,.9-.2,1.3-.2Z"/>
      <path id="circle7" class="st22" d="M1102,451.3c1.6,9.1.5,18-2.9,25.9l-5.3,8c-8.8,13.2-23.4,20.3-38.2,20.3,0,0-.1,0-.2,0-21.9-.6-40.9-16.7-44.3-39.1-4-25.8,14.3-49.8,40.4-52.8s46.2,14,50.4,37.7Z"/>
      <g id="icon7">
        <g id="g685">
          <g>
            <g id="g691">
              <g id="path693">
                <path class="st12" d="M1062,478h-7.8c-.6,0-1.1-.5-1.1-1.1v-2.3c-1.1-.3-2.1-.8-3.1-1.3l-1.6,1.6c-.4.4-1.2.4-1.6,0l-5.5-5.5c-.4-.4-.4-1.2,0-1.6l1.6-1.6c-.5-1-1-2.1-1.3-3.1h-2.3c-.6,0-1.1-.5-1.1-1.1v-7.8c0-.6.5-1.1,1.1-1.1h2.3c.3-1.1.8-2.1,1.3-3.1l-1.6-1.6c-.4-.4-.4-1.2,0-1.6l5.5-5.5c.4-.4,1.2-.4,1.6,0l1.6,1.6c1-.5,2.1-1,3.1-1.3v-2.3c0-.6.5-1.1,1.1-1.1h7.8c.6,0,1.1.5,1.1,1.1v2.3c1.1.3,2.1.8,3.1,1.3l1.6-1.6c.4-.4,1.2-.4,1.6,0l5.5,5.5c.4.4.4,1.2,0,1.6l-1.6,1.6c.5,1,1,2.1,1.3,3.1h2.3c.6,0,1.1.5,1.1,1.1v7.8c0,.6-.5,1.1-1.1,1.1h-2.3c-.3,1.1-.8,2.1-1.3,3.1l1.6,1.6c.4.4.4,1.2,0,1.6l-5.5,5.5c-.4.4-1.2.4-1.6,0l-1.6-1.6c-1,.5-2.1,1-3.1,1.3v2.3c0,.6-.5,1.1-1.1,1.1ZM1055.3,475.7h5.5v-2c0-.5.4-1,.9-1.1,1.5-.4,2.9-.9,4.2-1.7.5-.3,1-.2,1.4.2l1.4,1.4,3.9-3.9-1.4-1.4c-.4-.4-.4-1-.2-1.4.8-1.3,1.4-2.7,1.7-4.2.1-.5.6-.9,1.1-.9h2v-5.5h-2c-.5,0-1-.4-1.1-.9-.4-1.5-.9-2.9-1.7-4.2-.3-.5-.2-1,.2-1.4l1.4-1.4-3.9-3.9-1.4,1.4c-.4.4-1,.4-1.4.2-1.3-.8-2.7-1.4-4.2-1.7-.5-.1-.9-.6-.9-1.1v-2h-5.5v2c0,.5-.4,1-.9,1.1-1.5.4-2.9.9-4.2,1.7-.5.3-1,.2-1.4-.2l-1.4-1.4-3.9,3.9,1.4,1.4c.4.4.4,1,.2,1.4-.8,1.3-1.4,2.7-1.7,4.2-.1.5-.6.9-1.1.9h-2v5.5h2c.5,0,1,.4,1.1.9.4,1.5.9,2.9,1.7,4.2.3.5.2,1-.2,1.4l-1.4,1.4,3.9,3.9,1.4-1.4c.4-.4,1-.4,1.4-.2,1.3.8,2.7,1.4,4.2,1.7.5.1.9.6.9,1.1v2Z"/>
              </g>
            </g>
            <g id="g695">
              <g id="path697">
                <path class="st12" d="M1058.1,469.1c-.2,0-.4,0-.6-.2l-8.7-5c-.4-.2-.6-.6-.6-1v-10c0-.4.2-.8.6-1l8.7-5c.4-.2.8-.2,1.1,0l8.7,5c.4.2.6.6.6,1v10c0,.4-.2.8-.6,1l-8.7,5c-.2.1-.4.2-.6.2ZM1050.5,462.3l7.5,4.3,7.5-4.3v-8.7l-7.5-4.3-7.5,4.3v8.7ZM1066.7,462.9h0,0Z"/>
              </g>
            </g>
            <g id="g699">
              <g id="path701">
                <path class="st12" d="M1058.1,459.1c-.2,0-.4,0-.6-.2l-8.4-4.8c-.5-.3-.7-1-.4-1.6.3-.5,1-.7,1.6-.4l7.8,4.5,7.9-4.6c.5-.3,1.3-.1,1.6.4s.1,1.3-.4,1.6l-8.5,4.9c-.2.1-.4.2-.6.2Z"/>
              </g>
            </g>
            <g id="g703">
              <g id="path705">
                <path class="st12" d="M1058.1,468.5c-.6,0-1.1-.5-1.1-1.1v-9.5c0-.6.5-1.1,1.1-1.1s1.1.5,1.1,1.1v9.5c0,.6-.5,1.1-1.1,1.1Z"/>
              </g>
            </g>
            <g id="g707">
              <g id="path709">
                <path class="st12" d="M1071.7,434.5c-.2,0-.4,0-.6-.1-4-2.2-8.5-3.4-13.1-3.4s-1.1-.5-1.1-1.1.5-1.1,1.1-1.1c5,0,9.9,1.3,14.2,3.7.6.3.8,1,.4,1.6-.2.4-.6.6-1,.6Z"/>
              </g>
            </g>
            <g id="g711">
              <g id="path713">
                <path class="st12" d="M1085.3,452.4c-.5,0-1-.4-1.1-.9-1-4-2.9-7.7-5.5-10.9-.4-.5-.3-1.2.1-1.6.5-.4,1.2-.3,1.6.1,2.8,3.4,4.9,7.5,6,11.8.2.6-.2,1.2-.8,1.4,0,0-.2,0-.3,0Z"/>
              </g>
            </g>
            <g id="g715">
              <g id="path717">
                <path class="st12" d="M1085.3,452.4c-.2,0-.4,0-.6-.2l-3.3-2.2c-.5-.3-.7-1.1-.3-1.6.3-.5,1.1-.7,1.6-.3l1.9,1.3.6-2.3c.2-.6.8-1,1.4-.8.6.2,1,.8.8,1.4l-1,3.8c0,.4-.4.7-.7.8-.1,0-.3,0-.4,0Z"/>
              </g>
            </g>
            <g id="g719">
              <g id="path721">
                <path class="st12" d="M1058.1,487.1c-3.4,0-6.7-.6-9.8-1.7-3-1.1-5.9-2.6-8.4-4.7-5.1-4-8.7-9.7-10.2-15.9-.2-.6.2-1.2.8-1.4.6-.2,1.2.2,1.4.8,1.4,5.8,4.8,11,9.4,14.7,2.3,1.9,4.9,3.3,7.7,4.3,2.9,1,5.9,1.6,9,1.6s1.1.5,1.1,1.1-.5,1.1-1.1,1.1Z"/>
              </g>
            </g>
            <g id="g723">
              <g id="path725">
                <path class="st12" d="M1029.8,469.5c0,0-.2,0-.3,0-.6-.2-1-.8-.8-1.4l1-3.8c0-.4.4-.7.7-.8s.7,0,1,.1l3.3,2.2c.5.3.7,1.1.3,1.6-.3.5-1.1.7-1.6.3l-1.9-1.3-.6,2.3c-.1.5-.6.9-1.1.9Z"/>
              </g>
            </g>
            <g id="g727">
              <g id="path729">
                <path class="st12" d="M1064.7,486.3c-.5,0-1-.4-1.1-.9-.2-.6.2-1.2.8-1.4,5.8-1.4,11-4.8,14.7-9.4,1.9-2.3,3.3-4.9,4.3-7.7,1-2.9,1.6-5.9,1.6-9s.5-1.1,1.1-1.1,1.1.5,1.1,1.1c0,3.4-.6,6.7-1.7,9.8-1.1,3-2.6,5.9-4.7,8.4-4,5.1-9.7,8.7-15.9,10.2,0,0-.2,0-.3,0Z"/>
              </g>
            </g>
            <g id="g731">
              <g id="path733">
                <path class="st12" d="M1068.5,487.3c0,0-.2,0-.3,0l-3.8-1c-.4,0-.7-.4-.8-.7s0-.7.1-1l2.2-3.3c.3-.5,1.1-.7,1.6-.3.5.3.7,1.1.3,1.6l-1.3,1.9,2.3.6c.6.2,1,.8.8,1.4-.1.5-.6.9-1.1.9Z"/>
              </g>
            </g>
            <g id="g735">
              <g id="path737">
                <path class="st12" d="M1030,459.1c-.6,0-1.1-.5-1.1-1.1,0-3.4.6-6.7,1.7-9.8,1.1-3,2.6-5.9,4.7-8.4,4-5.1,9.7-8.7,15.9-10.2.6-.2,1.2.2,1.4.8.2.6-.2,1.2-.8,1.4-5.8,1.4-11,4.8-14.7,9.4-1.9,2.3-3.3,4.9-4.3,7.7-1,2.9-1.6,5.9-1.6,9s-.5,1.1-1.1,1.1Z"/>
              </g>
            </g>
            <g id="g739">
              <g id="path741">
                <path class="st12" d="M1049.3,435.1c-.2,0-.4,0-.6-.2-.5-.3-.7-1.1-.3-1.6l1.3-1.9-2.3-.6c-.6-.2-1-.8-.8-1.4.2-.6.8-1,1.4-.8l3.8,1c.4,0,.7.4.8.7s0,.7-.1,1l-2.2,3.3c-.2.3-.6.5-1,.5Z"/>
              </g>
            </g>
            <g id="g743">
              <g id="path745">
                <path class="st12" d="M1076,437.4c-.3,0-.6-.1-.8-.3,0,0,0,0,0,0,0,0,0,0,0,0,0,0,0-.1-.1-.2,0,0,0-.1,0-.2,0,0,0,0,0-.1,0,0,0,0,0-.1s0,0,0-.1c0,0,0,0,0-.1,0,0,0-.1,0-.2,0,0,0-.1.1-.2,0,0,0,0,0,0,0,0,0,0,0,0,.2-.2.6-.4.9-.3,0,0,0,0,.1,0,0,0,.1,0,.2,0,0,0,.1,0,.2.1,0,0,0,0,0,0,0,0,0,0,0,0,0,0,0,0,0,0,0,0,0,0,0,0,0,0,0,.1.1.2,0,0,0,.1,0,.2,0,0,0,0,0,.1,0,0,0,0,0,.1s0,0,0,.1c0,0,0,0,0,.1,0,0,0,.1,0,.2,0,0,0,.1-.1.2,0,0,0,0,0,0,0,0,0,0,0,0,0,0,0,0,0,0,0,0,0,0,0,0,0,0-.1,0-.2.1,0,0-.1,0-.2,0,0,0,0,0-.1,0,0,0,0,0-.1,0Z"/>
              </g>
            </g>
          </g>
        </g>
      </g>
    </g>
    <g id="txt11" data-name="txt1">
      <path class="st21" d="M1150,466.1l12.6-29.4,3,4.7h-15.8l4.4-5.1v10h-9.3v-13.6h28.6v6.9l-11.1,26.5h-12.3Z"/>
      <g>
        <path class="st21" d="M1129.2,419.1v-13h6.3c1.2,0,2.3.2,3.2.6.9.4,1.6,1,2.1,1.7.5.7.7,1.6.7,2.6s-.2,1.9-.7,2.6c-.5.7-1.2,1.3-2.1,1.7s-1.9.6-3.2.6h-3.8l2-1.9v5.1h-4.4ZM1133.6,414.5l-2-2h3.6c.6,0,1.1-.1,1.3-.4.3-.3.4-.6.4-1.1s-.1-.8-.4-1.1c-.3-.3-.7-.4-1.3-.4h-3.6l2-2v7Z"/>
        <path class="st21" d="M1145.9,419.3c-.8,0-1.5-.1-2.1-.4-.6-.3-1-.7-1.3-1.1s-.4-1-.4-1.6.2-1.2.5-1.7c.3-.5.8-.8,1.5-1,.7-.2,1.6-.4,2.6-.4h2.1v2h-1.5c-.4,0-.8,0-1,.2s-.3.4-.3.6,0,.4.3.6c.2.2.4.2.7.2s.5,0,.8-.2.4-.4.5-.7l.5,1.2c-.2.8-.5,1.3-1,1.7s-1.2.6-2.1.6ZM1148.7,419.1v-1.8l-.3-.5v-3.4c0-.5-.2-.9-.5-1.1-.3-.3-.8-.4-1.5-.4s-.9,0-1.4.2c-.5.1-.9.3-1.2.6l-1.3-2.8c.6-.4,1.3-.7,2.1-.9.8-.2,1.6-.3,2.4-.3,1.8,0,3.1.4,4.1,1.2,1,.8,1.4,2,1.4,3.7v5.5h-3.9Z"/>
        <path class="st21" d="M1158.5,419.3c-.9,0-1.7,0-2.6-.3s-1.5-.4-2-.7l1.2-2.8c.5.3,1,.5,1.7.7.6.2,1.3.2,1.9.2s.9,0,1-.1c.2,0,.3-.2.3-.4s-.1-.3-.3-.3-.5-.1-.8-.2c-.3,0-.7,0-1.1-.1-.4,0-.8-.1-1.3-.3-.4-.1-.8-.3-1.2-.5-.3-.2-.6-.5-.8-.9s-.3-.9-.3-1.4.2-1.2.6-1.8c.4-.5,1-.9,1.8-1.3.8-.3,1.7-.5,2.9-.5s1.5,0,2.2.2c.7.1,1.4.3,1.9.6l-1.2,2.8c-.5-.3-1-.5-1.5-.6s-1-.2-1.4-.2-.9,0-1.1.1c-.2,0-.3.2-.3.3s.1.3.3.3.5.1.8.2c.3,0,.7,0,1.1.1.4,0,.8.1,1.2.3.4.1.8.3,1.1.5.3.2.6.5.8.9.2.4.3.9.3,1.4s-.2,1.2-.6,1.7c-.4.5-1,1-1.8,1.3-.8.3-1.8.5-2.9.5Z"/>
        <path class="st21" d="M1169,419.3c-.9,0-1.7,0-2.6-.3s-1.5-.4-2-.7l1.2-2.8c.5.3,1,.5,1.7.7.6.2,1.3.2,1.9.2s.9,0,1-.1.3-.2.3-.4-.1-.3-.3-.3c-.2,0-.5-.1-.8-.2-.3,0-.7,0-1.1-.1-.4,0-.8-.1-1.3-.3-.4-.1-.8-.3-1.2-.5-.3-.2-.6-.5-.8-.9s-.3-.9-.3-1.4.2-1.2.6-1.8c.4-.5,1-.9,1.8-1.3.8-.3,1.7-.5,2.9-.5s1.5,0,2.2.2c.7.1,1.4.3,1.9.6l-1.2,2.8c-.5-.3-1-.5-1.5-.6-.5-.1-1-.2-1.4-.2s-.9,0-1.1.1c-.2,0-.3.2-.3.3s.1.3.3.3.5.1.8.2.7,0,1.1.1c.4,0,.8.1,1.2.3s.8.3,1.1.5.6.5.8.9c.2.4.3.9.3,1.4s-.2,1.2-.6,1.7c-.4.5-1,1-1.8,1.3s-1.8.5-2.9.5Z"/>
        <path class="st21" d="M1180.9,419.3c-1.2,0-2.2-.2-3.1-.7-.9-.5-1.6-1.1-2.1-1.9-.5-.8-.8-1.7-.8-2.7s.3-1.9.8-2.7c.5-.8,1.2-1.4,2.1-1.9.9-.4,1.9-.7,3.1-.7s2.2.2,3.1.7c.9.4,1.6,1.1,2.1,1.9.5.8.8,1.7.8,2.7s-.3,1.9-.8,2.7c-.5.8-1.2,1.4-2.1,1.9s-1.9.7-3.1.7ZM1180.9,416.1c.3,0,.6,0,.8-.2.2-.1.4-.4.6-.7.1-.3.2-.7.2-1.1s0-.8-.2-1.1c-.1-.3-.3-.5-.6-.7-.2-.1-.5-.2-.8-.2s-.6,0-.8.2c-.2.1-.4.4-.6.7-.1.3-.2.7-.2,1.1s0,.8.2,1.1c.1.3.3.5.6.7.2.1.5.2.8.2Z"/>
      </g>
    </g>
  </g>
  <g id="item8">
    <g id="bt8">
      <path id="bg8" class="st2" d="M1098.8,556.2c34.7-5.3,67.2,17.2,74.9,50.9.4,1.6.7,3.2.9,4.8,5.6,36.6-19.8,70.9-56.6,76s-68.6-19.4-74.7-54.5c-6.3-36.4,18.1-70.7,54.2-77,.4,0,.9-.2,1.3-.2Z"/>
      <path id="shade8" class="st25" d="M1098,556.8c34.7-5.3,67.2,17.2,74.9,50.9l-21.2,31.7c3.3-7.9,4.5-16.8,2.9-25.9-4.2-23.7-26.5-40.4-50.4-37.7-26.2,2.9-44.4,27-40.4,52.8,3.4,22.4,22.4,38.5,44.3,39.1-8.7,0-17.4-2.5-25.1-7.7-11.1-7.4-17.9-18.9-19.8-31.1-1.7-10.9.6-22.5,7.1-32.3l26.4-39.5c.4,0,.9-.2,1.3-.2Z"/>
      <path id="circle8" class="st22" d="M1154.2,613.9c1.6,9.1.5,18-2.9,25.9l-5.3,8c-8.8,13.2-23.4,20.3-38.2,20.3,0,0-.1,0-.2,0-21.9-.6-40.9-16.7-44.3-39.1-4-25.8,14.3-49.8,40.4-52.8,24-2.7,46.2,14,50.4,37.7Z"/>
      <g id="icon8">
        <g>
          <path class="st26" d="M1135.7,601.3c-.1-2.1-1.8-3.8-4-4-4.3-.2-12.7,0-20.8,4.2-4.1,2.1-8.5,5.7-11.9,9.9,0,0,0,.1-.1.2l-7.9.6c-1.3.1-2.5.8-3.2,1.9l-5.4,8.1c-.5.8-.6,1.9-.2,2.8.4.9,1.2,1.5,2.2,1.7l6.6,1c0,.1,0,.3,0,.4-.2,1.3.2,2.7,1.2,3.6l9.2,9.2c.8.8,1.9,1.2,3,1.2s.5,0,.7,0c.1,0,.3,0,.4,0l1,6.6c.2,1,.8,1.8,1.7,2.2.4.2.8.2,1.2.2.6,0,1.1-.2,1.6-.5l8.1-5.4c1.1-.7,1.8-1.9,1.9-3.2l.6-7.9c0,0,.1,0,.2-.1,4.2-3.5,7.8-7.8,9.9-11.9,4.2-8.1,4.4-16.5,4.2-20.8h0ZM1117.3,642.6l-7.8,5.1-1-6.5c3.3-1,6.5-2.5,9.6-4.6l-.4,5.1c0,.3-.2.6-.5.8h0ZM1103.6,638.7l-9.2-9.2c-.2-.2-.3-.6-.3-.9.3-1.6.7-3.2,1.2-4.7l13.9,13.9c-1.8.6-3.4,1-4.7,1.2-.3,0-.7,0-.9-.3h0ZM1091.2,615.3l5.1-.4c-2.1,3.1-3.6,6.3-4.6,9.6l-6.5-1,5.1-7.8c.2-.3.5-.4.8-.5ZM1119.6,631.6c-2.5,2.1-5,3.7-7.3,4.8l-15.7-15.7c1.5-3,3.2-5.4,4.8-7.3,3.2-3.9,7.2-7.2,11-9.1,7.4-3.8,15.2-4,19.2-3.8.5,0,.9.4,1,1,.2,4,0,11.8-3.8,19.2-1.9,3.8-5.3,7.7-9.1,11h0Z"/>
          <path class="st26" d="M1118.8,622.1c2,0,4-.8,5.6-2.3,1.5-1.5,2.3-3.5,2.3-5.6s-.8-4.1-2.3-5.6c-3.1-3.1-8.1-3.1-11.1,0-1.5,1.5-2.3,3.5-2.3,5.6s.8,4.1,2.3,5.6c1.5,1.5,3.6,2.3,5.6,2.3h0ZM1115.5,610.9c.9-.9,2.1-1.4,3.3-1.4s2.4.5,3.3,1.4c.9.9,1.4,2.1,1.4,3.3s-.5,2.4-1.4,3.3c-1.8,1.8-4.8,1.8-6.7,0-.9-.9-1.4-2.1-1.4-3.3s.5-2.4,1.4-3.3Z"/>
          <path class="st26" d="M1083.6,641.6c.4,0,.8-.2,1.1-.5l5.1-5.1c.6-.6.6-1.6,0-2.2-.6-.6-1.6-.6-2.2,0l-5.1,5.1c-.6.6-.6,1.6,0,2.2.3.3.7.5,1.1.5Z"/>
          <path class="st26" d="M1094.5,638.5c-.6-.6-1.6-.6-2.2,0l-9.9,9.9c-.6.6-.6,1.6,0,2.2.3.3.7.5,1.1.5s.8-.2,1.1-.5l9.9-9.9c.6-.6.6-1.6,0-2.2h0Z"/>
          <path class="st26" d="M1097,643.2l-5.1,5.1c-.6.6-.6,1.6,0,2.2.3.3.7.5,1.1.5s.8-.2,1.1-.5l5.1-5.1c.6-.6.6-1.6,0-2.2-.6-.6-1.6-.6-2.2,0Z"/>
        </g>
      </g>
    </g>
    <g id="txt12" data-name="txt1">
      <path class="st21" d="M1213.4,629.5c-3,0-5.6-.4-7.8-1.3s-4-2.1-5.3-3.7c-1.3-1.6-1.9-3.5-1.9-5.7s.7-4,2-5.5,3.1-2.7,5.3-3.5c2.3-.8,4.8-1.2,7.7-1.2s5.4.4,7.7,1.2c2.3.8,4,2,5.3,3.5s2,3.4,2,5.5-.6,4-1.9,5.7c-1.3,1.6-3,2.8-5.3,3.7s-4.8,1.3-7.8,1.3ZM1213.4,614c-2.6,0-5-.4-7-1.1-2.1-.7-3.7-1.8-4.9-3.2s-1.8-3.1-1.8-5.1.6-3.8,1.8-5.3c1.2-1.5,2.8-2.6,4.9-3.5s4.5-1.2,7.2-1.2,5.1.4,7.2,1.2,3.7,2,4.9,3.5c1.2,1.5,1.8,3.2,1.8,5.3s-.6,3.7-1.8,5.1c-1.2,1.4-2.8,2.5-4.9,3.2-2.1.7-4.4,1.1-7.1,1.1ZM1213.4,621.9c1.1,0,2-.3,2.6-.9.7-.6,1-1.5,1-2.6s-.3-1.9-1-2.6c-.7-.6-1.6-.9-2.6-.9s-2,.3-2.6.9c-.7.6-1,1.5-1,2.6s.3,1.9,1,2.6c.7.6,1.6.9,2.6.9ZM1213.4,607.9c.8,0,1.4-.3,1.9-.8.5-.5.8-1.2.8-2.1s-.3-1.6-.8-2.1c-.5-.5-1.1-.7-1.9-.7s-1.4.2-1.9.7c-.5.5-.8,1.2-.8,2.1s.3,1.6.8,2.1c.5.5,1.1.8,1.9.8Z"/>
      <g>
        <path class="st21" d="M1177.5,581.7v-13h6.3c1.2,0,2.3.2,3.2.6s1.6,1,2.1,1.7c.5.7.7,1.6.7,2.6s-.2,1.9-.7,2.6c-.5.7-1.2,1.3-2.1,1.7-.9.4-1.9.6-3.2.6h-3.8l2-1.9v5.1h-4.4ZM1181.9,577.1l-2-2h3.6c.6,0,1.1-.1,1.3-.4.3-.3.4-.6.4-1.1s-.1-.8-.4-1.1c-.3-.3-.7-.4-1.3-.4h-3.6l2-2v7Z"/>
        <path class="st21" d="M1194.2,581.9c-.8,0-1.5-.1-2.1-.4s-1-.7-1.3-1.1c-.3-.5-.4-1-.4-1.6s.2-1.2.5-1.7c.3-.5.8-.8,1.5-1,.7-.2,1.6-.4,2.6-.4h2.1v2h-1.5c-.4,0-.8,0-1,.2s-.3.4-.3.6,0,.4.3.6c.2.2.4.2.7.2s.5,0,.8-.2c.2-.2.4-.4.5-.7l.5,1.2c-.2.8-.5,1.3-1,1.7-.5.4-1.2.6-2.1.6ZM1197.1,581.7v-1.8l-.3-.5v-3.4c0-.5-.2-.9-.5-1.1-.3-.3-.8-.4-1.5-.4s-.9,0-1.4.2c-.5.1-.9.3-1.2.6l-1.3-2.8c.6-.4,1.3-.7,2.1-.9.8-.2,1.6-.3,2.4-.3,1.8,0,3.1.4,4.1,1.2,1,.8,1.4,2,1.4,3.7v5.5h-3.9Z"/>
        <path class="st21" d="M1206.8,581.9c-.9,0-1.7,0-2.6-.3-.8-.2-1.5-.4-2-.7l1.2-2.8c.5.3,1,.5,1.7.7.6.2,1.3.2,1.9.2s.9,0,1-.1c.2,0,.3-.2.3-.4s-.1-.3-.3-.3-.5-.1-.8-.2c-.3,0-.7,0-1.1-.1-.4,0-.8-.1-1.3-.3s-.8-.3-1.2-.5c-.3-.2-.6-.5-.8-.9s-.3-.9-.3-1.4.2-1.2.6-1.8,1-.9,1.8-1.3c.8-.3,1.7-.5,2.9-.5s1.5,0,2.2.2c.7.1,1.4.3,1.9.6l-1.2,2.8c-.5-.3-1-.5-1.5-.6s-1-.2-1.4-.2-.9,0-1.1.1c-.2,0-.3.2-.3.3s.1.3.3.3.5.1.8.2c.3,0,.7,0,1.1.1.4,0,.8.1,1.2.3.4.1.8.3,1.1.5.3.2.6.5.8.9s.3.9.3,1.4-.2,1.2-.6,1.7-1,.9-1.8,1.3c-.8.3-1.8.5-2.9.5Z"/>
        <path class="st21" d="M1217.3,581.9c-.9,0-1.7,0-2.6-.3-.8-.2-1.5-.4-2-.7l1.2-2.8c.5.3,1,.5,1.7.7.6.2,1.3.2,1.9.2s.9,0,1-.1c.2,0,.3-.2.3-.4s-.1-.3-.3-.3c-.2,0-.5-.1-.8-.2-.3,0-.7,0-1.1-.1-.4,0-.8-.1-1.3-.3s-.8-.3-1.2-.5c-.3-.2-.6-.5-.8-.9s-.3-.9-.3-1.4.2-1.2.6-1.8,1-.9,1.8-1.3c.8-.3,1.7-.5,2.9-.5s1.5,0,2.2.2c.7.1,1.4.3,1.9.6l-1.2,2.8c-.5-.3-1-.5-1.5-.6-.5-.1-1-.2-1.4-.2s-.9,0-1.1.1c-.2,0-.3.2-.3.3s.1.3.3.3.5.1.8.2.7,0,1.1.1c.4,0,.8.1,1.2.3.4.1.8.3,1.1.5.3.2.6.5.8.9s.3.9.3,1.4-.2,1.2-.6,1.7c-.4.5-1,.9-1.8,1.3s-1.8.5-2.9.5Z"/>
        <path class="st21" d="M1229.2,581.9c-1.2,0-2.2-.2-3.1-.7-.9-.5-1.6-1.1-2.1-1.9-.5-.8-.8-1.7-.8-2.7s.3-1.9.8-2.7c.5-.8,1.2-1.4,2.1-1.9.9-.4,1.9-.7,3.1-.7s2.2.2,3.1.7c.9.4,1.6,1.1,2.1,1.9s.8,1.7.8,2.7-.3,1.9-.8,2.7-1.2,1.4-2.1,1.9-1.9.7-3.1.7ZM1229.2,578.6c.3,0,.6,0,.8-.2.2-.1.4-.4.6-.7.1-.3.2-.7.2-1.1s0-.8-.2-1.1c-.1-.3-.3-.5-.6-.7s-.5-.2-.8-.2-.6,0-.8.2-.4.4-.6.7c-.1.3-.2.7-.2,1.1s0,.8.2,1.1c.1.3.3.5.6.7.2.1.5.2.8.2Z"/>
      </g>
    </g>
  </g>
</svg>